<?xml version="1.0" standalone="no"?>
<!DOCTYPE svg PUBLIC "-//W3C//DTD SVG 20010904//EN"
 "http://www.w3.org/TR/2001/REC-SVG-20010904/DTD/svg10.dtd">
<svg version="1.0" xmlns="http://www.w3.org/2000/svg"
 width="181.000000pt" height="181.000000pt" viewBox="0 0 181.000000 181.000000"
 preserveAspectRatio="xMidYMid meet">
<metadata>
Created by potrace 1.14, written by Peter Selinger 2001-2017
</metadata>
<g transform="translate(0.000000,181.000000) scale(0.100000,-0.100000)"
fill="#000000" stroke="none">
<path d="M470 1664 c-48 -26 -62 -45 -145 -188 -330 -573 -300 -514 -300 -586
l0 -65 144 -250 c265 -462 245 -431 304 -459 l52 -25 395 2 c360 2 398 4 429
21 49 26 69 54 173 234 51 90 100 175 109 190 180 303 196 350 147 446 -71
139 -366 636 -391 659 -17 15 -48 32 -68 37 -23 6 -193 10 -421 10 l-383 -1
-45 -25z m838 -264 c24 -41 54 -93 67 -115 12 -22 67 -116 120 -210 54 -93 98
-174 98 -180 0 -5 -18 -41 -41 -79 -23 -37 -42 -71 -42 -75 0 -3 -9 -17 -19
-30 l-18 -24 -333 0 c-316 0 -334 -1 -352 -19 -14 -14 -18 -27 -13 -46 12 -51
17 -52 337 -52 l298 0 -25 -40 c-14 -22 -25 -41 -25 -44 0 -6 -72 -127 -93
-156 l-17 -25 -377 -2 c-313 -2 -381 0 -399 12 -20 13 -69 94 -232 378 -29 50
-49 97 -47 109 5 24 183 336 198 345 5 3 176 6 379 7 l370 1 19 24 c24 29 24
33 0 62 l-19 24 -341 5 -340 5 49 85 c27 47 60 92 73 100 21 13 77 15 352 15
l328 0 45 -75z"/>
</g>
</svg>
