<svg id="Слой_1" data-name="Слой 1" xmlns="http://www.w3.org/2000/svg" xmlns:xlink="http://www.w3.org/1999/xlink" viewBox="0 0 500 840.48"><defs><style>.cls-1{fill:none;}.cls-2{fill:#020202;}.cls-3{fill:#e56e18;}.cls-4{fill:url(#Безымянный_градиент_2);}.cls-5{fill:url(#Безымянный_градиент_13);}.cls-6{opacity:0.6;fill:url(#Безымянный_градиент_16);}.cls-7{opacity:0.06;fill:url(#bam);}</style><linearGradient id="Безымянный_градиент_2" x1="577.25" y1="-29.65" x2="83.25" y2="652.35" gradientUnits="userSpaceOnUse"><stop offset="0.01" stop-color="#352772"/><stop offset="0.17" stop-color="#302362"/><stop offset="0.48" stop-color="#281c49"/><stop offset="0.77" stop-color="#231839"/><stop offset="1" stop-color="#211734"/></linearGradient><radialGradient id="Безымянный_градиент_13" cx="969.25" cy="107.18" r="1180.64" gradientUnits="userSpaceOnUse"><stop offset="0" stop-color="#0d0a16"/><stop offset="0.84" stop-color="#150f22"/><stop offset="1" stop-color="#171025"/></radialGradient><radialGradient id="Безымянный_градиент_16" cx="791.3" cy="-108.8" r="1037.52" gradientUnits="userSpaceOnUse"><stop offset="0" stop-color="indigo"/><stop offset="0.16" stop-color="#47017c"/><stop offset="0.38" stop-color="#3d026a"/><stop offset="0.63" stop-color="#2d054d"/><stop offset="0.91" stop-color="#150925"/><stop offset="1" stop-color="#0d0a16"/></radialGradient><pattern id="bam" data-name="bam" width="250" height="200" patternUnits="userSpaceOnUse" viewBox="0 0 250 200"><rect class="cls-1" width="250" height="200"/><path class="cls-2" d="M130.49,253.62a56.25,56.25,0,0,1-3.83,18.16,59.54,59.54,0,0,1-38,35.4,56.55,56.55,0,0,1-8.92,2,60.19,60.19,0,0,1-8.16.6,57,57,0,0,1-6.4-.32A58.49,58.49,0,0,1,51,306.12a57.74,57.74,0,0,1-16.87-9.6,64.91,64.91,0,0,1-8.38-8.28,57.12,57.12,0,0,1-7.12-10.86A60.41,60.41,0,0,1,13.13,261a54.11,54.11,0,0,1-.84-10.28c0-1.94,0-3.57.11-5.19.1-1.46.32-2.92.56-4.37a61.64,61.64,0,0,1,2.89-11,58.11,58.11,0,0,1,9.91-17.22,63.8,63.8,0,0,1,8-8,57.49,57.49,0,0,1,10.73-7.06,59.31,59.31,0,0,1,15.35-5.36A55.41,55.41,0,0,1,69,191.42a65.2,65.2,0,0,1,9.27.33,59.31,59.31,0,0,1,34.87,16.87,60.67,60.67,0,0,1,15.58,27.14,56.38,56.38,0,0,1,1.44,8A65.62,65.62,0,0,1,130.49,253.62Zm-4.22-2.79v-3.77a28.07,28.07,0,0,0-.15-2.91,57,57,0,0,0-1.25-6.61A55.11,55.11,0,0,0,80.5,196.26a44.65,44.65,0,0,0-5.15-.61q-2.64-.12-5.28-.09a39.61,39.61,0,0,0-4.22.2c-1.95.24-3.87.57-5.79,1a53.58,53.58,0,0,0-14.72,5.35,55.86,55.86,0,0,0-13.49,10.34,54,54,0,0,0-12.32,19.81A54.77,54.77,0,0,0,16.36,250a55.11,55.11,0,0,0,3,18.44,54.77,54.77,0,0,0,22.32,28.37,53.46,53.46,0,0,0,31.53,8.7,52.31,52.31,0,0,0,9.26-1,55.46,55.46,0,0,0,38.33-29.72A55.7,55.7,0,0,0,125,263.23a43.55,43.55,0,0,0,1.17-6.8C126.27,254.57,126.27,252.7,126.27,250.83Z"/><path class="cls-2" d="M130.49,53.62a56.25,56.25,0,0,1-3.83,18.16,59.54,59.54,0,0,1-38,35.4,56.55,56.55,0,0,1-8.92,2,60.19,60.19,0,0,1-8.16.6,57,57,0,0,1-6.4-.32A58.49,58.49,0,0,1,51,106.12a57.74,57.74,0,0,1-16.87-9.6,64.91,64.91,0,0,1-8.38-8.28,57.12,57.12,0,0,1-7.12-10.86A60.41,60.41,0,0,1,13.13,61a54.11,54.11,0,0,1-.84-10.28c0-1.94,0-3.57.11-5.19.1-1.46.32-2.92.56-4.37a61.64,61.64,0,0,1,2.89-11,58.11,58.11,0,0,1,9.91-17.22,63.8,63.8,0,0,1,8-8A57.49,57.49,0,0,1,44.5-2.16,59.31,59.31,0,0,1,59.85-7.52,55.41,55.41,0,0,1,69-8.58a65.2,65.2,0,0,1,9.27.33A59.31,59.31,0,0,1,113.16,8.62a60.67,60.67,0,0,1,15.58,27.14,56.38,56.38,0,0,1,1.44,8A65.62,65.62,0,0,1,130.49,53.62Zm-4.22-2.79V47.06a28.07,28.07,0,0,0-.15-2.91,57,57,0,0,0-1.25-6.61A55.11,55.11,0,0,0,80.5-3.74a44.65,44.65,0,0,0-5.15-.61q-2.64-.12-5.28-.09a39.61,39.61,0,0,0-4.22.2c-1.95.24-3.87.57-5.79,1A53.58,53.58,0,0,0,45.34,2.07,55.86,55.86,0,0,0,31.85,12.41,54,54,0,0,0,19.53,32.22,54.77,54.77,0,0,0,16.36,50a55.11,55.11,0,0,0,3,18.44A54.77,54.77,0,0,0,41.69,96.82a53.46,53.46,0,0,0,31.53,8.7,52.31,52.31,0,0,0,9.26-1,55.46,55.46,0,0,0,38.33-29.72A55.7,55.7,0,0,0,125,63.23a43.55,43.55,0,0,0,1.17-6.8C126.27,54.57,126.27,52.7,126.27,50.83Z"/><path class="cls-2" d="M113.56,52.49a42.46,42.46,0,0,1-28.44,38,40.86,40.86,0,0,1-8.8,2,42,42,0,0,1-31.07-8.7A42.36,42.36,0,0,1,30.19,60.53a37.1,37.1,0,0,1-1.06-7.64,53.82,53.82,0,0,1,.14-6.6A39.62,39.62,0,0,1,32.89,32.8,42.52,42.52,0,0,1,61.32,9.41a33.56,33.56,0,0,1,9-1.13,59.8,59.8,0,0,1,7.3.4,40.71,40.71,0,0,1,5.1,1.12,42.42,42.42,0,0,1,30.36,33.93A40.15,40.15,0,0,1,113.56,52.49ZM81.8,55.11a.52.52,0,0,0-.36.06c.89,1.39,1.7,2.81,2.68,4.1h5.62c.05-.51,0-1,0-1.48a.61.61,0,0,0-.25-.54c-.77-.63-1.54-1.28-2.29-1.93a.88.88,0,0,0-.62-.21ZM82,50.34c-.45-.45-.91-.89-1.37-1.33a.47.47,0,0,0-.36-.16H77.36c.37.71.76,1.3,1.13,1.91a.55.55,0,0,0,.54.3c1,0,1.94,0,2.91,0,.09,0,.19,0,.25-.07C82.18,50.5,82.18,50.49,82,50.34ZM76.51,51c0,.19,0,.36-.27.32a3.23,3.23,0,0,0-1.77-.75c-.7-.08-1.41-.16-2.14-.18,0,.23,0,.42,0,.62s.07.29.22.31a9,9,0,0,1,1.46.5,1.21,1.21,0,0,0,1.21-.14.52.52,0,0,1,.79,0s.09,0,.13,0a1,1,0,0,0,1-.63,1.11,1.11,0,0,0-.27-1.27.38.38,0,0,0-.17-.2,4.81,4.81,0,0,0-4.53-.68c-.25.08-.3.23-.26.56s.12.39.38.41c.45,0,.91.05,1.36.09a6.51,6.51,0,0,1,2,.43A1.73,1.73,0,0,1,76.51,51ZM65,50.75a.52.52,0,0,0,.2.47,1.39,1.39,0,0,0,.75.36c.27.07.27.06.32-.28.06,0,.11-.12.19-.11a2.07,2.07,0,0,0,1.09-.29c.41-.18.81-.4,1.22-.61a3.61,3.61,0,0,1,1.87-.49,1.65,1.65,0,0,0,.31,0c.17,0,.35,0,.35-.27a.36.36,0,0,0-.32-.38,1.4,1.4,0,0,0-.45-.06,3.08,3.08,0,0,0-1.48.38,13.33,13.33,0,0,1-3.3,1.15.47.47,0,0,1-.17,0c-.12,0-.21,0-.21-.19a.86.86,0,0,1,.43-.32,7.55,7.55,0,0,1,1.53-.55A2.08,2.08,0,0,0,68.41,49a.42.42,0,0,0-.3,0,5.9,5.9,0,0,0-1.84.49c-.21.1-.42.25-.68.13,0-.27.17-.39.34-.5a4.52,4.52,0,0,1,2.21-.77,1.18,1.18,0,0,0,.49-.09,6.83,6.83,0,0,1,1.9-.44c.16,0,.33-.05.42-.22,0-.4-.33-.52-.66-.58a10.93,10.93,0,0,0-2.68-.09,2,2,0,0,0-1.23.53,8.55,8.55,0,0,0-1.94,2.45,3.15,3.15,0,0,0-.3,1,.61.61,0,0,0,0,.51c.37-.32.23-.81.43-1.16C64.93,50.25,64.9,50.53,65,50.75Zm-1.24-27.5c.22-.13.17-.3,0-.45s-.3-.07-.43.05a1,1,0,0,0-.67.74l.14,0,.06,0h0l.11,0s0,0,.06,0l.06,0,.29-.13.1,0,.06,0h.17Zm-1,1.77c.2.19.36,0,.51-.09a.13.13,0,0,0,.07-.06,1.65,1.65,0,0,1,1-.52c.19,0,.24-.16.21-.33a.38.38,0,0,0-.32-.33.62.62,0,0,0-.51.11,2.2,2.2,0,0,0-.95.57A.47.47,0,0,0,62.68,25Zm1.06.88a1.65,1.65,0,0,0,.56-1,.55.55,0,0,0-.6.34C63.61,25.43,63.49,25.66,63.74,25.9Zm6.4,9.65a.71.71,0,0,1-.69.15,4.49,4.49,0,0,0-2.54.54,1.69,1.69,0,0,0-.52.44c0,.06-.15.12,0,.25a1.69,1.69,0,0,0,.77-.32,3.08,3.08,0,0,1,1.64-.46h.73a3,3,0,0,0,1.72-.39.72.72,0,0,0,.68.24l2.68,0a4.55,4.55,0,0,1,3.55,1.55c.11.11.2.27.37.32a.22.22,0,0,0,0-.22A2.49,2.49,0,0,0,77,36.09a6.19,6.19,0,0,0-1.8-.46,12.6,12.6,0,0,0-2.62-.11c.54-.66,1.23-.39,1.87-.41-.09-.15-.3-.11-.31-.3.14-.15.3-.08.46-.05a14.84,14.84,0,0,1,1.87.54,5.13,5.13,0,0,0,1.1.31c-.67-1.44-3.16-2.68-4.36-2.18a.76.76,0,0,0,.47.24c.31.09.62.15.93.22a5.81,5.81,0,0,1,1.67.58c.22.13.48.26.49.61a.77.77,0,0,1-.54-.06,6.36,6.36,0,0,1-.71-.31,2,2,0,0,0-1.67-.14q-.41.13-.81.3c-.42.17-.83.36-1.24.55a.6.6,0,0,1-.72-.1l-.31-.27a1.81,1.81,0,0,0-1.17-.43,3,3,0,0,0-.93.18c-.16.06-.33.16-.51,0a1.4,1.4,0,0,1,1.06-.77,3.36,3.36,0,0,0,.82-.24,6,6,0,0,1,2.42-.57.45.45,0,0,0,.41-.15c.14-.24.37-.23.6-.25a9.83,9.83,0,0,1,1.08.09.53.53,0,0,0,.39,0c-.1-.2-.2-.36-.42-.4a1.93,1.93,0,0,0-2.21.11,2.21,2.21,0,0,1-1.35.47,3.78,3.78,0,0,0-1.53.4,9.18,9.18,0,0,0-2.28,1.86l.67-.07a7.32,7.32,0,0,1,1.81,0C69.84,35.27,70.05,35.3,70.14,35.55Zm-1.28-7.78c.32-.28.26-.67.34-1.12C68.72,27.12,68.64,27.39,68.86,27.77Zm3.41.91c.19-.36.19-.36.79-.72.3-.15.66.1,1-.13,0-.06,0-.13-.05-.13-.46-.07-.68-.46-1-.71a1.41,1.41,0,0,0-.52-.26,1.14,1.14,0,0,0-1.1.15,1.83,1.83,0,0,0-.6,1.07c0,.16,0,.31.15.37a.25.25,0,0,0,.32-.18,1.22,1.22,0,0,1,.63-.67c.14-.08.29-.14.44-.21h0c.12,0,.23-.06.36,0a2.25,2.25,0,0,1-.08.24l-.47.42a1,1,0,0,0-.32.68c0,.39,0,.47.42.43a3.74,3.74,0,0,1,1.79.17,3.6,3.6,0,0,1,.4.28c.3.27.29.51,0,.81a3.79,3.79,0,0,0-1.29.17.71.71,0,0,0-.53.71,3.55,3.55,0,0,1,1.91-.35l.67.09a4.15,4.15,0,0,0-.22-2c-.22-.48-.39-.59-.91-.52a1.08,1.08,0,0,0-.44.09A4.7,4.7,0,0,1,72.27,28.68Zm2.25,2.71c-.5-.23-.68-.2-1,.22a2.46,2.46,0,0,0,1.13.22.64.64,0,0,0,.52-.08A1,1,0,0,0,74.52,31.39Zm-1-1.7c-.31-.25-.59-.21-.94.14A.77.77,0,0,0,73.49,29.69ZM71.23,34a2.84,2.84,0,0,0,1.72.07A2.47,2.47,0,0,0,71.23,34ZM66.5,44.15a3.4,3.4,0,0,0-.76,1.26,1.38,1.38,0,0,0,.6-.35,6.08,6.08,0,0,1,1.77-1,3.09,3.09,0,0,0,.8-.43,2.44,2.44,0,0,1,.91-.49c.24,0,.27-.21.13-.41a.76.76,0,0,0-.6-.27,2.6,2.6,0,0,0-1.65.39,3,3,0,0,1-.56.29.23.23,0,0,1-.25-.06.22.22,0,0,1,0-.29,1.24,1.24,0,0,1,.25-.26,5.45,5.45,0,0,1,.91-.59,8.08,8.08,0,0,0,1.12-.7,1,1,0,0,0,.42-.49.94.94,0,0,0-.55,0,4.43,4.43,0,0,0-2.1.9,1.43,1.43,0,0,1-.52.36,1.11,1.11,0,0,0-.66.52,4.26,4.26,0,0,0-.49.92,1.29,1.29,0,0,0,0,1c.25-.23.47-.44.7-.62s.44-.46.81-.47A.76.76,0,0,1,66.5,44.15Zm2.92-2.24a13.69,13.69,0,0,0,3.67.05C71.84,41.41,70,41.38,69.42,41.91Zm1.71-1c.31.07.63.11.94.19a6.19,6.19,0,0,1,3.08,1.31,1.3,1.3,0,0,0,.72.44,1.31,1.31,0,0,0-.43-1.3,2.68,2.68,0,0,0-1.4-1,2.57,2.57,0,0,1-.93-.44A.6.6,0,0,0,73,40a3.1,3.1,0,0,0-2.3.7A.73.73,0,0,0,71.13,40.91Zm-1.92,3.5A2.44,2.44,0,0,0,70.84,44,2.28,2.28,0,0,0,69.21,44.41ZM71,43.31a3.79,3.79,0,0,0,.48-.14,3.11,3.11,0,0,1,2.63.22c.33.18.64.39,1,.58a1.06,1.06,0,0,0,.71.34.51.51,0,0,0,0-.63,1.52,1.52,0,0,0-.7-.67A1.88,1.88,0,0,0,74,42.47a10.79,10.79,0,0,0-2.54,0c-.43,0-.64.3-.7.79A.23.23,0,0,0,71,43.31Zm1.34.37a3,3,0,0,0,2.06.56C73.2,43.59,72.75,43.47,72.34,43.68ZM71,45.06c0,.34.15.51.44.52a4.48,4.48,0,0,0,.64,0,1.25,1.25,0,0,1,1,.3,2.93,2.93,0,0,0,1.47.68,10.59,10.59,0,0,1,1.14.3c.23.11.32.39.53.49a.15.15,0,0,0,.1-.17,4.56,4.56,0,0,0-.53-1.61.86.86,0,0,0-.61-.48,1.31,1.31,0,0,0-.62-.13h-1a3.64,3.64,0,0,1-1.73-.29.91.91,0,0,0-.54-.07A.45.45,0,0,0,71,45.06Zm5.42-.55a.78.78,0,0,0,.24.59,9,9,0,0,0,.16-2.3,3.8,3.8,0,0,0-.75-2.1,2.14,2.14,0,0,0-.93-1.08A6.36,6.36,0,0,0,72.58,39a.48.48,0,0,0-.52.2l.47.12a20.84,20.84,0,0,1,2.17.66,2.37,2.37,0,0,1,1.21.9,5.19,5.19,0,0,1,.34,1.5C76.32,43.06,76.31,43.79,76.43,44.51Zm.4,2.41c.2,0,.26-.2.32-.34a4,4,0,0,0,.34-1.12,13,13,0,0,0,.21-2c.16-.06.22.15.36,0S78,43.16,77.9,43a2.05,2.05,0,0,1-.27-.67,6.06,6.06,0,0,0-1-2.21c0-.09-.1-.2-.25-.15a.28.28,0,0,0,0,.37A3.6,3.6,0,0,1,77.06,42a12.32,12.32,0,0,1,.19,2.71,4,4,0,0,1-.4,1.34,1.53,1.53,0,0,0-.13.43C76.69,46.65,76.66,46.81,76.83,46.92Zm1.67-3.6a1.12,1.12,0,0,0,.3.7,2.55,2.55,0,0,0,.13-1.37,6.87,6.87,0,0,0-1.65-3.44,2.91,2.91,0,0,0-.64-.57,1,1,0,0,0-.46-.19A4.38,4.38,0,0,1,74.63,38a3.77,3.77,0,0,0-1.14-.3.91.91,0,0,0-.54.06,3.76,3.76,0,0,1-1,.26,3.28,3.28,0,0,0-.91.27.58.58,0,0,0-.36.56c.22.14.41,0,.58,0a5.37,5.37,0,0,1,4.11.15,8.78,8.78,0,0,0,.85.33,1.92,1.92,0,0,1,1.21,1A8.84,8.84,0,0,1,78.5,43.32Zm-.5-5c0,.06,0,.16-.08.21a.2.2,0,0,1-.17,0,4.67,4.67,0,0,1-.84-.55,3.89,3.89,0,0,0-1.26-.7,1.21,1.21,0,0,1-.67-.47,1.29,1.29,0,0,1,.68,0,6.79,6.79,0,0,1,1.67.81c.08,0,.14.16.33.05a1.06,1.06,0,0,1-.19-.11,7.7,7.7,0,0,0-2.36-1.14c-.18-.05-.39-.1-.52.13s-.21.11-.32.14a3.53,3.53,0,0,1-.86.06,4.68,4.68,0,0,0-1.57.24c-.18.07-.37.12-.44.37a1,1,0,0,0,.59,0,9.91,9.91,0,0,1,2.49-.11,5.64,5.64,0,0,1,2.84,1.34A3.78,3.78,0,0,1,78.48,40c0,.09,0,.23.19.21C78.72,39.72,78.21,38.3,78,38.29ZM65.43,40.14a.29.29,0,0,0,.11.26,27.49,27.49,0,0,0,3.12-.72c-.44-.1-.89.08-1.36-.11a.88.88,0,0,1,.49-.29,5.52,5.52,0,0,1,1.65-.3.68.68,0,0,0,.58-.17.73.73,0,0,0-.91-.49,5.42,5.42,0,0,0-2,.78,8.26,8.26,0,0,1-.87.48.32.32,0,0,1-.35,0,1.82,1.82,0,0,1,.72-.76,8.57,8.57,0,0,1,2-1,1.21,1.21,0,0,0,.59-.31c-.56-.11-1,.26-1.54.18a.67.67,0,0,1,.41-.51,2.48,2.48,0,0,1,1.36-.26.84.84,0,0,0,.6-.07c-.11-.17-.27-.18-.41-.23a2.09,2.09,0,0,0-1.33.09A3.83,3.83,0,0,0,65.43,40.14Zm-.22,1.56a.28.28,0,0,0,0,.38,13.4,13.4,0,0,1,1.92-1.33s.06-.1,0-.21a6.25,6.25,0,0,0-1.32.6A1.86,1.86,0,0,0,65.21,41.7ZM65,45.27a2.62,2.62,0,0,0-.2,1.57c.26-.24.58-.39.77-.74C65.14,46,65.08,45.65,65,45.27Zm-.25,2.59c0,.09-.12.17-.09.29s.22-.09.3-.16c.29-.25.56-.51.83-.77a3.7,3.7,0,0,1,2.59-1c.46,0,.91,0,1.37-.06a1,1,0,0,0,.39-.08.7.7,0,0,0,.35-.88c-.12-.28-.34-.33-.73-.13a1.7,1.7,0,0,1-.79.19c-.32,0-.64,0-.95,0a1.6,1.6,0,0,0-1.15.34A8.81,8.81,0,0,0,64.74,47.86ZM67.1,51.8a4.85,4.85,0,0,0,2-.34,5.68,5.68,0,0,1,2-.34,2.17,2.17,0,0,0,.7-.06.69.69,0,0,0-.49-.44,3.89,3.89,0,0,0-2.11-.1A6.81,6.81,0,0,0,67.1,51.8Zm5.29-4.15c.81.12,1.63.08,2.45.16a2,2,0,0,1,1.23.5.65.65,0,0,0,.37.23s0-.08,0-.1a2.64,2.64,0,0,0-1.73-1.28,7.63,7.63,0,0,1-1.48-.44c-.21-.08-.42-.18-.63-.24a.87.87,0,0,0-1.12.44c-.16.25-.12.42.16.54A2.69,2.69,0,0,0,72.39,47.65Zm4.9.31a2.4,2.4,0,0,0,.57-1.19,3.78,3.78,0,0,0,.24-2,8.28,8.28,0,0,1-.41,1.63c-.16.34-.33.67-.48,1A.39.39,0,0,0,77.29,48ZM80.68,13c.11.35.39.52.66.76C81.24,13.24,81.1,13.08,80.68,13Zm-3,5.07c.06.44.19.6.49.53a4,4,0,0,0,1.73-.85c.24-.22.23-.4.06-.69-.09-.13-.24-.22-.28-.38.2-.1.36,0,.54.07.35.06.51,0,.68-.3a2.1,2.1,0,0,0,.28-.76c-.68.32-1,.24-1.36-.4-.14-.23-.24-.49-.37-.72s0-.25-.22-.27a3,3,0,0,1,0,.94.36.36,0,0,0-.23.25,2.4,2.4,0,0,0-.12,1.4c0,.13.06.26.08.39a.48.48,0,0,1-.26.55c-.14-.09-.06-.31-.25-.35a1,1,0,0,0-.87-.31A2.45,2.45,0,0,0,77.64,18.1Zm-.61.24a.8.8,0,0,0,.31.53.59.59,0,0,0,0-.64.83.83,0,0,0-.38-.65A.94.94,0,0,0,77,18.34Zm-2.56-.47a1.34,1.34,0,0,1,.34.82.47.47,0,0,0,0,.31c0,.1.08.2.2.22a.33.33,0,0,0,.31-.15.71.71,0,0,0,.12-.47c.06-.21-.13-.41,0-.62.17-.05.24.07.32.18s.12.24.18.36a.73.73,0,0,0,.19.55c.14,0,.29,0,.43-.07a.57.57,0,0,0,0-.59c0-.38-.19-.74-.59-.8A3.45,3.45,0,0,0,74.47,17.87Zm-.35,1.36A.25.25,0,0,0,74.4,19c0-.11-.07-.23-.21-.24S74,18.89,74,19,74,19.23,74.12,19.23Zm-2.7-.29a2,2,0,0,0-.58.47h2a.65.65,0,0,0,.69-.53.74.74,0,0,0-.59-1.08,1.61,1.61,0,0,1-.14,1.08l-.1,0c-.25,0-.25-.21-.23-.41a.6.6,0,0,0-.47-.66C72,18.32,71.67,18.61,71.42,18.94Zm-.6-1.13c.08.39.08.39.35.56a.29.29,0,0,0,.09-.43A.3.3,0,0,0,70.82,17.81Zm-.71,8.42a.56.56,0,0,0-.15.27,1.52,1.52,0,0,0-.28.65,1.43,1.43,0,0,0-.08.58.31.31,0,0,0,.3.33c.17,0,.23-.11.28-.24a2.3,2.3,0,0,0,.12-.43,1.36,1.36,0,0,1,.34-.77c.17-.13.45-.11.51-.38C70.73,25.81,70.48,25.81,70.11,26.23Zm-2.25-6.67a2.5,2.5,0,0,0,.71,0,.29.29,0,0,0,.31-.31c0-.11,0-.21,0-.32a.61.61,0,0,1,.11-.14l0,0,0,0h0l0,0,0,0,0,0h0l.06.07,0,0h0c.08.52.21.64.67.61s.46-.12.55-.62a1,1,0,0,0,0-.45.8.8,0,0,0-1.09-.58,1.55,1.55,0,0,0,.32.44,1.16,1.16,0,0,1,.33.58c-.14.2-.29,0-.43,0-.25-.24-.49-.5-.75-.73s-.32-.33-.55-.22-.18.33-.19.52V19C68,19.19,68,19.37,67.86,19.56ZM67.51,19a.87.87,0,0,0,.15-.81.25.25,0,0,0-.3-.2c-.12,0-.14.14-.14.25A.86.86,0,0,0,67.51,19ZM67,25.77c-.29.28-.26.69-.41,1-.34,0-.46-.06-.61-.3a1.17,1.17,0,0,1-.19-1.07,1.65,1.65,0,0,0,.29-.61.92.92,0,0,0-1.1.32.77.77,0,0,0-.29.33.75.75,0,0,0,.21,1.15,2.49,2.49,0,0,0,1.27.54c.35.05.46,0,.61-.34a3.7,3.7,0,0,1,.31-.69,1.1,1.1,0,0,1,.1.43c0,.13,0,.26.07.4a1,1,0,0,0,.16.42c.19.25.67.28.73,0a3.26,3.26,0,0,1,.75-1.17.6.6,0,0,0,.27-.49c-.46-.25-.67-.19-1,.31-.27.32-.25.76-.48,1.16a2,2,0,0,1,0-1.28.85.85,0,0,0,.11-.14c.06-.09.15-.2.07-.32a.36.36,0,0,0-.4-.15A.57.57,0,0,0,67,25.77Zm-.68-.4a.16.16,0,0,0,.25.09.33.33,0,0,0,.19-.21c-.07-.15-.18-.11-.28-.1S66.24,25.24,66.28,25.37Zm-3.11-5.62c.25,0,.51,0,.76,0a1.2,1.2,0,0,1,.87.31c.26.38.33.44.6.34a5.12,5.12,0,0,0,1.22-.6.64.64,0,0,0,.33-.6,1,1,0,0,0-.09-.57.38.38,0,0,0-.32-.29,3.84,3.84,0,0,0-1.12,0c.27.36.65.57.75,1-.11.24-.29.25-.5.17A1.72,1.72,0,0,0,63.17,19.75Zm-1.32,3.83c.14,0,.18-.08.21-.19a1.49,1.49,0,0,1,.68-.86,2.57,2.57,0,0,1,.89-.28c.45-.13.54-.52.63-.9s0-.44-.4-.52a1.61,1.61,0,0,0-.62,0c-.17,0-.36.05-.51-.13.43-.37,1.05-.13,1.5-.45a1.31,1.31,0,0,0-2.07,1c.17.15.39.12.59.15a1.09,1.09,0,0,1,.64.32l0,.14-.4.07a1.27,1.27,0,0,0-1.22,1.4C61.74,23.41,61.73,23.53,61.85,23.58ZM60.71,51H63.5c.19-.73.57-1.4.75-2.15h-2c-.17,0-.24.11-.33.21-.31.37-.61.76-.94,1.11A.84.84,0,0,0,60.71,51ZM53,59.27h5.79l2.63-4.09s0-.06-.07-.06H55.71a.49.49,0,0,0-.33.13c-.76.72-1.53,1.43-2.3,2.14-.08.07-.16.13-.16.25C52.94,58.17,52.88,58.71,53,59.27ZM47.18,75.78c1,0,1,0,1.58-.87q1.91-3,3.79-6c.56-.87,1.11-1.74,1.6-2.65.08-.13.2-.26.17-.44H45.15a.54.54,0,0,0-.4.16l-5.81,5.71a.65.65,0,0,0-.21.52c0,1.09,0,2.19,0,3.28,0,.09,0,.18,0,.26a.29.29,0,0,0,.22,0Q43.08,75.8,47.18,75.78Zm4.44,6.36c2.08-4.29,4.1-8.61,6.14-12.93,1.33-2.82,2.7-5.63,4-8.49a8.69,8.69,0,0,0,.55-1.58.71.71,0,0,0,0-.5,6.51,6.51,0,0,0-.76,1.23c-1.48,2.78-2.88,5.61-4.3,8.42C55.5,71.66,53.8,75,52,78.35c-.14.28-.31.55-.51.92-.08-.42-.34-.44-.6-.45a1,1,0,0,1-.6-.13c.08-.18.16-.35.25-.52.56-1.08,1.11-2.16,1.7-3.22q4.26-7.78,8.55-15.58c.72-1.32,1.44-2.63,2.09-4a2.36,2.36,0,0,0,.31-.89,3.32,3.32,0,0,1,.48-1.5,2.35,2.35,0,0,1,.73-.6.82.82,0,0,0,.22-.16.24.24,0,0,0,0-.33c-.08-.1-.19-.07-.28,0a1.66,1.66,0,0,0-.7.69,5.85,5.85,0,0,0-.74,1c-2.17,3.3-4.23,6.68-6.31,10C53.8,68.27,50.91,72.85,48,77.44a5.3,5.3,0,0,0-.73,1.25,5.3,5.3,0,0,0,0,1.49c0,.83.05,1.66.09,2.51h4C51.45,82.5,51.53,82.32,51.62,82.14Zm15.92-6.48c-.6-1.38-1.49-2.57-2-4h-6.8a3.79,3.79,0,0,1,.27-.74h6.22a16.73,16.73,0,0,1-1-3.1c0-.1,0-.21.06-.32a.84.84,0,0,1,.29.33.68.68,0,0,0,.29.29,2.09,2.09,0,0,1,1,.9c.22.29.42.6.63.89a1.15,1.15,0,0,0,.88.5,6.91,6.91,0,0,1,.79.16c0,.22-.13.24-.27.27A2,2,0,0,1,66,70.31a4.56,4.56,0,0,1-.61-.85c-.07-.14-.13-.31-.37-.33a1.49,1.49,0,0,0,.28.81,9.24,9.24,0,0,0,2.19,2.35,1.69,1.69,0,0,0,1.44.37,3.4,3.4,0,0,1,2.13.28l.15.07.14.06a.13.13,0,0,0,.08,0,.2.2,0,0,0,.11,0h0a.85.85,0,0,0,.16,0s0,0,0,0,0,.08.1.07l.17.05c.44.07.59-.08.54-.52A1.16,1.16,0,0,0,72,71.9a1.83,1.83,0,0,0-1-.28A1.54,1.54,0,0,1,70,71.3c-.18-.14-.36-.28-.53-.43A10.12,10.12,0,0,0,68,69.76c-.39-.23-.81-.42-1-.9a.68.68,0,0,0-.17-.21A10.14,10.14,0,0,0,65,67a1.17,1.17,0,0,0-.56-.27,1.59,1.59,0,0,1-.57-.31c-.09-.18-.09-.41-.26-.6-1,0-2,0-3,0a.53.53,0,0,0-.58.37c-.47,1-1,2-1.44,3-.57,1.22-1.12,2.45-1.73,3.65a16.06,16.06,0,0,0-1,2.47.71.71,0,0,0-.06.46l.54,0c1.72.08,3.43.05,5.15,0s3.54,0,5.32-.09A1.92,1.92,0,0,0,67.54,75.66ZM69.7,68.4a2.13,2.13,0,0,1-1-1.17,1.65,1.65,0,0,0-.67-.78,19.21,19.21,0,0,1-3.63-2.78l-.9-1.12A4.55,4.55,0,0,0,64,64.34a10.21,10.21,0,0,0,2,2.64,7.79,7.79,0,0,1,1.42,1.71,1,1,0,0,0,.28.29,11,11,0,0,0,1.88,1.1,5.46,5.46,0,0,0,1.21.6,1.17,1.17,0,0,0,.6.18,1.63,1.63,0,0,1,1.23.77,2.25,2.25,0,0,1,.21.44,1.44,1.44,0,0,0,.66-.73,3.06,3.06,0,0,1,.95-1.16c.72-.71,1.42-1.45,2.13-2.17a10.06,10.06,0,0,0,1.35-1.71,7.46,7.46,0,0,0,1.08-3,.56.56,0,0,0-.15-.57,2.07,2.07,0,0,0-.9,1.3,4.81,4.81,0,0,1-.27.81,11.71,11.71,0,0,1-1.24,1.85,1.21,1.21,0,0,1-.33.31,7.84,7.84,0,0,0-1.58,1.28c-.4.36-.79.71-1.2,1a3.1,3.1,0,0,1-.71.49c-.07,0-.15.12-.23,0a.71.71,0,0,1,.23-.33c.65-.68,1.29-1.37,2-2s1.32-1.21,2-1.81a3.58,3.58,0,0,0,.64-.71c.12-.17.18-.35,0-.5a2.46,2.46,0,0,0-.87.58,7.69,7.69,0,0,1-1.4,1.08,3.08,3.08,0,0,0-1.24,1.29,2.77,2.77,0,0,1-.54.73,1.42,1.42,0,0,1-.77.45,1.09,1.09,0,0,1,.41-.48,1.88,1.88,0,0,0,.47-.61.68.68,0,0,0,0-.77.87.87,0,0,0-.84-.34c-.11.18.09.37-.1.51s-.3-.2-.38-.38a.58.58,0,0,0-.7-.36.84.84,0,0,0-.65.5c-.1.19-.2.41-.47.42-.19-.21.08-.42,0-.62a.6.6,0,0,0-.39.11.69.69,0,0,0-.29,1.07c.1.17.25.31.36.47S69.81,68.23,69.7,68.4Zm4.65,3.25a2.4,2.4,0,0,1,.62-.51c.82-.58,1.65-1.13,2.47-1.71a3.35,3.35,0,0,0,1.4-1.86,1,1,0,0,0,0-.71c-.41.39-.66.86-1,1.22s-.83.6-1.24.92a15.78,15.78,0,0,0-3.16,3.11,2,2,0,0,0-.42.77,1,1,0,0,0,.6-.34l.27-.15.13-.06.13,0,.17,0,.22,0h.1a.89.89,0,0,1,.23,0h.28l.11,0,.15,0,.66.18a5.72,5.72,0,0,0,.72.14,1.05,1.05,0,0,0,1.07-.53,2.19,2.19,0,0,0,.21-.4,13.08,13.08,0,0,0,.64-2,1.17,1.17,0,0,0,0-.54,20.84,20.84,0,0,0-1.85,1.3A4,4,0,0,0,78.13,70a.48.48,0,0,1-.18.65,2.21,2.21,0,0,1-1.22.56,7.25,7.25,0,0,0-1.85.45A.58.58,0,0,1,74.35,71.65Zm-5,14.09a3.92,3.92,0,0,1,.57-1.57.66.66,0,0,0,.14-.41,1,1,0,0,0-1.38.22,2.94,2.94,0,0,0-.49,1.26.34.34,0,0,0,.15.4c.38-.18.18-.81.71-.94,0,.56-.41,1.11,0,1.67A.83.83,0,0,0,69.32,85.74Zm6.91-1.48a.83.83,0,0,0-1-.45c-.26-.07-.53,0-.81-.07.22-.3.59-.4.72-.74a1.09,1.09,0,0,0,.14-1,6.62,6.62,0,0,0-.6-1.84,2.06,2.06,0,0,0-.35-.52c-.22-.21-.28-.21-.56,0a4.71,4.71,0,0,0-.69.65,2.54,2.54,0,0,1-.74.52c-.14.06-.31.11-.38-.09a.28.28,0,0,1,.16-.41,3.81,3.81,0,0,0,1.46-1.44,1.09,1.09,0,0,0,.34-1,21.86,21.86,0,0,0-1.13-3.43,1.08,1.08,0,0,0-.86-.71,3.31,3.31,0,0,0-.33-.15,5.16,5.16,0,0,0-2.91-.17,1.73,1.73,0,0,1-1.45-.36c-.32-.23-.62-.5-.94-.76a1.86,1.86,0,0,0,.53,1,5.47,5.47,0,0,0,3.35,1.57,1.34,1.34,0,0,1,.9.38l.35.36c.51.51,1,1,1.51,1.55h0a.17.17,0,0,0,.1.19s0,0,0,.06c-.09.32-.12.35-.37.22a2.4,2.4,0,0,1-.37-.25,10.37,10.37,0,0,1-1-1c-.48-.52-.48-.54-1.14-.34a2.11,2.11,0,0,1-1.72-.13.84.84,0,0,0-.53-.14,1.17,1.17,0,0,0,.35.59A8.39,8.39,0,0,0,70.24,78a1.71,1.71,0,0,0,.76.28,1.87,1.87,0,0,1,1,.46.49.49,0,0,1,.21.58c-.21.07-.34,0-.47-.14a1.51,1.51,0,0,0-.62-.28,3.8,3.8,0,0,1-1.59-.63c-.09-.05-.18-.16-.33,0l.17.27a6,6,0,0,1,.83,1.66,2,2,0,0,0,1.19,1.44c.14.06.32.14.28.36-.21.16-.44.1-.66.12s-.39.11-.42.47c0,.55,0,.76.33.83l.36,0a.67.67,0,0,1,.31,0c-.11.15-.31.11-.43.22a1.47,1.47,0,0,0-1,.75,2.56,2.56,0,0,0-.23,2.3,4.4,4.4,0,0,0,.3-.72c.1-.22.1-.5.36-.67a1.82,1.82,0,0,1,0,.58,2.76,2.76,0,0,0,0,.81.59.59,0,0,0,.83.59.7.7,0,0,0,.53-.62,4.45,4.45,0,0,0,.08-.81,4.38,4.38,0,0,1,.3-1.68,1.37,1.37,0,0,1,.27-.22c.2-.09.3,0,.36.25a2.29,2.29,0,0,0-.11,2.84c.44-.35.2-.92.4-1.38a1,1,0,0,1,.24.54c0,.19.07.39.11.58s.12.39.35.43a.56.56,0,0,0,.55-.25,1.51,1.51,0,0,0,.28-.8,7.93,7.93,0,0,0,0-1.09,2,2,0,0,1,0-.84c.29.22.25.56.31.86s.08.82.19,1.21c0,.15.05.3.23.36.34-.44.08-1,.44-1.52.38.42,0,1,.4,1.4a.57.57,0,0,0,.3-.46A2.37,2.37,0,0,0,76.23,84.26Zm-2-6.93a1.09,1.09,0,0,0,.85.54A1.85,1.85,0,0,0,76.41,77a.34.34,0,0,0-.15-.5.82.82,0,0,0-.44-.11,9.36,9.36,0,0,0-1.35.36l-.16.07C74.09,77,74.05,77.12,74.19,77.33Zm0-2.92a.46.46,0,0,1,.3-.08,5.63,5.63,0,0,1,.82,0q.54.09,1.08.15a.76.76,0,0,0,.6-.15,5.19,5.19,0,0,0,.93-1c.08-.11.15-.23,0-.37a1.67,1.67,0,0,0-.69.2,4.82,4.82,0,0,1-2.64.48,1.37,1.37,0,0,0-.72.09.7.7,0,0,0-.47.86,1.53,1.53,0,0,0,.68,1,2.27,2.27,0,0,0,1.29.36,3.37,3.37,0,0,1,1.4.19,2.14,2.14,0,0,0,.49-1.41c-.48.38-.48.38-.92.35a15.16,15.16,0,0,1-1.89-.3.84.84,0,0,1-.29-.13C74,74.64,74,74.51,74.17,74.41Zm13,1.32a2.74,2.74,0,0,0-.25-.73c-.44-1-.88-1.89-1.33-2.84-.93-2-1.88-4-2.86-6a.59.59,0,0,0-.63-.38c-.56,0-1.12,0-1.68,0a7.89,7.89,0,0,0-1.19,0c-.23,1.71-.14,3.43-.49,5.15h5.1a2.16,2.16,0,0,1,.21.74H78.55c-.15.71-.3,1.39-.43,2.07s-.46,1.3-.54,2A82.44,82.44,0,0,0,87.19,75.73Zm8.36,3.47a1.33,1.33,0,0,0-.22-.8L84.39,60.83q-3-4.78-6-9.55a2,2,0,0,0-.55-.65l0,0a.05.05,0,0,0,0,0,4,4,0,0,0-.37,1.76.86.86,0,0,1-.19.71c-.15,0-.19-.11-.24-.2-.21-.43-.26-.45-.73-.3l-.63.21c0-.21.24-.29.11-.49a1.84,1.84,0,0,0-.62,0A4.84,4.84,0,0,1,73,51.89a2.23,2.23,0,0,0-.44-.13,7.48,7.48,0,0,0-3.81.26,4.86,4.86,0,0,1-.84.19,15.83,15.83,0,0,1-1.82.08.89.89,0,0,0-.82.41.74.74,0,0,1-.91.4.37.37,0,0,0-.46.18,2.23,2.23,0,0,0-.27.93c.42,0,.56-.53,1-.55,0,.38-.31.58-.41.88a2.34,2.34,0,0,0-.43.79,17.94,17.94,0,0,0-.82,3.06,2.17,2.17,0,0,0,.19,1.46A2.58,2.58,0,0,1,63.41,61a.85.85,0,0,0,0,.23A5.49,5.49,0,0,0,65.35,64c.38.32.81.58,1.17.92a5.28,5.28,0,0,0,1.39.95,2.69,2.69,0,0,0,2.82-.31c.28-.2.31-.27.13-.56a4.15,4.15,0,0,0-1.3-1.37l-.45-.31a.82.82,0,0,1-.35-.74c0-.32,0-.64,0-1s0-.51.26-.7a.57.57,0,0,1,.09.43c0,.41,0,.82,0,1.23,0,.13,0,.28.16.33s.23-.24.4-.29c-.12.46-.06.56.42.68a.85.85,0,0,0,.17,0c.24,0,.34.17.38.38a1.6,1.6,0,0,0,.14.42.43.43,0,0,0,.39.27.41.41,0,0,0,.38-.28,2,2,0,0,0,.12-.34.37.37,0,0,1,.38-.36c.55-.08.65-.21.7-.73h0l0,0,0,0a.24.24,0,0,0,.26.09c.36-.5,0-1.16.27-1.76a4,4,0,0,1,.22,1.76,2.5,2.5,0,0,1-.88.89,4.13,4.13,0,0,0-.88.72,1.92,1.92,0,0,0-.39.66c-.09.28-.05.37.21.52a3.07,3.07,0,0,0,3.54-.12,5,5,0,0,0,.65-.57,9.31,9.31,0,0,1,1.15-1,4.64,4.64,0,0,0,1.74-2.69,3.79,3.79,0,0,1,.42-1.24,2.32,2.32,0,0,0,.31-1.74A8.9,8.9,0,0,0,79.13,57a7.74,7.74,0,0,1-.31-1,3.44,3.44,0,0,0-.51-1.25,9.24,9.24,0,0,1-.58-1.07,8,8,0,0,1,0-1.47c0-.13.05-.16.16-.11.47.81.93,1.63,1.39,2.45l13.19,24c0,.1.14.19.13.33a1.16,1.16,0,0,1-.49,0,5,5,0,0,0-.54.06c-.17,0-.22.21-.35.32a13.38,13.38,0,0,1-.75-1.29c-1.92-3.61-3.73-7.28-5.57-10.94-1.7-3.4-3.38-6.81-5.17-10.17a1.71,1.71,0,0,0-.3-.48,2,2,0,0,0,.17.84,36.45,36.45,0,0,0,1.81,4.5Q84.66,68.58,88,75.49c1.07,2.24,2.1,4.5,3.2,6.73a.84.84,0,0,0,.73.51c1.06.12,2.12,0,3.19.07.11,0,.24,0,.36-.07C95.48,81.56,95.51,80.38,95.55,79.2ZM104,72.12a.88.88,0,0,0-.31-.7q-2.75-2.62-5.48-5.26a1.11,1.11,0,0,0-.87-.36c-2.14,0-4.28,0-6.42,0-.84,0-1.69,0-2.64,0,.14.22.22.38.32.53,1.2,1.91,2.39,3.83,3.6,5.73.72,1.15,1.46,2.27,2.24,3.37a1,1,0,0,0,.84.44c.59,0,1.18,0,1.77,0,2.2,0,4.4-.13,6.6-.12.11,0,.24,0,.34-.07C104,74.52,104,73.32,104,72.12Z"/><path class="cls-3" d="M77.88,55.66Zm-5.08,7,0,0h0Z"/><path class="cls-3" d="M74.5,72.22l-.22,0Z"/><polygon class="cls-3" points="72.97 77.15 72.97 77.15 72.96 77.15 72.96 77.15 72.97 77.15"/><polygon class="cls-3" points="68.15 70.59 68.15 70.59 68.14 70.59 68.14 70.58 68.15 70.59"/><path class="cls-3" d="M71.69,73.14a.6.6,0,0,1-.19,0A.6.6,0,0,0,71.69,73.14Z"/><polygon class="cls-3" points="71.69 73.14 71.69 73.14 71.69 73.14 71.69 73.14 71.69 73.14"/><path d="M72.77,62.65c0,.52-.15.65-.7.73a.37.37,0,0,0-.38.36,2,2,0,0,1-.12.34.41.41,0,0,1-.38.28.43.43,0,0,1-.39-.27,1.6,1.6,0,0,1-.14-.42c0-.21-.14-.37-.38-.38a.85.85,0,0,1-.17,0c-.48-.12-.54-.22-.42-.68a3.08,3.08,0,0,1,.91,0,4,4,0,0,0,1.43,0A1.05,1.05,0,0,1,72.77,62.65Z"/><polygon class="cls-3" points="68.15 70.59 68.15 70.59 68.14 70.59 68.14 70.58 68.15 70.59"/><path class="cls-3" d="M63.72,23.25a.17.17,0,0,1-.1,0Z"/><path class="cls-3" d="M73.06,77.34a.17.17,0,0,1-.1-.19h0C73.08,77.17,73.06,77.26,73.06,77.34Z"/><path class="cls-3" d="M71.79,73.21c-.06,0-.1,0-.1-.07h0C71.77,73.1,71.77,73.17,71.79,73.21Z"/><path class="cls-2" d="M93,71.67,92.54,71h.56c2.77,0,5.53,0,8.29,0a1,1,0,0,1,.89.4c.08.1.18.19.31.33Z"/><path class="cls-2" d="M50.13,71l-.47.72H40.1l.66-.61a.46.46,0,0,1,.33-.11Z"/><path class="cls-2" d="M69.09,58.94s0,.05,0,.08-.18-.09-.27-.14a1.33,1.33,0,0,0-.42-.26A2.28,2.28,0,0,1,67.28,58a.63.63,0,0,0-.53-.2c.2.52.73.72,1,1.16-.11.12-.2,0-.29,0-.55-.2-1.08-.46-1.61-.71s-.57-.14-.8.23a3.51,3.51,0,0,0-.41,1.38,1,1,0,0,0,.23.67,1.85,1.85,0,0,0,.6.58c.56-.52,1.35-.45,2-.84A.86.86,0,0,0,67,60c-.32-.07-.65-.13-1-.22a.92.92,0,0,1-.45-1.13.3.3,0,0,1,.22-.14.87.87,0,0,1,1,.48c-.09.13-.22.08-.33.09s-.24,0-.28.18,0,.09,0,.09c.48-.08.88.24,1.33.29a.3.3,0,0,1,.25.18c.07.27.26.3.49.3a.59.59,0,0,1,.22.05.22.22,0,0,1,.15.25.21.21,0,0,1-.2.2,2.84,2.84,0,0,1-.41,0c-.45,0-.5,0-.5.48a.66.66,0,0,0,0,.14s0,0,0,.09c.18-.07.23-.34.45-.33a.16.16,0,0,1,.11.18,1,1,0,0,1-.85,1,.46.46,0,0,0-.41.42c-.09,0-.09.21-.29.15-.16-.68.45-1.22.45-1.91a.68.68,0,0,0-.42.31c-.12.13-.23.27-.35.41a1.31,1.31,0,0,1-.93.44c.19.57.62,1,.63,1.6A8.43,8.43,0,0,0,64.36,62c0-.23.22-.28.34-.39a.33.33,0,0,0,.09-.41c-.06-.12-.1-.26-.17-.37a3.46,3.46,0,0,1-.37-2.5,4,4,0,0,1,.43-1.47c.07,0,.1-.12.22-.1.09.25,0,.54.09.84.25-.26.52-.44.61-.76-.37-.4-.37-.51,0-1a1.13,1.13,0,0,0,.34-.48c-.24,0-.49-.08-.63.17a4.28,4.28,0,0,1-.64.71l-.28.13c-.11,0-.23.07-.28-.1A2.9,2.9,0,0,1,65.3,55a1.63,1.63,0,0,0,.53-.46c-.35-.06-.53.29-.85.3a.33.33,0,0,1,0-.4,2.39,2.39,0,0,0,.35-1c.07-.24.07-.52.29-.7.59.19.77.53.53,1,.11.11.26,0,.38.1.29.12.38.34.18.57a1,1,0,0,0-.24.75,2.48,2.48,0,0,1-.28,1.36.58.58,0,0,0,.49.89c.24,0,.48,0,.72,0a3.46,3.46,0,0,1,.46,0,1.15,1.15,0,0,1,1.14,1A4.17,4.17,0,0,1,69.09,58.94Zm-.39-.77a.2.2,0,0,0-.11-.18.65.65,0,0,0-.31-.05.33.33,0,0,1-.3-.17c-.12-.26-.33-.2-.62-.17a1.3,1.3,0,0,0,.58.62.86.86,0,0,0,.61.09A.15.15,0,0,0,68.7,58.17Z"/><path class="cls-2" d="M77.14,55.78a1.78,1.78,0,0,0-.77-.47c.25.35.43.6.79.68a.82.82,0,0,0,.26.86,3.88,3.88,0,0,1,.33,3.76c0,.1-.09.19-.13.29-.18.41-.19.43.13.73a.3.3,0,0,1,0,.47c-.15.19-.32.37-.48.54a3.43,3.43,0,0,0-.63.83.31.31,0,0,1-.39.2c.09-.58.54-1,.57-1.64a3.57,3.57,0,0,1-1.22-1,.82.82,0,0,0-.49-.3,1.3,1.3,0,0,0-.75-.14,1.52,1.52,0,0,1-.71-.15c.13-.4.52-.34.77-.49a8.48,8.48,0,0,1,.86-.41,2.07,2.07,0,0,1,.93-.19c-.06-.41-.44-.29-.68-.44.29-.19.78-.2.7-.74-.33,0-.49.22-.69.35a1.32,1.32,0,0,1-.67.32,1.07,1.07,0,0,1,.35-.55,1.31,1.31,0,0,0,.37-.56,1.08,1.08,0,0,0-.72.36,1.19,1.19,0,0,1-.75.4.84.84,0,0,0-.77.49,1,1,0,0,1,.4-1.36,2.77,2.77,0,0,1,1-.27l.81-.09a.32.32,0,0,0,.32-.37c0-.56-.06-1.13-.11-1.68a1.63,1.63,0,0,0-.33-.79.43.43,0,0,1,0-.55,4.83,4.83,0,0,1,1-1c.22.07.24.25.3.4.18.5.34,1,.53,1.5a1.87,1.87,0,0,0,.44.82.11.11,0,0,0,.07.16c.07.2.27.36.19.61-.15.08-.25-.07-.38-.06C77.56,56.17,77.36,56,77.14,55.78ZM75,57.61c-.18,0-.38-.1-.46,0a.7.7,0,0,1-.64.33c-.1,0-.21.07-.2.2s.13.16.23.17A1.08,1.08,0,0,0,75,57.61Zm1.73-.87c0,.23.11.36.35.36C77,56.87,77,56.74,76.69,56.74Zm-.64.86c.07.15.22.15.31.22a1.46,1.46,0,0,1,.49,1.48c-.07.49-.49.52-.85.62a2.56,2.56,0,0,0-.27,0c-.17.06-.38.05-.54.27a2.19,2.19,0,0,0,1.18.53c.29,0,.53.09.59.42a.63.63,0,0,0,.35-.39,2.83,2.83,0,0,0,.23-1.72A1.91,1.91,0,0,0,77,57.93,1.09,1.09,0,0,0,76.05,57.6Z"/><path class="cls-2" d="M75.14,55.15a.22.22,0,0,1-.21.08,2.35,2.35,0,0,1-1.42-.82.29.29,0,0,1-.08-.21c0-.45-.29-.64-.62-.81a2,2,0,0,0-.74-.25.66.66,0,0,0,.42.41c.07,0,.15,0,.22.06s.17.08.16.19-.12.14-.21.14a1.48,1.48,0,0,1-1.08-.24c-.1-.06-.18-.17-.33-.18-.13.46,0,.95-.23,1.4a.6.6,0,0,1-.23-.56c0-.47,0-.49-.5-.45a1.77,1.77,0,0,1-.79,0c.15-.49.73-.38,1-.74a4.31,4.31,0,0,0-2.89,1.42c.55-.14.88-.63,1.39-.75.21.17.14.34,0,.48a2.22,2.22,0,0,1-1.37.74.83.83,0,0,1-.31,0,.37.37,0,0,1-.2-.59,2,2,0,0,1,.23-.28,4.45,4.45,0,0,1,2.79-1.39,10.94,10.94,0,0,1,1.81,0,3.73,3.73,0,0,1,2.2,1,5,5,0,0,1,.82.9A.67.67,0,0,1,75.14,55.15Z"/><path class="cls-2" d="M73.46,57.06a.26.26,0,0,1-.12.23.17.17,0,0,1-.17-.22,1.12,1.12,0,0,0-.31-.82,4.31,4.31,0,0,0-.58-.7.55.55,0,0,0-.45-.22.34.34,0,0,0,.18.51c.65.28.66.84.67,1.4a1,1,0,0,1-.13.7c-.14,0-.2-.07-.21-.15a2.37,2.37,0,0,0-.49-1,2.42,2.42,0,0,1-.42-1c0-.22-.09-.44.17-.6s.13-.29.16-.46,0-.32.18-.38.29.06.4.17a3.69,3.69,0,0,1,1,1.68A2.77,2.77,0,0,1,73.46,57.06Z"/><path class="cls-2" d="M68.31,55.94c-.17,0-.36-.09-.5.09,0,.31.4.26.49.49-.29.62-1.06.69-1.79.16a.5.5,0,0,1,.64-.13c.1,0,.18.1.28.14s.2,0,.23-.12c-.39-.42-.35-.72.12-1.07A3.36,3.36,0,0,1,69,55,.71.71,0,0,1,68.31,55.94Z"/><path class="cls-2" d="M71,55.62a2,2,0,0,1-.44.89A1.73,1.73,0,0,0,70,57.58a.37.37,0,0,1-.09.2.61.61,0,0,0-.14.59.42.42,0,0,1-.25.49,1.67,1.67,0,0,1-.06-.72c0-.35.05-.69.08-1a2.34,2.34,0,0,1,1.28-1.79C71,55.38,71,55.49,71,55.62Z"/><path class="cls-2" d="M70.56,54.87a.9.9,0,0,1-.27.42A4,4,0,0,0,69.1,57a.49.49,0,0,1-.14.18s-.07,0-.16.06a1.25,1.25,0,0,1,0-.79,6.61,6.61,0,0,1,.89-1.63,1.09,1.09,0,0,1,.37-.34.36.36,0,0,1,.42,0C70.68,54.53,70.62,54.71,70.56,54.87Z"/><path class="cls-2" d="M75.4,57a1.64,1.64,0,0,1-1.31-.22c-.1-.06-.2-.16-.13-.3s.2-.09.31,0,.13.13.24.1c.15-.43.08-.56-.32-.63a2.45,2.45,0,0,1-.53-.09c-.38-.15-.48-.43-.27-.86a5.89,5.89,0,0,1,1.33.82.47.47,0,0,1,.16.46c0,.16,0,.32-.07.53.33-.09.54-.38.87-.22A.34.34,0,0,1,75.4,57Z"/><path class="cls-2" d="M75.43,62.86c0-.1-.07-.2-.08-.3,0-.28-.15-.38-.42-.44a.86.86,0,0,1-.66-1c.14,0,.22.07.31.14s.14.17.26.17c.08-.18-.11-.35,0-.53s.22,0,.32,0a2.57,2.57,0,0,1,.59,1.5C75.75,62.75,75.71,62.8,75.43,62.86Z"/><path class="cls-2" d="M68.75,52.63a5.23,5.23,0,0,1-1.3.8.55.55,0,0,1-.81-.44.29.29,0,0,1,.06-.3.21.21,0,0,1,.29,0c.23.23.47.13.71,0s.45-.24.68-.34a.58.58,0,0,1,.48-.09A.25.25,0,0,1,68.75,52.63Z"/><path class="cls-2" d="M75.52,53.52a4.26,4.26,0,0,1-2.59-1.19A3.92,3.92,0,0,1,75.52,53.52Z"/><path class="cls-2" d="M70.66,52a1.43,1.43,0,0,1-1.37.29A1.12,1.12,0,0,1,70.66,52Z"/><path class="cls-2" d="M72.43,52.11a.81.81,0,0,1-1,0C71.67,51.81,72,51.81,72.43,52.11Z"/><path class="cls-2" d="M72.73,58.92c-.26-.24-.26-.3,0-.73A.57.57,0,0,1,72.73,58.92Z"/><path class="cls-2" d="M71.44,70c-1,.14-1.64-.14-1.76-.79.32.16.6.31.89.44S71.15,69.87,71.44,70Z"/><path class="cls-2" d="M74.46,81.64a1.86,1.86,0,0,1-1.17.19,1.13,1.13,0,0,1,.85-.48C74.3,81.34,74.3,81.35,74.46,81.64Z"/><path class="cls-2" d="M59.52,56.94a.45.45,0,0,1-.52.4c-1.6,0-3.21,0-4.81,0a.27.27,0,0,1-.23-.07.76.76,0,0,1,.61-.36h4.77Z"/><path class="cls-2" d="M89,57.26a.57.57,0,0,1-.4.08c-1.53,0-3.06,0-4.58,0a.65.65,0,0,1-.67-.39.5.5,0,0,1,.29,0c1.53,0,3.06,0,4.59-.05C88.58,56.86,88.75,57.1,89,57.26Z"/><path class="cls-2" d="M74.53,65.14a2.6,2.6,0,0,1-2.26,0A6.14,6.14,0,0,1,74.53,65.14Z"/><path class="cls-2" d="M75,63.56a3.85,3.85,0,0,1-1.82.66A2.56,2.56,0,0,1,75,63.56Z"/><path class="cls-2" d="M75.11,64.25a1.88,1.88,0,0,1-1.6.4A9.85,9.85,0,0,0,75.11,64.25Z"/><polygon class="cls-3" points="77.88 55.66 77.88 55.66 77.88 55.66 77.88 55.66 77.88 55.66"/><path class="cls-2" d="M70,65.19a1.87,1.87,0,0,1-2.1,0A4.68,4.68,0,0,1,70,65.19Z"/><path class="cls-2" d="M70,64.63a2.37,2.37,0,0,1-2.17,0A5.47,5.47,0,0,1,70,64.63Z"/><path class="cls-2" d="M69.06,64.23a4.32,4.32,0,0,1-1.77-.71A2.7,2.7,0,0,1,69.06,64.23Z"/><path class="cls-2" d="M67.58,64.44c-.24.12-.4,0-.58-.18C67.26,64.22,67.48,64.12,67.58,64.44Z"/><path class="cls-2" d="M81.25,50.19H78.67c-.06,0-.08-.07-.11-.13s.15-.06.23-.07h2C81,50,81.15,50,81.25,50.19Z"/><path class="cls-2" d="M63.6,50c-.05.1-.05.13-.07.14a.21.21,0,0,1-.12.05H61.33c0-.17.1-.2.21-.2Z"/><path class="cls-2" d="M246.83,155.65a60.08,60.08,0,0,1-4.1,19.4,63.62,63.62,0,0,1-40.57,37.84,62.07,62.07,0,0,1-9.53,2.09,66.94,66.94,0,0,1-8.72.65,62.74,62.74,0,0,1-6.85-.36,63.1,63.1,0,0,1-33.18-13.78,68.66,68.66,0,0,1-8.95-8.85,61.56,61.56,0,0,1-7.61-11.6,64.25,64.25,0,0,1-5.92-17.52,56.78,56.78,0,0,1-.9-11c0-2.08,0-3.82.12-5.55.11-1.57.34-3.13.6-4.68a65,65,0,0,1,3.09-11.77,62,62,0,0,1,10.59-18.4,67.86,67.86,0,0,1,8.56-8.56A60.79,60.79,0,0,1,154.93,96a63.16,63.16,0,0,1,16.4-5.73,59.69,59.69,0,0,1,9.79-1.13,71.22,71.22,0,0,1,9.91.35,61.93,61.93,0,0,1,20.31,6A64,64,0,0,1,245,136.55a59.76,59.76,0,0,1,1.54,8.51A70.66,70.66,0,0,1,246.83,155.65Zm-4.52-3c0-1.34,0-2.69,0-4a26.88,26.88,0,0,0-.16-3.11,60.54,60.54,0,0,0-1.33-7.06A58.9,58.9,0,0,0,193.4,94.34a48.52,48.52,0,0,0-5.5-.65c-1.88-.08-3.76-.12-5.65-.09a40,40,0,0,0-4.51.21c-2.08.25-4.14.6-6.18,1a57.38,57.38,0,0,0-15.74,5.73,59.39,59.39,0,0,0-14.42,11,57.65,57.65,0,0,0-13.16,21.18,58.63,58.63,0,0,0-3.39,19,57.22,57.22,0,0,0,.61,9,56.58,56.58,0,0,0,2.61,10.75,58.44,58.44,0,0,0,23.85,30.31A59.63,59.63,0,0,0,195.51,210a59,59,0,0,0,45.4-44.08,46,46,0,0,0,1.25-7.28C242.32,156.66,242.32,154.66,242.31,152.66Z"/><path class="cls-2" d="M228.73,154.43a45.38,45.38,0,0,1-30.39,40.63,44,44,0,0,1-9.41,2.16,44.51,44.51,0,0,1-8.79.2A45.35,45.35,0,0,1,139.64,163a39.42,39.42,0,0,1-1.14-8.17,55.32,55.32,0,0,1,.15-7.05,42.42,42.42,0,0,1,3.87-14.42,45.38,45.38,0,0,1,30.38-25,35.46,35.46,0,0,1,9.59-1.21,65.42,65.42,0,0,1,7.79.42,44.3,44.3,0,0,1,5.46,1.2,45.32,45.32,0,0,1,32.45,36.27A43.09,43.09,0,0,1,228.73,154.43Zm-33.95,2.81a.54.54,0,0,0-.37.06c1,1.49,1.81,3,2.86,4.39h6c.06-.55,0-1.07,0-1.58a.65.65,0,0,0-.27-.58c-.83-.68-1.64-1.37-2.45-2.07a.94.94,0,0,0-.66-.23Zm.25-5.1-1.47-1.42a.47.47,0,0,0-.38-.17h-3.13c.39.75.8,1.39,1.2,2a.59.59,0,0,0,.58.33c1,0,2.07,0,3.11,0,.1,0,.2,0,.27-.07C195.19,152.31,195.2,152.3,195,152.14Zm-5.89.66c0,.2,0,.39-.3.35a3.39,3.39,0,0,0-1.89-.81c-.75-.09-1.5-.17-2.28-.19,0,.24,0,.45,0,.66s.07.31.23.33a10.65,10.65,0,0,1,1.56.54,1.31,1.31,0,0,0,1.3-.15.54.54,0,0,1,.84,0s.09,0,.14,0a1.08,1.08,0,0,0,1.12-.66,1.19,1.19,0,0,0-.29-1.37.37.37,0,0,0-.18-.21,5.13,5.13,0,0,0-4.84-.72c-.26.08-.32.24-.28.59s.13.42.41.44l1.45.1a7.12,7.12,0,0,1,2.13.46A1.9,1.9,0,0,1,189.14,152.8Zm-12.35-.22a.53.53,0,0,0,.21.5,1.62,1.62,0,0,0,.81.39c.28.07.29.06.34-.31.06,0,.12-.12.2-.11a2.22,2.22,0,0,0,1.16-.31c.44-.2.87-.44,1.31-.66a4,4,0,0,1,2-.52,1.27,1.27,0,0,0,.34,0c.18,0,.38-.05.38-.29a.39.39,0,0,0-.35-.41,2,2,0,0,0-.48-.06,3.24,3.24,0,0,0-1.58.41,14.72,14.72,0,0,1-3.52,1.23l-.19,0c-.13,0-.22-.06-.22-.2a1,1,0,0,1,.45-.35,8.12,8.12,0,0,1,1.65-.59,2.2,2.2,0,0,0,1.19-.63.48.48,0,0,0-.32,0,6.47,6.47,0,0,0-2,.53c-.22.1-.45.26-.73.13,0-.29.18-.42.37-.53a4.75,4.75,0,0,1,2.36-.82,1.5,1.5,0,0,0,.52-.1,7.49,7.49,0,0,1,2-.47c.17,0,.36-.05.45-.24-.05-.42-.35-.55-.7-.62a11.49,11.49,0,0,0-2.87-.09,2.11,2.11,0,0,0-1.31.57,8.88,8.88,0,0,0-2.07,2.61,3.72,3.72,0,0,0-.33,1.06.67.67,0,0,0,0,.55c.39-.34.24-.87.46-1.25C176.76,152,176.72,152.34,176.79,152.58Zm-1.32-29.39c.23-.14.18-.32,0-.49s-.31-.07-.45.06a1,1,0,0,0-.71.79l.14,0,.07,0h0l.12,0,.06,0,.06,0,.31-.14.11,0h.25Zm-1.12,1.89c.22.2.39,0,.55-.1a.16.16,0,0,0,.08-.06,1.73,1.73,0,0,1,1.08-.56c.21,0,.26-.16.23-.35a.39.39,0,0,0-.34-.35.68.68,0,0,0-.55.12,2.31,2.31,0,0,0-1,.6A.51.51,0,0,0,174.35,125.08Zm1.14.94a1.74,1.74,0,0,0,.59-1.09.58.58,0,0,0-.63.37C175.34,125.52,175.22,125.76,175.49,126Zm6.84,10.31a.76.76,0,0,1-.74.16,4.78,4.78,0,0,0-2.72.58,1.77,1.77,0,0,0-.55.47c-.06.06-.17.12-.06.26a1.83,1.83,0,0,0,.83-.34,3.2,3.2,0,0,1,1.76-.48c.25,0,.51,0,.77,0a3.24,3.24,0,0,0,1.84-.41.75.75,0,0,0,.72.25l2.87,0a4.88,4.88,0,0,1,3.8,1.66c.12.12.2.29.39.34a.25.25,0,0,0,0-.24,2.65,2.65,0,0,0-1.57-1.62,6.72,6.72,0,0,0-1.92-.5,13.72,13.72,0,0,0-2.81-.11c.58-.7,1.32-.41,2-.44-.09-.16-.32-.11-.32-.32s.31-.09.48-.06a15.45,15.45,0,0,1,2,.59,5.61,5.61,0,0,0,1.17.32c-.72-1.54-3.38-2.85-4.67-2.32a.85.85,0,0,0,.51.25q.49.13,1,.24a5.63,5.63,0,0,1,1.78.62c.24.14.52.28.53.65a.82.82,0,0,1-.58-.06,7.19,7.19,0,0,1-.75-.34,2.24,2.24,0,0,0-1.79-.15c-.29.1-.58.2-.86.32l-1.33.59a.65.65,0,0,1-.77-.1c-.11-.1-.21-.2-.33-.29a1.94,1.94,0,0,0-1.25-.46,2.77,2.77,0,0,0-1,.19c-.18.06-.36.17-.55,0a1.47,1.47,0,0,1,1.13-.82,3.42,3.42,0,0,0,.88-.26,6.42,6.42,0,0,1,2.58-.61c.17,0,.35,0,.44-.16s.4-.25.64-.26a9.08,9.08,0,0,1,1.16.1.68.68,0,0,0,.42,0c-.12-.22-.22-.4-.45-.44a2.1,2.1,0,0,0-2.37.12,2.43,2.43,0,0,1-1.44.51,3.9,3.9,0,0,0-1.63.42,9.84,9.84,0,0,0-2.44,2l.72-.08a8.31,8.31,0,0,1,1.93-.05C182,136,182.23,136.06,182.33,136.33ZM181,128c.35-.31.29-.72.37-1.2C180.81,127.32,180.73,127.61,181,128Zm3.65,1c.2-.39.21-.39.85-.77.32-.16.7.11,1-.14,0-.06,0-.14-.06-.14-.49-.08-.73-.49-1.07-.76a1.39,1.39,0,0,0-.56-.27,1.18,1.18,0,0,0-1.17.16,1.9,1.9,0,0,0-.64,1.14c-.05.18,0,.33.16.39s.28,0,.34-.19a1.3,1.3,0,0,1,.67-.71c.15-.09.31-.15.47-.23h0c.13,0,.25-.06.39.06l-.09.26c-.16.15-.34.29-.5.45a1.08,1.08,0,0,0-.35.72c0,.41.05.5.46.45a2.45,2.45,0,0,1,2.34.49c.32.29.31.54,0,.87a4.29,4.29,0,0,0-1.38.17.77.77,0,0,0-.57.76,3.86,3.86,0,0,1,2.05-.37l.71.09a4.38,4.38,0,0,0-.24-2.08c-.23-.53-.42-.63-1-.56a1.27,1.27,0,0,0-.47.09A4.94,4.94,0,0,1,184.6,129Zm2.41,2.89c-.53-.24-.72-.2-1.1.24a2.77,2.77,0,0,0,1.2.24.71.71,0,0,0,.56-.09A1.11,1.11,0,0,0,187,131.88Zm-1.1-1.82c-.34-.26-.63-.22-1,.16A.82.82,0,0,0,185.91,130.06Zm-2.42,4.63a3.06,3.06,0,0,0,1.84.07A2.58,2.58,0,0,0,183.49,134.69Zm-5.06,10.84a3.59,3.59,0,0,0-.81,1.34,1.45,1.45,0,0,0,.65-.37,6.32,6.32,0,0,1,1.89-1.07A3.32,3.32,0,0,0,181,145a2.58,2.58,0,0,1,1-.52c.25,0,.29-.24.13-.44a.78.78,0,0,0-.63-.3,3,3,0,0,0-1.77.42,2.62,2.62,0,0,1-.6.31.24.24,0,0,1-.27-.06.24.24,0,0,1,0-.32,1.38,1.38,0,0,1,.27-.27,5.85,5.85,0,0,1,1-.63,9.81,9.81,0,0,0,1.19-.74,1.13,1.13,0,0,0,.45-.53,1.09,1.09,0,0,0-.59,0,4.75,4.75,0,0,0-2.24,1,1.59,1.59,0,0,1-.56.38,1.23,1.23,0,0,0-.71.55,5.19,5.19,0,0,0-.52,1,1.42,1.42,0,0,0,0,1.11c.27-.24.5-.46.75-.66s.47-.49.86-.5A.79.79,0,0,1,178.43,145.53Zm3.12-2.4a14.8,14.8,0,0,0,3.93.06C184.15,142.6,182.21,142.57,181.55,143.13Zm1.84-1.07c.33.07.67.12,1,.2a6.59,6.59,0,0,1,3.29,1.4,1.28,1.28,0,0,0,.77.47,1.4,1.4,0,0,0-.46-1.39,2.84,2.84,0,0,0-1.49-1.1,2.61,2.61,0,0,1-1-.46.4.4,0,0,0-.17-.09,3.29,3.29,0,0,0-2.46.74A.78.78,0,0,0,183.39,142.06Zm-2.06,3.74a2.62,2.62,0,0,0,1.75-.49A2.44,2.44,0,0,0,181.33,145.8Zm1.92-1.18a4.84,4.84,0,0,0,.51-.14,3.27,3.27,0,0,1,2.81.23c.35.19.69.41,1,.62a1.08,1.08,0,0,0,.76.36.54.54,0,0,0,0-.67,1.69,1.69,0,0,0-.75-.72,2,2,0,0,0-1.19-.57,11.17,11.17,0,0,0-2.71,0c-.47,0-.69.31-.76.84A.27.27,0,0,0,183.25,144.62Zm1.43.4a3.19,3.19,0,0,0,2.2.6C185.59,144.92,185.11,144.79,184.68,145Zm-1.43,1.48c0,.36.17.54.48.55a5.19,5.19,0,0,0,.68-.05,1.33,1.33,0,0,1,1.13.32,3.21,3.21,0,0,0,1.56.73,9.93,9.93,0,0,1,1.22.32c.25.12.34.41.56.52.12,0,.12-.11.11-.18a4.71,4.71,0,0,0-.56-1.72.89.89,0,0,0-.66-.51,1.47,1.47,0,0,0-.65-.15h-1a4,4,0,0,1-1.85-.3.94.94,0,0,0-.57-.08A.5.5,0,0,0,183.25,146.5Zm5.8-.6a.81.81,0,0,0,.25.63,8.86,8.86,0,0,0,.17-2.45,4,4,0,0,0-.8-2.25,2.32,2.32,0,0,0-1-1.15,7.05,7.05,0,0,0-2.74-.72.53.53,0,0,0-.56.22l.5.13a23,23,0,0,1,2.32.7,2.45,2.45,0,0,1,1.29,1,4.9,4.9,0,0,1,.36,1.6C188.93,144.35,188.92,145.13,189.05,145.9Zm.43,2.58c.21,0,.27-.21.34-.36a4.16,4.16,0,0,0,.36-1.2,14.8,14.8,0,0,0,.23-2.18c.16-.06.23.16.38.06s-.08-.34-.17-.48a2,2,0,0,1-.28-.72,6.71,6.71,0,0,0-1.08-2.37c0-.09-.11-.2-.26-.15s-.05.27,0,.39a3.89,3.89,0,0,1,.68,1.79,14,14,0,0,1,.21,2.9,4.54,4.54,0,0,1-.43,1.43,1.37,1.37,0,0,0-.14.46C189.33,148.2,189.3,148.37,189.48,148.48Zm1.78-3.84a1.16,1.16,0,0,0,.33.74,2.88,2.88,0,0,0,.13-1.46,7.4,7.4,0,0,0-1.76-3.68,3.35,3.35,0,0,0-.69-.61,1.11,1.11,0,0,0-.49-.2,4.85,4.85,0,0,1-1.66-.51,3.93,3.93,0,0,0-1.22-.32.93.93,0,0,0-.57.06,3.92,3.92,0,0,1-1.12.28,3.35,3.35,0,0,0-1,.29.61.61,0,0,0-.38.6c.24.15.43,0,.62-.05a5.74,5.74,0,0,1,4.4.15,8.88,8.88,0,0,0,.9.36,2,2,0,0,1,1.29,1.09A9.5,9.5,0,0,1,191.26,144.64Zm-.53-5.38c-.06.07,0,.17-.09.22a.25.25,0,0,1-.19,0,5.72,5.72,0,0,1-.89-.59,3.77,3.77,0,0,0-1.34-.75,1.31,1.31,0,0,1-.72-.51,1.32,1.32,0,0,1,.72,0,7.21,7.21,0,0,1,1.79.86c.08.05.15.17.35.06l-.2-.12a8.41,8.41,0,0,0-2.52-1.22c-.2-.06-.42-.1-.56.14s-.22.12-.34.15a3.54,3.54,0,0,1-.92.06,5.25,5.25,0,0,0-1.67.26c-.19.07-.4.13-.47.39a1,1,0,0,0,.62,0,10,10,0,0,1,2.67-.12,5.89,5.89,0,0,1,3,1.43,4.13,4.13,0,0,1,1.24,1.54c0,.09,0,.24.2.22C191.49,140.79,191,139.27,190.73,139.26Zm-13.43,2a.29.29,0,0,0,.11.28,34.06,34.06,0,0,0,3.33-.78c-.47-.1-1,.09-1.45-.11a1,1,0,0,1,.53-.32,6.14,6.14,0,0,1,1.76-.31c.22,0,.46,0,.61-.19a.77.77,0,0,0-1-.52,5.94,5.94,0,0,0-2.15.83,8.62,8.62,0,0,1-.94.52.32.32,0,0,1-.36,0,1.81,1.81,0,0,1,.76-.81,9,9,0,0,1,2.13-1,1.43,1.43,0,0,0,.63-.33c-.6-.12-1.09.27-1.64.19a.67.67,0,0,1,.43-.54,2.64,2.64,0,0,1,1.46-.28.91.91,0,0,0,.64-.08c-.12-.18-.29-.19-.44-.25a2.26,2.26,0,0,0-1.43.1A4.09,4.09,0,0,0,177.3,141.24Zm-.24,1.67a.28.28,0,0,0,0,.4,14.66,14.66,0,0,1,2.05-1.42s.06-.1,0-.23a7.17,7.17,0,0,0-1.41.65A1.81,1.81,0,0,0,177.06,142.91Zm-.24,3.81a2.75,2.75,0,0,0-.21,1.68c.27-.26.62-.42.82-.79C177,147.48,176.92,147.12,176.82,146.72Zm-.26,2.77a.38.38,0,0,0-.1.31c.15,0,.24-.09.32-.17.31-.27.6-.55.89-.83a4,4,0,0,1,2.77-1.12c.48,0,1,0,1.45-.07a1.06,1.06,0,0,0,.43-.08.75.75,0,0,0,.37-.94c-.13-.3-.37-.36-.78-.14a1.68,1.68,0,0,1-.84.2c-.34,0-.69,0-1,0a1.76,1.76,0,0,0-1.23.36A9.54,9.54,0,0,0,176.56,149.49Zm2.52,4.21a5.19,5.19,0,0,0,2.18-.36,5.76,5.76,0,0,1,2.13-.37,2.45,2.45,0,0,0,.75-.06.73.73,0,0,0-.52-.47,4.12,4.12,0,0,0-2.25-.11A7,7,0,0,0,179.08,153.7Zm5.65-4.44c.87.13,1.75.09,2.61.18a2.07,2.07,0,0,1,1.32.53.69.69,0,0,0,.4.24c0-.05,0-.09,0-.1a2.87,2.87,0,0,0-1.85-1.38,7.75,7.75,0,0,1-1.58-.46c-.22-.09-.45-.19-.68-.26a.94.94,0,0,0-1.19.47c-.17.27-.12.45.17.59A3,3,0,0,0,184.73,149.26Zm5.24.34a2.68,2.68,0,0,0,.61-1.27,4,4,0,0,0,.25-2.11,8.68,8.68,0,0,1-.43,1.74c-.18.36-.35.72-.52,1.08A.43.43,0,0,0,190,149.6Zm3.62-37.34a1.91,1.91,0,0,0,.71.81C194.18,112.49,194,112.32,193.59,112.26Zm-3.25,5.42c.07.48.2.65.53.57a4.25,4.25,0,0,0,1.84-.91c.26-.23.25-.43.06-.74-.08-.14-.25-.23-.29-.41.22-.1.39,0,.57.08.38.07.55,0,.73-.32a2.13,2.13,0,0,0,.3-.81c-.72.34-1,.25-1.45-.43-.15-.25-.26-.52-.4-.77-.06-.1,0-.27-.23-.29a3.11,3.11,0,0,1,0,1,.38.38,0,0,0-.25.27,2.56,2.56,0,0,0-.13,1.5c0,.13.07.27.09.41a.5.5,0,0,1-.28.59c-.14-.1-.07-.34-.27-.37a1,1,0,0,0-.92-.34A2.78,2.78,0,0,0,190.34,117.68Zm-.65.26a.77.77,0,0,0,.34.56.63.63,0,0,0-.06-.68c-.07-.26-.11-.53-.41-.69A1,1,0,0,0,189.69,117.94Zm-2.73-.51a1.53,1.53,0,0,1,.36.88.53.53,0,0,0,0,.33c0,.11.08.22.21.24a.32.32,0,0,0,.33-.16.69.69,0,0,0,.13-.5c.07-.23-.13-.44,0-.66.18-.06.26.07.34.19s.13.25.2.38a.79.79,0,0,0,.2.59c.15,0,.31,0,.46-.08a.6.6,0,0,0,0-.62c0-.41-.2-.8-.63-.86A3.74,3.74,0,0,0,187,117.43Zm-.38,1.46a.27.27,0,0,0,.3-.21c0-.11-.08-.24-.23-.25s-.22.09-.24.23S186.44,118.89,186.58,118.89Zm-2.89-.31a2.27,2.27,0,0,0-.62.5c.76,0,1.44,0,2.11,0a.69.69,0,0,0,.73-.58.78.78,0,0,0-.62-1.15,1.64,1.64,0,0,1-.16,1.15l-.1,0c-.27,0-.27-.22-.25-.43a.64.64,0,0,0-.5-.71A1.73,1.73,0,0,1,183.69,118.58Zm-.64-1.21c.09.41.09.41.38.6a.32.32,0,0,0,.1-.46A.33.33,0,0,0,183.05,117.37Zm-.75,9a.56.56,0,0,0-.16.29,1.73,1.73,0,0,0-.31.69,1.63,1.63,0,0,0-.08.62.35.35,0,0,0,.32.36c.18,0,.25-.12.3-.26a2.6,2.6,0,0,0,.12-.46,1.54,1.54,0,0,1,.37-.82c.18-.14.48-.12.55-.41C183,125.92,182.69,125.92,182.3,126.37Zm-2.41-7.13a2.21,2.21,0,0,0,.76,0A.3.3,0,0,0,181,119c0-.11,0-.23,0-.34a1.49,1.49,0,0,1,.11-.15l0,0,0,0h0s0,0,0,0l0,0,0,0h0l.07.07,0,0h0c.09.56.23.68.72.65s.5-.13.59-.66a1.11,1.11,0,0,0,0-.48.86.86,0,0,0-1.16-.62,1.57,1.57,0,0,0,.34.47,1.2,1.2,0,0,1,.35.62c-.15.22-.31,0-.46,0-.26-.26-.52-.53-.8-.78s-.34-.35-.58-.24-.2.35-.21.56,0,.36,0,.53S180,119,179.89,119.24Zm-.38-.63a.92.92,0,0,0,.17-.86.27.27,0,0,0-.33-.22c-.13,0-.14.16-.15.27A.94.94,0,0,0,179.51,118.61Zm-.59,7.27c-.3.3-.27.74-.43,1.09-.36,0-.49-.06-.65-.32a1.26,1.26,0,0,1-.21-1.14,1.61,1.61,0,0,0,.31-.66,1,1,0,0,0-1.17.34.77.77,0,0,0-.31.36.8.8,0,0,0,.22,1.22,2.77,2.77,0,0,0,1.36.59c.38,0,.49,0,.65-.37a4.59,4.59,0,0,1,.33-.74,1.09,1.09,0,0,1,.11.46c0,.14.05.28.08.43a.92.92,0,0,0,.17.45c.2.27.71.3.77,0a3.6,3.6,0,0,1,.81-1.25c.15-.14.31-.28.29-.52-.49-.27-.72-.2-1.05.33-.29.34-.27.81-.51,1.24a2.06,2.06,0,0,1-.05-1.36,1.58,1.58,0,0,0,.12-.15c.07-.11.16-.22.08-.36a.4.4,0,0,0-.43-.15A.64.64,0,0,0,178.92,125.88Zm-.72-.43a.17.17,0,0,0,.27.1.37.37,0,0,0,.2-.22c-.07-.16-.19-.13-.3-.11S178.16,125.31,178.2,125.45Zm-3.33-6h.82a1.22,1.22,0,0,1,.93.33c.27.4.35.46.64.36a5.24,5.24,0,0,0,1.3-.64.69.69,0,0,0,.36-.65,1.18,1.18,0,0,0-.1-.61.41.41,0,0,0-.34-.3,3.73,3.73,0,0,0-1.2,0c.29.38.7.61.8,1.07-.11.25-.31.27-.54.18C177,118.5,175.61,118.6,174.87,119.45Zm-1.41,4.09c.16,0,.2-.09.23-.2a1.5,1.5,0,0,1,.73-.92,2.87,2.87,0,0,1,1-.31c.48-.13.57-.55.68-1s0-.47-.43-.56a1.68,1.68,0,0,0-.67,0c-.18,0-.38,0-.54-.14.46-.4,1.12-.14,1.6-.48a1.41,1.41,0,0,0-2.22,1.07,1.32,1.32,0,0,0,.64.16,1.14,1.14,0,0,1,.68.34l0,.15-.43.07a1.36,1.36,0,0,0-1.3,1.5C173.35,123.36,173.33,123.48,173.46,123.54Zm-1.21,29.32h3c.21-.78.61-1.49.8-2.29h-2.18c-.18,0-.25.12-.35.23-.33.4-.65.81-1,1.19A.87.87,0,0,0,172.25,152.86Zm-8.3,8.82h6.2c.92-1.45,1.87-2.91,2.8-4.37,0,0,0-.06-.07-.06h-6a.48.48,0,0,0-.34.14l-2.47,2.28a.36.36,0,0,0-.17.27C163.94,160.51,163.88,161.09,164,161.68Zm-6.16,17.65c1.09,0,1.1,0,1.68-.93q2-3.19,4.06-6.41c.59-.93,1.18-1.86,1.71-2.82.08-.15.21-.29.18-.47l-.07,0h-9.73a.57.57,0,0,0-.43.18L149,175a.68.68,0,0,0-.22.55c0,1.17,0,2.34,0,3.51,0,.09,0,.19,0,.27a.28.28,0,0,0,.23.05Zm4.75,6.8c2.22-4.59,4.38-9.21,6.55-13.83,1.42-3,2.89-6,4.22-9.06a9.28,9.28,0,0,0,.6-1.7.9.9,0,0,0,0-.54,7.37,7.37,0,0,0-.82,1.33c-1.58,3-3.08,6-4.6,9-1.81,3.6-3.62,7.21-5.53,10.76-.16.29-.34.58-.56,1-.08-.44-.36-.46-.64-.48a1,1,0,0,1-.64-.14c.09-.18.17-.37.27-.55.6-1.15,1.19-2.3,1.81-3.44q4.56-8.33,9.14-16.65c.77-1.41,1.55-2.81,2.23-4.26a2.41,2.41,0,0,0,.34-1,3.51,3.51,0,0,1,.51-1.6,2.67,2.67,0,0,1,.78-.64.55.55,0,0,0,.23-.17.24.24,0,0,0,0-.35c-.09-.12-.2-.07-.3,0a1.82,1.82,0,0,0-.75.73,6.67,6.67,0,0,0-.79,1.1c-2.32,3.53-4.52,7.14-6.74,10.75-3,4.92-6.12,9.81-9.18,14.72a5.64,5.64,0,0,0-.78,1.33,6.1,6.1,0,0,0,0,1.6c0,.88.07,1.77.1,2.68h4.23C162.35,186.51,162.44,186.32,162.54,186.13Zm17-6.93c-.64-1.48-1.6-2.75-2.14-4.26h-7.27a4.61,4.61,0,0,1,.29-.79h6.65a18.31,18.31,0,0,1-1.09-3.31c0-.11,0-.23.07-.34.16.07.23.22.32.35a.65.65,0,0,0,.3.31,2.3,2.3,0,0,1,1,1c.23.31.44.64.68,1a1.23,1.23,0,0,0,.94.53,8.33,8.33,0,0,1,.84.17c.05.24-.14.26-.29.28a2.16,2.16,0,0,1-2.05-.58,4.09,4.09,0,0,1-.65-.91c-.08-.15-.14-.33-.4-.35a1.62,1.62,0,0,0,.3.87,9.76,9.76,0,0,0,2.34,2.5,1.78,1.78,0,0,0,1.54.4,3.65,3.65,0,0,1,2.28.3l.15.07.16.08.08,0,.12,0H184c0,.07.05.08.11.07l.18,0c.47.08.64-.08.58-.55a1.25,1.25,0,0,0-.59-.9,1.92,1.92,0,0,0-1.06-.3,1.65,1.65,0,0,1-1-.34c-.2-.15-.38-.3-.57-.46a10.8,10.8,0,0,0-1.59-1.19c-.42-.24-.87-.45-1-1a.76.76,0,0,0-.18-.23,11.5,11.5,0,0,0-2-1.77,1.28,1.28,0,0,0-.61-.29,1.74,1.74,0,0,1-.6-.32c-.1-.2-.1-.45-.28-.65-1.07,0-2.15,0-3.24,0a.57.57,0,0,0-.62.4c-.5,1.08-1,2.16-1.53,3.25-.62,1.3-1.21,2.62-1.86,3.9a16.86,16.86,0,0,0-1.09,2.64.8.8,0,0,0-.06.49l.58,0c1.83.08,3.66.06,5.49,0s3.8-.06,5.69-.1A2,2,0,0,0,179.55,179.2Zm2.31-7.76a2.32,2.32,0,0,1-1.1-1.25,1.65,1.65,0,0,0-.71-.83,21.12,21.12,0,0,1-3.88-3l-1-1.21a4.8,4.8,0,0,0,.51,1.91,11.1,11.1,0,0,0,2.12,2.83,8.05,8.05,0,0,1,1.51,1.83,1.14,1.14,0,0,0,.31.31,11.13,11.13,0,0,0,2,1.17,5.85,5.85,0,0,0,1.3.65,1.13,1.13,0,0,0,.64.18,1.75,1.75,0,0,1,1.31.83,2.57,2.57,0,0,1,.23.47,1.65,1.65,0,0,0,.7-.77,3.12,3.12,0,0,1,1-1.25c.77-.76,1.51-1.55,2.28-2.32a11.05,11.05,0,0,0,1.44-1.83,7.94,7.94,0,0,0,1.15-3.22.58.58,0,0,0-.16-.61,2.18,2.18,0,0,0-1,1.39,5.92,5.92,0,0,1-.29.87,11.94,11.94,0,0,1-1.33,2,1.57,1.57,0,0,1-.34.34,8,8,0,0,0-1.7,1.36c-.42.38-.84.76-1.28,1.13a4.08,4.08,0,0,1-.76.52c-.07,0-.16.12-.24,0a.76.76,0,0,1,.24-.36c.7-.73,1.38-1.47,2.1-2.17s1.41-1.29,2.12-1.93a3.78,3.78,0,0,0,.68-.76c.12-.18.19-.37-.05-.54a2.84,2.84,0,0,0-.93.63,8.71,8.71,0,0,1-1.49,1.15,3.28,3.28,0,0,0-1.33,1.38,3.13,3.13,0,0,1-.57.78,1.47,1.47,0,0,1-.83.48,1.27,1.27,0,0,1,.44-.52,1.85,1.85,0,0,0,.5-.64.72.72,0,0,0,0-.82.92.92,0,0,0-.9-.37c-.12.19.09.39-.12.54s-.31-.21-.4-.4a.62.62,0,0,0-.74-.39.92.92,0,0,0-.71.54c-.1.21-.21.43-.49.44-.2-.22.08-.45,0-.65a.56.56,0,0,0-.41.12.73.73,0,0,0-.32,1.13c.11.18.27.33.39.5S182,171.26,181.86,171.44Zm5,3.47a2.34,2.34,0,0,1,.66-.54c.88-.62,1.77-1.21,2.64-1.83a3.6,3.6,0,0,0,1.49-2,1,1,0,0,0,0-.76c-.43.41-.7.91-1.11,1.3s-.89.64-1.32,1a16.88,16.88,0,0,0-3.38,3.32,2.17,2.17,0,0,0-.45.82,1.07,1.07,0,0,0,.65-.36l.28-.16.14-.06.14,0,.18,0a1,1,0,0,1,.24,0h.1a1,1,0,0,1,.25,0h.17l.12,0,.13,0,.16,0,.7.19a7,7,0,0,0,.77.15,1.11,1.11,0,0,0,1.14-.57,2.91,2.91,0,0,0,.23-.42,14,14,0,0,0,.68-2.08,1.25,1.25,0,0,0,0-.59c-.65.47-1.32.83-2,1.39a3.89,3.89,0,0,0,1.36-.56.51.51,0,0,1-.18.7,2.32,2.32,0,0,1-1.31.6,8.3,8.3,0,0,0-2,.48A.58.58,0,0,1,186.83,174.91ZM181.45,190a3.88,3.88,0,0,1,.61-1.67.66.66,0,0,0,.14-.45,1.1,1.1,0,0,0-1.46.24,3.12,3.12,0,0,0-.53,1.34.36.36,0,0,0,.16.43c.41-.19.2-.86.76-1,.06.6-.44,1.19,0,1.78A.87.87,0,0,0,181.45,190Zm7.39-1.58a.91.91,0,0,0-1.06-.49c-.27-.07-.56,0-.86-.06.23-.33.64-.44.77-.8a1.22,1.22,0,0,0,.16-1.06,7.92,7.92,0,0,0-.65-2,1.79,1.79,0,0,0-.38-.56c-.23-.22-.29-.22-.59,0a4.39,4.39,0,0,0-.74.69,2.77,2.77,0,0,1-.79.56c-.15.06-.33.11-.41-.1a.31.31,0,0,1,.17-.44,4.12,4.12,0,0,0,1.57-1.53,1.22,1.22,0,0,0,.36-1.1,22.85,22.85,0,0,0-1.21-3.67,1.15,1.15,0,0,0-.92-.75,2.21,2.21,0,0,0-.35-.16,5.68,5.68,0,0,0-3.11-.19,1.87,1.87,0,0,1-1.55-.37c-.35-.26-.67-.54-1-.82a1.92,1.92,0,0,0,.57,1,5.76,5.76,0,0,0,3.57,1.67,1.45,1.45,0,0,1,1,.41l.37.38,1.61,1.66h0a.2.2,0,0,0,.11.21.08.08,0,0,0,0,.05c-.09.35-.13.38-.39.25a1.91,1.91,0,0,1-.4-.28,9.64,9.64,0,0,1-1.05-1.07c-.51-.56-.51-.58-1.22-.37a2.21,2.21,0,0,1-1.83-.14,1,1,0,0,0-.57-.15,1.28,1.28,0,0,0,.37.64,9.15,9.15,0,0,0,2.06,1.76,1.84,1.84,0,0,0,.81.3,2,2,0,0,1,1.09.49.53.53,0,0,1,.22.62c-.22.08-.36-.06-.5-.15a1.58,1.58,0,0,0-.66-.3,4,4,0,0,1-1.7-.67c-.1-.06-.2-.18-.35,0a2.75,2.75,0,0,0,.17.29,6.69,6.69,0,0,1,.89,1.77,2.13,2.13,0,0,0,1.27,1.55c.15.06.34.14.3.38-.22.17-.47.11-.71.13s-.41.12-.44.51c-.05.58,0,.81.35.88l.39,0a.7.7,0,0,1,.32.05c-.11.16-.32.12-.45.24a1.56,1.56,0,0,0-1.1.8,2.74,2.74,0,0,0-.25,2.46,4.28,4.28,0,0,0,.32-.78c.11-.23.11-.52.39-.7a2,2,0,0,1,0,.61,2.84,2.84,0,0,0-.06.87.63.63,0,0,0,.89.63.74.74,0,0,0,.56-.66,4.28,4.28,0,0,0,.09-.87,4.62,4.62,0,0,1,.32-1.8,2,2,0,0,1,.29-.22c.21-.1.32,0,.38.26a2.46,2.46,0,0,0-.11,3c.46-.38.21-1,.42-1.48a1.11,1.11,0,0,1,.26.58c.05.2.07.41.12.62a.5.5,0,0,0,.37.46.61.61,0,0,0,.59-.27,1.65,1.65,0,0,0,.3-.86,7.49,7.49,0,0,0,0-1.16,2.27,2.27,0,0,1,0-.9c.31.23.27.6.34.92s.08.87.19,1.3c0,.15.06.32.25.38.37-.47.09-1.13.48-1.63.4.45,0,1.08.42,1.5a.59.59,0,0,0,.32-.49A2.51,2.51,0,0,0,188.84,188.39Zm-2.18-7.4a1.17,1.17,0,0,0,.91.57,2,2,0,0,0,1.46-.91.36.36,0,0,0-.16-.53.85.85,0,0,0-.48-.12,11.44,11.44,0,0,0-1.44.38l-.17.08C186.55,180.61,186.5,180.76,186.66,181Zm0-3.13a.53.53,0,0,1,.32-.08,6.48,6.48,0,0,1,.88,0c.38.07.77.12,1.15.16a.81.81,0,0,0,.64-.16,5.34,5.34,0,0,0,1-1.07c.08-.12.16-.25,0-.39a1.71,1.71,0,0,0-.73.21,5.14,5.14,0,0,1-2.83.51,1.57,1.57,0,0,0-.77.1.76.76,0,0,0-.51.92,1.68,1.68,0,0,0,.74,1.11,2.4,2.4,0,0,0,1.38.38,3.64,3.64,0,0,1,1.49.21,2.25,2.25,0,0,0,.52-1.51c-.5.4-.51.41-1,.37a16.81,16.81,0,0,1-2-.31,1.09,1.09,0,0,1-.31-.14C186.46,178.1,186.48,178,186.63,177.86Zm13.92,1.41a2.61,2.61,0,0,0-.27-.77c-.47-1-.94-2-1.42-3-1-2.14-2-4.28-3.06-6.4a.62.62,0,0,0-.67-.4c-.6,0-1.2,0-1.8,0a7.7,7.7,0,0,0-1.27,0c-.24,1.83-.14,3.66-.52,5.5H197a2.27,2.27,0,0,1,.22.8h-5.9l-.46,2.21c-.14.72-.48,1.39-.57,2.13A87.13,87.13,0,0,0,200.55,179.27Zm8.93,3.72a1.41,1.41,0,0,0-.23-.87q-5.85-9.37-11.69-18.77-3.19-5.11-6.41-10.21a2.05,2.05,0,0,0-.58-.7l0,0,0,0a4,4,0,0,0-.39,1.88.94.94,0,0,1-.2.76c-.17,0-.21-.12-.26-.22-.23-.46-.29-.48-.78-.32l-.67.23c0-.23.25-.31.11-.53a2.08,2.08,0,0,0-.66,0,5.22,5.22,0,0,1-2.28-.41,1.5,1.5,0,0,0-.47-.14,7.93,7.93,0,0,0-4.07.27,4,4,0,0,1-.9.2,15.84,15.84,0,0,1-1.94.09.91.91,0,0,0-.87.44.81.81,0,0,1-1,.43.38.38,0,0,0-.49.19,2.37,2.37,0,0,0-.29,1c.44,0,.59-.56,1-.58,0,.4-.34.62-.44.94a2.31,2.31,0,0,0-.46.84,18.46,18.46,0,0,0-.88,3.28,2.38,2.38,0,0,0,.2,1.55,2.67,2.67,0,0,1,.3,1.21.93.93,0,0,0,0,.24,6,6,0,0,0,2.05,2.94c.4.33.86.62,1.25,1a5.55,5.55,0,0,0,1.48,1,2.87,2.87,0,0,0,3-.33c.3-.21.33-.29.14-.6a4.75,4.75,0,0,0-1.39-1.47,5.11,5.11,0,0,1-.48-.33.87.87,0,0,1-.38-.79c0-.34,0-.68,0-1s0-.55.27-.75c.13.15.09.31.1.47,0,.43,0,.87,0,1.3,0,.14,0,.3.17.36s.25-.26.43-.31c-.13.49-.06.6.45.72a.59.59,0,0,0,.19,0c.25,0,.36.18.41.4a1.53,1.53,0,0,0,.14.46.47.47,0,0,0,.42.28.42.42,0,0,0,.4-.3,1.2,1.2,0,0,0,.13-.36.41.41,0,0,1,.4-.39c.6-.08.7-.22.76-.77h0l0,0,0,0a.27.27,0,0,0,.28.1c.38-.54,0-1.25.29-1.89a4.27,4.27,0,0,1,.23,1.88,2.62,2.62,0,0,1-.94,1,4.11,4.11,0,0,0-.94.77,2,2,0,0,0-.42.7c-.09.3,0,.4.23.55a3.28,3.28,0,0,0,3.78-.12,5.78,5.78,0,0,0,.69-.61,10.63,10.63,0,0,1,1.24-1.09,4.93,4.93,0,0,0,1.85-2.88,4.31,4.31,0,0,1,.46-1.32,2.49,2.49,0,0,0,.33-1.86,10.23,10.23,0,0,0-.34-1.32,8.38,8.38,0,0,1-.34-1.11,3.53,3.53,0,0,0-.54-1.33c-.23-.38-.44-.76-.63-1.15a10.29,10.29,0,0,1,0-1.57c0-.13.05-.17.17-.12.5.87,1,1.74,1.48,2.62l14.09,25.63c.06.11.16.21.15.35a1.18,1.18,0,0,1-.53,0,2.76,2.76,0,0,0-.57.06c-.19,0-.24.23-.37.34a11.65,11.65,0,0,1-.8-1.38c-2.06-3.86-4-7.78-6-11.69-1.82-3.63-3.62-7.27-5.52-10.86a1.88,1.88,0,0,0-.33-.52,2.53,2.53,0,0,0,.18.9,40,40,0,0,0,1.94,4.81q3.5,7.4,7,14.78c1.14,2.4,2.25,4.82,3.42,7.2a.89.89,0,0,0,.78.54c1.14.13,2.27.05,3.41.07a.44.44,0,0,0,.39-.07C209.41,185.51,209.44,184.25,209.48,183Zm9-7.57a.9.9,0,0,0-.33-.75c-2-1.87-3.91-3.74-5.85-5.63a1.23,1.23,0,0,0-.94-.38c-2.28,0-4.57,0-6.86,0-.9,0-1.8,0-2.81,0,.14.24.23.41.33.57,1.28,2,2.56,4.09,3.85,6.13.77,1.22,1.56,2.42,2.4,3.6a1,1,0,0,0,.89.46c.63,0,1.27,0,1.9,0,2.35,0,4.7-.14,7-.12.12,0,.26,0,.37-.08C218.51,178,218.49,176.7,218.51,175.42Z"/><path class="cls-3" d="M190.6,157.82Zm-5.44,7.49h0Z"/><path class="cls-3" d="M187,175.52l-.24,0A1,1,0,0,1,187,175.52Z"/><polygon class="cls-3" points="185.35 180.79 185.35 180.79 185.34 180.79 185.34 180.79 185.35 180.79"/><path class="cls-3" d="M180.2,173.78Z"/><path class="cls-3" d="M184,176.51a.66.66,0,0,1-.2,0A.66.66,0,0,0,184,176.51Z"/><polygon class="cls-3" points="183.99 176.5 183.99 176.51 183.98 176.51 183.98 176.5 183.99 176.5"/><path d="M185.14,165.3c-.06.55-.16.69-.76.77a.41.41,0,0,0-.4.39,1.2,1.2,0,0,1-.13.36.42.42,0,0,1-.4.3.47.47,0,0,1-.42-.28,1.53,1.53,0,0,1-.14-.46c0-.22-.16-.39-.41-.4a.59.59,0,0,1-.19,0c-.51-.12-.58-.23-.45-.72a3.22,3.22,0,0,1,1,0,4.37,4.37,0,0,0,1.53,0A1.14,1.14,0,0,1,185.14,165.3Z"/><path class="cls-3" d="M180.2,173.78Z"/><path class="cls-3" d="M175.47,123.19a.4.4,0,0,1-.11,0Z"/><path class="cls-3" d="M185.45,181a.2.2,0,0,1-.11-.21h0C185.47,180.82,185.45,180.91,185.45,181Z"/><path class="cls-3" d="M184.09,176.58c-.06,0-.11,0-.11-.07h0C184.07,176.46,184.07,176.53,184.09,176.58Z"/><path class="cls-2" d="M206.76,174.93l-.49-.76h.6c2.95,0,5.9,0,8.85,0a1.05,1.05,0,0,1,1,.43,4.7,4.7,0,0,0,.33.35Z"/><path class="cls-2" d="M160.94,174.17l-.5.77H150.22l.71-.66a.46.46,0,0,1,.35-.12Z"/><path class="cls-2" d="M181.21,161.33s0,0-.05.08-.19-.09-.28-.15a1.67,1.67,0,0,0-.45-.28,2.27,2.27,0,0,1-1.16-.67.71.71,0,0,0-.57-.21c.21.56.78.77,1,1.24-.12.12-.22,0-.31,0-.59-.22-1.16-.49-1.73-.76-.41-.21-.6-.15-.84.25a3.35,3.35,0,0,0-.44,1.47,1,1,0,0,0,.25.72,2.07,2.07,0,0,0,.63.62c.6-.55,1.45-.49,2.15-.9a.85.85,0,0,0-.5-.23c-.35-.07-.7-.13-1-.23a1,1,0,0,1-.48-1.21.3.3,0,0,1,.24-.15.93.93,0,0,1,1,.51c-.09.14-.23.09-.36.1s-.25.06-.29.2,0,.09,0,.09c.52-.09.94.26,1.43.31a.3.3,0,0,1,.26.19c.07.3.28.32.52.32a1,1,0,0,1,.24,0,.25.25,0,0,1,.16.27.22.22,0,0,1-.22.22H180c-.49,0-.53,0-.54.51a.76.76,0,0,0,0,.15l.06.09c.19-.07.24-.36.48-.35a.17.17,0,0,1,.12.19,1.13,1.13,0,0,1-.91,1,.49.49,0,0,0-.44.44c-.09,0-.1.22-.31.17-.17-.73.49-1.31.48-2a.72.72,0,0,0-.45.33c-.13.14-.25.29-.37.44a1.44,1.44,0,0,1-1,.47c.21.61.67,1.07.68,1.71a8.73,8.73,0,0,0-1.69-1.74c0-.25.24-.3.36-.42a.35.35,0,0,0,.1-.44c-.07-.13-.11-.27-.18-.39a3.66,3.66,0,0,1-.4-2.67,4.13,4.13,0,0,1,.46-1.57c.08,0,.11-.13.23-.11.11.26,0,.58.1.9.27-.28.56-.47.66-.82-.4-.43-.4-.55,0-1,.13-.16.32-.28.37-.52-.26,0-.53-.08-.68.18a4.45,4.45,0,0,1-.67.76l-.3.14c-.13.05-.26.07-.31-.1a3.2,3.2,0,0,1,1.27-1.43,1.61,1.61,0,0,0,.57-.48c-.37-.07-.56.31-.9.32a.36.36,0,0,1,0-.44,2.5,2.5,0,0,0,.38-1.08c.07-.26.08-.56.31-.75.63.2.82.57.56,1.09.12.12.28.06.41.11.31.13.41.36.19.6a1.08,1.08,0,0,0-.25.81,2.71,2.71,0,0,1-.3,1.45.61.61,0,0,0,.52,1c.25,0,.52,0,.77,0s.33,0,.49,0a1.21,1.21,0,0,1,1.22,1.1C181.16,161,181.18,161.16,181.21,161.33Zm-.43-.82a.18.18,0,0,0-.11-.19.63.63,0,0,0-.33-.06.34.34,0,0,1-.32-.18c-.13-.28-.35-.22-.67-.18a1.43,1.43,0,0,0,.62.66,1,1,0,0,0,.65.1C180.71,160.64,180.77,160.6,180.78,160.51Z"/><path class="cls-2" d="M189.81,158a1.92,1.92,0,0,0-.82-.51c.26.37.46.64.84.72a.86.86,0,0,0,.28.92,4.12,4.12,0,0,1,.34,4,2.88,2.88,0,0,1-.13.31c-.2.44-.2.46.14.78a.33.33,0,0,1,0,.51l-.52.58a3.21,3.21,0,0,0-.67.88.35.35,0,0,1-.42.22c.1-.62.58-1.1.61-1.75a4.1,4.1,0,0,1-1.31-1,.9.9,0,0,0-.52-.33,1.39,1.39,0,0,0-.8-.15,1.6,1.6,0,0,1-.76-.16c.14-.42.55-.35.82-.52a9.72,9.72,0,0,1,.92-.44,2.24,2.24,0,0,1,1-.2c-.07-.44-.47-.31-.74-.47.32-.21.85-.21.75-.79-.35,0-.51.23-.73.37a1.43,1.43,0,0,1-.71.34,1,1,0,0,1,.37-.58,1.66,1.66,0,0,0,.4-.61,1.22,1.22,0,0,0-.78.4,1.26,1.26,0,0,1-.8.42.9.9,0,0,0-.82.52,1.07,1.07,0,0,1,.43-1.45,2.94,2.94,0,0,1,1.12-.28l.87-.11a.34.34,0,0,0,.34-.39c0-.6-.06-1.2-.12-1.8a1.78,1.78,0,0,0-.35-.84.44.44,0,0,1,0-.58,4.59,4.59,0,0,1,1.12-1c.23.07.26.27.32.43.19.53.36,1.07.57,1.6a2,2,0,0,0,.47.87.13.13,0,0,0,.08.18c.07.21.28.38.2.65-.17.09-.27-.08-.41-.07C190.25,158.37,190,158.16,189.81,158Zm-2.33,1.95c-.19-.06-.41-.11-.49,0a.77.77,0,0,1-.69.35.21.21,0,0,0-.21.22c0,.15.13.16.25.17A1.15,1.15,0,0,0,187.48,159.91Zm1.84-.93c.06.24.13.38.38.38C189.7,159.12,189.63,159,189.32,159Zm-.67.92c.07.16.22.16.32.24a1.52,1.52,0,0,1,.52,1.57c-.06.53-.52.56-.9.67a2.33,2.33,0,0,0-.28.05c-.19.07-.42.06-.59.28a2.26,2.26,0,0,0,1.27.57c.3.05.56.1.63.45a.65.65,0,0,0,.37-.41,3.09,3.09,0,0,0,.25-1.85,2.15,2.15,0,0,0-.63-1.22A1.2,1.2,0,0,0,188.65,159.9Z"/><path class="cls-2" d="M187.67,157.28a.25.25,0,0,1-.22.09,2.55,2.55,0,0,1-1.52-.88.39.39,0,0,1-.09-.22c0-.48-.31-.69-.66-.88a2.43,2.43,0,0,0-.8-.26.71.71,0,0,0,.46.44c.07,0,.16,0,.24.06s.18.09.16.21-.12.14-.22.15a1.65,1.65,0,0,1-1.16-.26c-.1-.07-.18-.18-.35-.19-.14.49,0,1-.24,1.49-.24-.15-.23-.38-.25-.6,0-.5-.05-.52-.54-.48a1.85,1.85,0,0,1-.84,0c.16-.52.78-.41,1-.79a4.65,4.65,0,0,0-3.09,1.52c.59-.15.94-.68,1.48-.81.23.18.15.37,0,.52a2.41,2.41,0,0,1-1.47.79.76.76,0,0,1-.33-.05.39.39,0,0,1-.21-.62,1.76,1.76,0,0,1,.24-.3,4.72,4.72,0,0,1,3-1.49,11.43,11.43,0,0,1,1.94,0,4,4,0,0,1,2.35,1.07,5.08,5.08,0,0,1,.88,1A.68.68,0,0,1,187.67,157.28Z"/><path class="cls-2" d="M185.87,159.32a.23.23,0,0,1-.12.24c-.15,0-.2-.11-.19-.23a1.25,1.25,0,0,0-.32-.88,4.48,4.48,0,0,0-.63-.74c-.13-.12-.24-.26-.48-.24a.36.36,0,0,0,.19.54c.7.3.71.9.72,1.5a1.1,1.1,0,0,1-.13.75c-.16,0-.22-.08-.23-.16a2.69,2.69,0,0,0-.53-1,2.75,2.75,0,0,1-.45-1.07c0-.23-.09-.47.19-.63s.14-.32.16-.49,0-.35.2-.41a.46.46,0,0,1,.43.17,3.93,3.93,0,0,1,1.08,1.8A2.57,2.57,0,0,1,185.87,159.32Z"/><path class="cls-2" d="M180.37,158.13c-.18,0-.38-.1-.53.09,0,.34.43.27.52.52-.31.66-1.13.74-1.92.17a.56.56,0,0,1,.69-.14c.1,0,.2.11.3.16s.21,0,.25-.13c-.42-.45-.38-.78.12-1.14a3.64,3.64,0,0,1,1.31-.58A.77.77,0,0,1,180.37,158.13Z"/><path class="cls-2" d="M183.25,157.78a2,2,0,0,1-.47.95,1.89,1.89,0,0,0-.57,1.14.41.41,0,0,1-.1.22.63.63,0,0,0-.14.63.45.45,0,0,1-.27.52,1.75,1.75,0,0,1-.07-.77c0-.37.05-.74.08-1.11a2.56,2.56,0,0,1,1.37-1.91A.24.24,0,0,1,183.25,157.78Z"/><path class="cls-2" d="M182.78,157a1,1,0,0,1-.29.44,4.38,4.38,0,0,0-1.28,1.81.49.49,0,0,1-.14.19s-.08,0-.17.06a1.3,1.3,0,0,1,0-.85,7.74,7.74,0,0,1,.95-1.74,1.12,1.12,0,0,1,.39-.36c.15-.08.31-.15.45,0S182.83,156.81,182.78,157Z"/><path class="cls-2" d="M187.94,159.21a1.71,1.71,0,0,1-1.39-.23c-.11-.07-.22-.17-.14-.32s.21-.1.33,0,.14.14.26.12c.16-.47.08-.61-.34-.68a3.56,3.56,0,0,1-.57-.09c-.41-.17-.52-.46-.3-.93a6.22,6.22,0,0,1,1.43.89.49.49,0,0,1,.18.48c0,.17-.05.34-.08.57.35-.09.57-.4.92-.23C188.31,159,188.17,159.14,187.94,159.21Z"/><path class="cls-2" d="M188,165.52a.9.9,0,0,1-.09-.32c0-.3-.16-.41-.45-.47a.92.92,0,0,1-.71-1.08c.15,0,.23.07.33.15s.15.18.28.18c.08-.19-.12-.37,0-.57s.23,0,.34.06a2.69,2.69,0,0,1,.63,1.6C188.32,165.4,188.28,165.45,188,165.52Z"/><path class="cls-2" d="M180.85,154.58a5.61,5.61,0,0,1-1.4.86.59.59,0,0,1-.87-.47.32.32,0,0,1,.07-.32.23.23,0,0,1,.31,0c.25.25.5.14.75,0s.49-.25.74-.36a.65.65,0,0,1,.51-.1A.26.26,0,0,1,180.85,154.58Z"/><path class="cls-2" d="M188.08,155.53a4.52,4.52,0,0,1-2.77-1.27A4.3,4.3,0,0,1,188.08,155.53Z"/><path class="cls-2" d="M182.89,153.91a1.55,1.55,0,0,1-1.47.31A1.23,1.23,0,0,1,182.89,153.91Z"/><path class="cls-2" d="M184.78,154a.87.87,0,0,1-1.11,0C184,153.71,184.33,153.71,184.78,154Z"/><path class="cls-2" d="M185.09,161.3c-.28-.25-.28-.31,0-.78C185.25,160.8,185.33,161.05,185.09,161.3Z"/><path class="cls-2" d="M183.72,173.14c-1.1.15-1.75-.15-1.88-.85.34.17.64.33.95.47S183.41,173,183.72,173.14Z"/><path class="cls-2" d="M187,185.58a1.86,1.86,0,0,1-1.25.21,1.25,1.25,0,0,1,.9-.52C186.77,185.27,186.77,185.28,187,185.58Z"/><path class="cls-2" d="M171,159.19a.49.49,0,0,1-.56.43h-5.14a.31.31,0,0,1-.25-.07.81.81,0,0,1,.66-.39h5.09Z"/><path class="cls-2" d="M202.51,159.53a.62.62,0,0,1-.43.09c-1.64,0-3.27,0-4.9,0a.71.71,0,0,1-.72-.41.46.46,0,0,1,.32-.05c1.63,0,3.27,0,4.9,0C202,159.11,202.21,159.36,202.51,159.53Z"/><path class="cls-2" d="M187,168a2.79,2.79,0,0,1-2.41,0A6.31,6.31,0,0,1,187,168Z"/><path class="cls-2" d="M187.46,166.27a4.06,4.06,0,0,1-1.94.7A2.67,2.67,0,0,1,187.46,166.27Z"/><path class="cls-2" d="M187.64,167a2,2,0,0,1-1.71.42A11.23,11.23,0,0,0,187.64,167Z"/><polygon class="cls-3" points="190.6 157.82 190.6 157.82 190.6 157.82 190.6 157.82 190.6 157.82"/><path class="cls-2" d="M182.15,168a2,2,0,0,1-2.25,0A5.05,5.05,0,0,1,182.15,168Z"/><path class="cls-2" d="M182.18,167.41a2.56,2.56,0,0,1-2.32,0A5.85,5.85,0,0,1,182.18,167.41Z"/><path class="cls-2" d="M181.17,167a4.35,4.35,0,0,1-1.88-.76A2.93,2.93,0,0,1,181.17,167Z"/><path class="cls-2" d="M179.59,167.21c-.26.12-.42,0-.62-.2C179.25,167,179.48,166.87,179.59,167.21Z"/><path class="cls-2" d="M194.2,152h-2.75c-.08,0-.1-.07-.12-.13s.16-.07.24-.07l2.13,0C193.89,151.75,194.09,151.73,194.2,152Z"/><path class="cls-2" d="M175.34,151.78a.68.68,0,0,1-.08.16.24.24,0,0,1-.13.05h-2.22a.2.2,0,0,1,.22-.21Z"/><path class="cls-2" d="M246.83-44.35a60.08,60.08,0,0,1-4.1,19.4,63.62,63.62,0,0,1-40.57,37.84A62.07,62.07,0,0,1,192.63,15a66.94,66.94,0,0,1-8.72.65,62.74,62.74,0,0,1-6.85-.36,61.51,61.51,0,0,1-15.14-3.52,61.49,61.49,0,0,1-18-10.26,68.66,68.66,0,0,1-8.95-8.85A61.56,61.56,0,0,1,127.32-19a64.25,64.25,0,0,1-5.92-17.52,56.78,56.78,0,0,1-.9-11c0-2.08,0-3.82.12-5.55.11-1.57.34-3.13.6-4.68a65,65,0,0,1,3.09-11.77,62,62,0,0,1,10.59-18.4,67.86,67.86,0,0,1,8.56-8.56A60.79,60.79,0,0,1,154.93-104a63.16,63.16,0,0,1,16.4-5.73,59.69,59.69,0,0,1,9.79-1.13,71.22,71.22,0,0,1,9.91.35,61.93,61.93,0,0,1,20.31,6,62.59,62.59,0,0,1,17,12.06A63,63,0,0,1,240-76.3,62.92,62.92,0,0,1,245-63.45a59.76,59.76,0,0,1,1.54,8.51A70.66,70.66,0,0,1,246.83-44.35Zm-4.52-3c0-1.34,0-2.69,0-4a26.88,26.88,0,0,0-.16-3.11,60.54,60.54,0,0,0-1.33-7.06A58.59,58.59,0,0,0,225.43-89a58.15,58.15,0,0,0-19.86-13.2,58.42,58.42,0,0,0-12.17-3.43,48.52,48.52,0,0,0-5.5-.65c-1.88-.08-3.76-.12-5.65-.09a40,40,0,0,0-4.51.21c-2.08.25-4.14.6-6.18,1a57.38,57.38,0,0,0-15.74,5.73,59.39,59.39,0,0,0-14.42,11,57.65,57.65,0,0,0-13.16,21.18,58.63,58.63,0,0,0-3.39,19,57.22,57.22,0,0,0,.61,9,56.58,56.58,0,0,0,2.61,10.75A58.44,58.44,0,0,0,151.92,1.81a57.15,57.15,0,0,0,33.7,9.3A56.62,56.62,0,0,0,195.51,10a58.83,58.83,0,0,0,14.62-5.13,58.65,58.65,0,0,0,15.74-11.6,59.09,59.09,0,0,0,10.61-15,58.56,58.56,0,0,0,4.43-12.31,46,46,0,0,0,1.25-7.28C242.32-43.34,242.32-45.34,242.31-47.34Z"/></pattern></defs><title>BamFull4</title><rect class="cls-4" x="2.13" y="9.78" width="495.75" height="824.7"/><rect class="cls-5" x="2.13" y="9.78" width="495.75" height="824.7"/><rect class="cls-6" x="2.13" y="9.78" width="495.75" height="824.7"/><rect class="cls-7" x="2.13" y="9.78" width="495.75" height="824.7"/></svg>