<svg id="Слой_1" data-name="Слой 1" xmlns="http://www.w3.org/2000/svg" xmlns:xlink="http://www.w3.org/1999/xlink" viewBox="0 0 500 828.16"><defs><style>.cls-1{fill:none;}.cls-2{fill:url(#Безымянный_градиент_2);}.cls-3{fill:url(#Безымянный_градиент_13);}.cls-4{opacity:0.6;fill:url(#Безымянный_градиент_16);}.cls-5{opacity:0.06;fill:url(#связист);}</style><linearGradient id="Безымянный_градиент_2" x1="577.25" y1="-37.7" x2="83.25" y2="644.3" gradientUnits="userSpaceOnUse"><stop offset="0.01" stop-color="#352772"/><stop offset="0.17" stop-color="#302362"/><stop offset="0.48" stop-color="#281c49"/><stop offset="0.77" stop-color="#231839"/><stop offset="1" stop-color="#211734"/></linearGradient><radialGradient id="Безымянный_градиент_13" cx="969.25" cy="99.13" r="1180.64" gradientUnits="userSpaceOnUse"><stop offset="0" stop-color="#0d0a16"/><stop offset="0.84" stop-color="#150f22"/><stop offset="1" stop-color="#171025"/></radialGradient><radialGradient id="Безымянный_градиент_16" cx="791.3" cy="-116.85" r="1037.52" gradientUnits="userSpaceOnUse"><stop offset="0" stop-color="indigo"/><stop offset="0.16" stop-color="#47017c"/><stop offset="0.38" stop-color="#3d026a"/><stop offset="0.63" stop-color="#2d054d"/><stop offset="0.91" stop-color="#150925"/><stop offset="1" stop-color="#0d0a16"/></radialGradient><pattern id="связист" data-name="связист" width="231.21" height="215.95" patternTransform="translate(1 84)" patternUnits="userSpaceOnUse" viewBox="0 0 231.21 215.95"><rect class="cls-1" width="231.21" height="215.95"/><path d="M133.63-63.71A20.92,20.92,0,0,1,128-57.28a62,62,0,0,1-13.54,7.94A127.79,127.79,0,0,1,100.21-44l-.63.21.32.67c1,2,2,4,3,6.08.13.26.23.41.57.38,5.08-.4,9.11,3,10.52,7.54a10.19,10.19,0,0,1-4,11.78c-.34.25-.3.51-.26.82a35,35,0,0,1,.31,7.16,14.52,14.52,0,0,1-1.71,6.45,8.45,8.45,0,0,1-7.68,4.29A23.17,23.17,0,0,1,91.14-.84a71.43,71.43,0,0,1-14.7-8.83,112.06,112.06,0,0,1-9.66-8.14c-.13-.12-.27-.23-.43-.36L61.56-11l.15.24C65.05-6.43,64.27-1,60.83,2.72a10.48,10.48,0,0,1-7.61,3.55,9.42,9.42,0,0,1-5.29-1.44.64.64,0,0,0-.83,0A28.25,28.25,0,0,1,39.74,9a11,11,0,0,1-7,.43,9.28,9.28,0,0,1-5.52-5,23.93,23.93,0,0,1-2.32-8.31,68.49,68.49,0,0,1,.53-18.48c.58-3.86,1.4-7.69,2.11-11.54a1.43,1.43,0,0,0,0-.25c-1.12-.06-2.21-.11-3.3-.19q-3.18-.23-6.38-.5c-.3,0-.46,0-.59.32C15-28.95,8.76-27.1,3.44-29.26a9.76,9.76,0,0,1-6.32-7.48A14.74,14.74,0,0,1-3-39.23a.69.69,0,0,0-.44-.72,24.93,24.93,0,0,1-7-4.9,9.16,9.16,0,0,1-2.88-6.88,10.66,10.66,0,0,1,2.48-6.08,30.63,30.63,0,0,1,7.81-6.81,90.85,90.85,0,0,1,18.27-8.77c2.15-.79,4.34-1.49,6.51-2.23l.42-.15L21.2-77.5c-.67-1.34-1.33-2.69-2-4a.61.61,0,0,0-.47-.28C12.57-80.88,8.05-85.17,7-90.37a10,10,0,0,1,4.75-11.07.51.51,0,0,0,.26-.63,39.45,39.45,0,0,1-.46-7.6,15.25,15.25,0,0,1,1.86-7.2A8.22,8.22,0,0,1,20.08-121a20.2,20.2,0,0,1,9.26,1.73,64.49,64.49,0,0,1,13.73,7.86,125.67,125.67,0,0,1,11.74,9.63l.47.42c1.61-2.39,3.18-4.76,4.79-7.16a10.59,10.59,0,0,1-2.41-3.94,10.08,10.08,0,0,1,1.89-9.78,10.36,10.36,0,0,1,8.73-4.22,9.78,9.78,0,0,1,5.49,1.9.69.69,0,0,0,.92,0,29.07,29.07,0,0,1,8-4.18,10.38,10.38,0,0,1,7.08,0,9.57,9.57,0,0,1,5.08,5.28A24.38,24.38,0,0,1,96.73-116a70.9,70.9,0,0,1-.29,16.6,135.14,135.14,0,0,1-2.34,13.7c0,.11,0,.22,0,.37,1.15.06,2.27.11,3.4.19,1.82.13,3.63.26,5.44.41.3,0,.46,0,.58-.33,2.25-5.74,8.37-7.59,13.58-5.66a9.81,9.81,0,0,1,6.81,8.38,7.88,7.88,0,0,1,0,1.61c0,.42.14.58.5.77,1.77.93,3.59,1.79,5.25,2.88a14.39,14.39,0,0,1,3.15,2.88C135.43-70.93,135.57-67.37,133.63-63.71ZM107.32-82.88c.25,2,.52,4,.79,6a.82.82,0,0,0,1,.77l10-1.34c.73-.09,1-.39.86-1.12-.26-2-.53-4-.79-6-.09-.65-.28-.87-.93-.85a12.44,12.44,0,0,0-1.92.24c-.92.16-.92.18-1.08-.74-.13-.72-.38-.89-1.11-.78l-2.86.37c-.61.08-.77.26-.75.87,0,.33.06.65.1,1.09-.17-.09-.35-.13-.35-.18,0-.69-.46-.58-.89-.51a5.27,5.27,0,0,1-.56,0c-.68.06-.79.17-.82.88C107.3-83.81,107.21-83.69,107.32-82.88ZM63.23-115.53a2.24,2.24,0,0,0,1.57,1.15c.09,0,.14.22.22.36l-.85.21,2.59,5.28.12,0,.94-5.74H67v-.15c.51,0,1-.09,1.53-.15,1.94-.23,3.32-1,3.73-3.2a6.07,6.07,0,0,1,.68-1.63,14.85,14.85,0,0,1,.89-1.36l-1.3-.07L73.6-123a3.1,3.1,0,0,0-2.86,1.54,1.21,1.21,0,0,1-1.25.55c-.13-.57-.25-1.11-.37-1.66a2.26,2.26,0,0,1-1.63,1.31c-.63.14-1.27.28-1.91.38-1.78.29-2.41,1.4-2.68,3A3.58,3.58,0,0,0,63.23-115.53ZM58.36-98.46a2.28,2.28,0,0,0,.22.28c4.16,4,8.11,8.26,11.89,12.64a1.7,1.7,0,0,0,1.63.7c5.7-.44,11.41-.65,17.13-.58.42,0,.57-.12.65-.54.66-3.57,1.41-7.13,2-10.71A78.09,78.09,0,0,0,93-112.46a27.61,27.61,0,0,0-1.14-7.34,14,14,0,0,0-.9-2.15,5.39,5.39,0,0,0-6.69-3,19.76,19.76,0,0,0-6.22,3l-1,.71c2.33,4.3,1.91,8.34-1.11,12-3.31,4-7.52,5.17-12.54,3.18ZM32.82-38.3c4.85,0,9.55-.08,14.24-.39L36.85-52C35.51-47.4,34.18-42.9,32.82-38.3ZM42-76.54c-4.64,1-9.22,2-13.88,3.37L35.64-61Zm9.91,37.05a2.89,2.89,0,0,0,.63.45c3-.33,5.74-.57,8.49-1,4.32-.6,8.62-1.29,12.93-1.93a.82.82,0,0,0,.7-.52q4.52-9.75,8.18-19.84a.79.79,0,0,0-.09-.81q-6.19-8.84-13.15-17.06a1,1,0,0,0-.65-.28c-.63,0-1.26.08-1.89.14-6.5.64-13,1.51-19.39,2.65a.94.94,0,0,0-.78.59q-4.48,9.69-8.13,19.73a.93.93,0,0,0,.13,1C43-50.54,47.33-44.9,51.94-39.49Zm27.63-3.43,13.94-3.36L86-58.5Zm9.28-38.43-14.34.41L84.79-67.59C86.13-72.15,87.46-76.66,88.85-81.35Zm-39.53-.86L66-84.43l-9.9-10.42Zm-33.62-23c.08.77.2,1.53.3,2.28,5.74-.1,9.32,2.16,11.09,7a10.4,10.4,0,0,1-4.18,12.68L26.11-77l.5-.12c5.55-1.57,11.16-2.86,16.82-4a1.53,1.53,0,0,0,1.26-.87c2.54-4.88,5.14-9.73,7.72-14.59.21-.39.44-.76.67-1.17-1.28-1.16-2.52-2.3-3.79-3.41A103.36,103.36,0,0,0,34-112.42a33.92,33.92,0,0,0-10-4.26,9.52,9.52,0,0,0-3.76-.14c-2.44.47-3.66,2.15-4.25,4.4A20.45,20.45,0,0,0,15.7-105.23Zm6.57,18.65c-.78-1.62-1.5-3.12-2.24-4.62a.47.47,0,0,1,.11-.67,14.88,14.88,0,0,0,1.29-1.22c.76-.8,1.49-1.64,2.11-2.33-1.27.17-2.78.36-4.28.57-.92.13-.91.15-1.32-.7-.65-1.36-1.31-2.72-2-4.19-.07.32-.12.51-.16.7-.26,1.46-.53,2.92-.77,4.38-.05.29-.15.41-.45.44-.81.08-1.62.2-2.43.32l-2.64.36a.49.49,0,0,0,0,.12l4.83,2.6c-.31,1.77-.62,3.5-.92,5.22l.13,0a3.61,3.61,0,0,0,.3-.25c1-1,2.11-2,3.13-3a.64.64,0,0,1,.94-.12c1.16.66,2.34,1.28,3.52,1.9C21.64-86.88,21.9-86.76,22.27-86.58ZM14.65-34.13c-.23-.36-.47-.71-.68-1.08-.34-.57-.64-1.17-1-1.74a3.81,3.81,0,0,0-3.57-1.93H8.86l0-.16a2.3,2.3,0,0,1,.32-.15,4.13,4.13,0,0,0,2.61-2,3,3,0,0,0-1.9-4.43,14.68,14.68,0,0,0-2-.25,8.06,8.06,0,0,1-3.14-.5L3.55-44.55A25.94,25.94,0,0,0,2-42.16a2.15,2.15,0,0,0,1,2.95,10,10,0,0,0,1.61.58c.25.08.55,0,.58.45s-.26.39-.49.47a3.85,3.85,0,0,0-2.23,1.82,2.79,2.79,0,0,0,2.45,4.18c-.41-.79-.36-1.33.23-1.71a1.27,1.27,0,0,0,.6-1.12,7.28,7.28,0,0,1,.11-1.32c.06-.24.3-.59.5-.63.89-.18,1.79-.26,2.73-.38a3.46,3.46,0,0,0,2,2.94C12.24-33.38,14-33.43,14.65-34.13ZM28.7-38.8c1.49-5.74,3.22-11.4,5.15-17a1,1,0,0,0-.1-.75q-5-7.35-9.38-15.06c-.17-.31-.32-.36-.65-.25a146.59,146.59,0,0,0-15.3,5.73A62.75,62.75,0,0,0-3.45-59.51a16.76,16.76,0,0,0-5,5.28,5.13,5.13,0,0,0,.46,6,17.61,17.61,0,0,0,6,4.51A10.16,10.16,0,0,1,9.4-49.18c5.43,1.11,8.47,4.48,8.87,10.1a1,1,0,0,0,.22,0c3.27.22,6.55.43,9.82.62C28.44-38.4,28.66-38.64,28.7-38.8ZM57.25-7.1a1.71,1.71,0,0,0,.11-.14L58.9-6.09l1.33-2.36c-1.37-1-2.68-2.06-4-3.05a1.82,1.82,0,0,0-1.6.22c-.3.36-.56.73-.87,1.12.23.18.44.34.64.51s.28.3.42.45l-.14.13-1.07-.78L52.44-8.34l1.05.85-.63.81-1.4-1.09,1.12-1.5a2,2,0,0,0-2.36-.83c-.4.12-.85.1-1.26.2a1.18,1.18,0,0,0-.63.34,14.56,14.56,0,0,0-1.45,1.91,13.62,13.62,0,0,0-.79,2,.34.34,0,0,0,.12.28l2,1.54c.35-.46.68-.87,1-1.32l1.35,1-.91,1.23.48.38C49.31-1.37,48.47-.27,47.6.86l2.18,1.76L52.39-.79l.68.47,1-1.32L57.39.86l1.74-2.27L55.5-4.19l.87-1.1,1,.73c.4-.53.76-1,1.14-1.5Zm6-14c-.32-.32-.55-.56-.79-.79q-6.06-6-11.62-12.45a.92.92,0,0,0-.91-.36c-.79.09-1.58.15-2.38.18q-7.56.22-15.13.43c-.4,0-.58.1-.67.52A134.69,134.69,0,0,0,28.88-15a52.44,52.44,0,0,0,.25,12.33,14.54,14.54,0,0,0,2.06,5.94,5.07,5.07,0,0,0,5.58,2.33,19.19,19.19,0,0,0,7.65-3.8.23.23,0,0,0,0-.1,10.16,10.16,0,0,1,.29-12.37,10.94,10.94,0,0,1,5.51-4,9.92,9.92,0,0,1,8.1.91Zm9-16.2L55.6-35.12c3.29,3.46,6.53,6.86,9.88,10.4Zm33.84,25c-.06-1.07-.17-2.13-.26-3.24a10.68,10.68,0,0,1-4.88-.18,9.66,9.66,0,0,1-4.18-2.43,10.88,10.88,0,0,1-2.63-4A10.93,10.93,0,0,1,93.76-29a10,10,0,0,1,5.3-6.47c-1.2-2.39-2.39-4.73-3.57-7.08l-.4.1c-5.71,1.59-11.48,2.95-17.31,4a.94.94,0,0,0-.71.61q-3.25,6.27-6.53,12.52c-.61,1.15-1.29,2.25-2,3.46.15.11.31.22.45.34,2.17,1.88,4.29,3.82,6.51,5.65A86.7,86.7,0,0,0,90.63-5.49a24,24,0,0,0,8.43,2.87c3.44.37,5.7-1,6.62-4.35A16.65,16.65,0,0,0,106.14-12.37ZM98.63-29.15c0,.73,0,1.38.79,1.8a27,27,0,0,1,2.46,1.64c.14.1.27.22.45.37-.44.29-.88.57-.58,1.08a5.65,5.65,0,0,0,.89,1l-.1.15a1.27,1.27,0,0,0,.37,2.06.48.48,0,0,1,0,.84.84.84,0,0,0-.29,1.26l3-.4a3,3,0,0,0-.32-.89,3.19,3.19,0,0,0-.88-.47c1.21-.23,1.65-.5,1.54-.94-.23-.83-1-.67-1.73-.7a5.06,5.06,0,0,0,.4-1.35,4,4,0,0,0-.35-1.22,12.35,12.35,0,0,0,2-.86,4.84,4.84,0,0,0,2.43-4.73,3.74,3.74,0,0,0-4.18-3.26,5.77,5.77,0,0,0-3.25,1.31,1.56,1.56,0,0,0-.16,2.53l1.09-.71v.75a.77.77,0,0,0,.58-.9A1.37,1.37,0,0,1,104-32.42a2.54,2.54,0,0,1,3.21,3.05,2.3,2.3,0,0,1-1.54,1.9c.63-.8,1.67-1.44.95-2.74Zm30.74-42.58a19.34,19.34,0,0,0-6.51-4.46A10.33,10.33,0,0,1,111-70.76c-5.08-1.25-8-4.49-8.4-9.86l-9.52-.6c-.06.18-.1.28-.13.39q-2.19,8.56-5.12,16.91A1.13,1.13,0,0,0,88-62.81q3.67,5.72,7.3,11.44c.78,1.24,1.48,2.53,2.22,3.81.13,0,.24-.06.34-.1a139.31,139.31,0,0,0,15.6-5.85,61.07,61.07,0,0,0,11.88-6.73,17.66,17.66,0,0,0,4.55-4.69A5.23,5.23,0,0,0,129.37-71.73Z"/><path d="M364.85-63.71a21,21,0,0,1-5.68,6.43,61.72,61.72,0,0,1-13.54,7.94A128.39,128.39,0,0,1,331.43-44l-.63.21c.12.25.21.46.32.67,1,2,2,4,3,6.08.13.26.24.41.57.38,5.08-.4,9.11,3,10.52,7.54a10.2,10.2,0,0,1-3.94,11.78c-.35.25-.3.51-.26.82a35,35,0,0,1,.3,7.16,14.52,14.52,0,0,1-1.71,6.45,8.44,8.44,0,0,1-7.67,4.29,23.18,23.18,0,0,1-9.58-2.22,71.7,71.7,0,0,1-14.7-8.83A115.18,115.18,0,0,1,298-17.81l-.42-.36L292.77-11c0,.06.09.15.16.24C296.26-6.43,295.48-1,292,2.72a10.46,10.46,0,0,1-7.6,3.55,9.42,9.42,0,0,1-5.29-1.44.64.64,0,0,0-.83,0A28.31,28.31,0,0,1,271,9a11,11,0,0,1-7,.43,9.33,9.33,0,0,1-5.52-5,23.93,23.93,0,0,1-2.32-8.31,69.31,69.31,0,0,1,.53-18.48c.58-3.86,1.4-7.69,2.11-11.54a1.14,1.14,0,0,0,0-.25c-1.13-.06-2.22-.11-3.3-.19q-3.19-.23-6.39-.5c-.29,0-.46,0-.59.32-2.33,5.63-8.53,7.48-13.85,5.32a9.73,9.73,0,0,1-6.31-7.48,13.78,13.78,0,0,1-.17-2.49.68.68,0,0,0-.44-.72,24.74,24.74,0,0,1-7-4.9,9.17,9.17,0,0,1-2.89-6.88,10.67,10.67,0,0,1,2.49-6.08,30.47,30.47,0,0,1,7.81-6.81,90.77,90.77,0,0,1,18.26-8.77c2.15-.79,4.34-1.49,6.52-2.23l.41-.15-.88-1.73c-.67-1.34-1.33-2.69-2-4a.63.63,0,0,0-.48-.28c-6.13.93-10.65-3.36-11.73-8.56a10,10,0,0,1,4.75-11.07.51.51,0,0,0,.27-.63,37.92,37.92,0,0,1-.46-7.6,15.24,15.24,0,0,1,1.85-7.2,8.22,8.22,0,0,1,6.69-4.11,20.15,20.15,0,0,1,9.26,1.73,64,64,0,0,1,13.73,7.86A125.8,125.8,0,0,1,286-101.76c.14.14.3.27.47.42l4.78-7.16a10.44,10.44,0,0,1-2.4-3.94,10.06,10.06,0,0,1,1.89-9.78,10.34,10.34,0,0,1,8.72-4.22,9.81,9.81,0,0,1,5.5,1.9.68.68,0,0,0,.91,0,29.22,29.22,0,0,1,8-4.18,10.41,10.41,0,0,1,7.09,0,9.55,9.55,0,0,1,5.07,5.28A24.68,24.68,0,0,1,328-116a71.45,71.45,0,0,1-.3,16.6,138,138,0,0,1-2.33,13.7,1.9,1.9,0,0,0,0,.37c1.14.06,2.27.11,3.4.19,1.81.13,3.62.26,5.44.41a.47.47,0,0,0,.58-.33c2.24-5.74,8.37-7.59,13.58-5.66a9.78,9.78,0,0,1,6.8,8.38,8.67,8.67,0,0,1,0,1.61c0,.42.13.58.49.77,1.78.93,3.6,1.79,5.26,2.88A14.56,14.56,0,0,1,364-74.21C366.65-70.93,366.79-67.37,364.85-63.71ZM338.53-82.88c.25,2,.52,4,.79,6a.83.83,0,0,0,1.06.77l10-1.34c.73-.09,1-.39.87-1.12q-.39-3-.8-6c-.08-.65-.28-.87-.92-.85a12.57,12.57,0,0,0-1.93.24c-.92.16-.92.18-1.07-.74-.13-.72-.38-.89-1.11-.78l-2.87.37c-.6.08-.77.26-.75.87,0,.33.06.65.11,1.09-.18-.09-.35-.13-.35-.18,0-.69-.47-.58-.9-.51a5.09,5.09,0,0,1-.55,0c-.69.06-.8.17-.82.88C338.52-83.81,338.43-83.69,338.53-82.88Zm-44.08-32.65a2.23,2.23,0,0,0,1.56,1.15c.09,0,.14.22.22.36l-.85.21c.88,1.8,1.74,3.54,2.6,5.28l.11,0,.94-5.74h-.86v-.15c.51,0,1-.09,1.53-.15,1.93-.23,3.32-1,3.72-3.2a6.41,6.41,0,0,1,.68-1.63c.24-.45.56-.85.89-1.36l-1.3-.07c.39-.73.74-1.4,1.13-2.12a3.1,3.1,0,0,0-2.87,1.54,1.2,1.2,0,0,1-1.25.55c-.12-.57-.24-1.11-.36-1.66a2.3,2.3,0,0,1-1.63,1.31c-.64.14-1.27.28-1.91.38-1.78.29-2.42,1.4-2.68,3A3.52,3.52,0,0,0,294.45-115.53Zm-4.88,17.07c.11.14.16.22.22.28,4.17,4,8.11,8.26,11.9,12.64a1.67,1.67,0,0,0,1.62.7c5.7-.44,11.41-.65,17.13-.58.42,0,.58-.12.65-.54.66-3.57,1.41-7.13,2-10.71a77.37,77.37,0,0,0,1.11-15.79,27.22,27.22,0,0,0-1.14-7.34,14,14,0,0,0-.9-2.15,5.38,5.38,0,0,0-6.68-3,19.76,19.76,0,0,0-6.22,3l-1,.71c2.33,4.3,1.9,8.34-1.12,12-3.31,4-7.52,5.17-12.53,3.18ZM264-38.3c4.85,0,9.56-.08,14.24-.39L268.07-52Zm9.22-38.24c-4.64,1-9.22,2-13.89,3.37L266.85-61C269-66.27,271.13-71.39,273.25-76.54Zm9.91,37.05a2.49,2.49,0,0,0,.63.45c3-.33,5.74-.57,8.49-1,4.31-.6,8.62-1.29,12.93-1.93a.82.82,0,0,0,.69-.52q4.53-9.75,8.18-19.84a.77.77,0,0,0-.09-.81q-6.19-8.84-13.15-17.06a1,1,0,0,0-.64-.28c-.64,0-1.26.08-1.89.14-6.5.64-13,1.51-19.4,2.65a.93.93,0,0,0-.77.59q-4.5,9.69-8.14,19.73a.91.91,0,0,0,.14,1C274.23-50.54,278.55-44.9,283.16-39.49Zm27.62-3.43,13.94-3.36c-2.56-4.17-5-8.17-7.51-12.22Zm9.28-38.43-14.34.41L316-67.59C317.35-72.15,318.68-76.66,320.06-81.35Zm-39.53-.86,16.72-2.22-9.91-10.42C285-90.54,282.8-86.41,280.53-82.21Zm-33.61-23c.08.77.19,1.53.29,2.28,5.74-.1,9.32,2.16,11.1,7a10.41,10.41,0,0,1-4.18,12.68l3.2,6.32.49-.12c5.55-1.57,11.16-2.86,16.82-4a1.53,1.53,0,0,0,1.26-.87c2.55-4.88,5.14-9.73,7.72-14.59.21-.39.44-.76.68-1.17-1.29-1.16-2.53-2.3-3.8-3.41a102.33,102.33,0,0,0-15.32-11.34,33.86,33.86,0,0,0-10-4.26,9.53,9.53,0,0,0-3.76-.14c-2.45.47-3.67,2.15-4.25,4.4A20,20,0,0,0,246.92-105.23Zm6.57,18.65c-.79-1.62-1.5-3.12-2.24-4.62a.46.46,0,0,1,.1-.67,16.61,16.61,0,0,0,1.3-1.22c.75-.8,1.48-1.64,2.1-2.33l-4.28.57c-.92.13-.91.15-1.31-.7l-2-4.19c-.07.32-.12.51-.15.7-.26,1.46-.53,2.92-.78,4.38,0,.29-.15.41-.44.44-.82.08-1.62.2-2.43.32l-2.65.36a.49.49,0,0,1,0,.12l4.84,2.6c-.31,1.77-.62,3.5-.92,5.22l.13,0c.09-.08.2-.16.29-.25,1.05-1,2.11-2,3.13-3a.65.65,0,0,1,.94-.12c1.16.66,2.35,1.28,3.53,1.9C252.86-86.88,253.12-86.76,253.49-86.58Zm-7.62,52.45c-.23-.36-.48-.71-.69-1.08-.34-.57-.63-1.17-1-1.74a3.82,3.82,0,0,0-3.58-1.93h-.55c0-.06,0-.11,0-.16a1.77,1.77,0,0,1,.31-.15,4.13,4.13,0,0,0,2.61-2,3,3,0,0,0-1.9-4.43,14.28,14.28,0,0,0-2-.25,8.06,8.06,0,0,1-3.14-.5l-1.18,1.84a24,24,0,0,0-1.51,2.39,2.14,2.14,0,0,0,1,2.95,9.85,9.85,0,0,0,1.6.58c.25.08.55,0,.58.45s-.26.39-.48.47a3.82,3.82,0,0,0-2.23,1.82,2.78,2.78,0,0,0,2.44,4.18c-.41-.79-.36-1.33.24-1.71a1.27,1.27,0,0,0,.6-1.12,7.27,7.27,0,0,1,.1-1.32c.06-.24.3-.59.51-.63.88-.18,1.79-.26,2.72-.38a3.49,3.49,0,0,0,2,2.94C243.45-33.38,245.21-33.43,245.87-34.13Zm14-4.67c1.49-5.74,3.22-11.4,5.15-17a1,1,0,0,0-.1-.75c-3.33-4.9-6.47-9.91-9.37-15.06-.17-.31-.32-.36-.66-.25a146.42,146.42,0,0,0-15.29,5.73,62.75,62.75,0,0,0-11.87,6.63,16.91,16.91,0,0,0-5,5.28,5.12,5.12,0,0,0,.47,6,17.52,17.52,0,0,0,6,4.51,10.15,10.15,0,0,1,11.36-5.49c5.43,1.11,8.48,4.48,8.88,10.1a.8.8,0,0,0,.21,0c3.28.22,6.55.43,9.83.62C259.65-38.4,259.87-38.64,259.91-38.8ZM288.46-7.1a.76.76,0,0,0,.11-.14l1.54,1.15,1.33-2.36c-1.36-1-2.68-2.06-4-3.05a1.82,1.82,0,0,0-1.6.22c-.29.36-.56.73-.86,1.12.23.18.44.34.63.51s.28.3.42.45l-.13.13c-.35-.24-.69-.49-1.08-.78l-1.15,1.51,1.06.85-.64.81-1.4-1.09,1.12-1.5a2,2,0,0,0-2.35-.83c-.41.12-.85.1-1.27.2a1.26,1.26,0,0,0-.63.34,15.49,15.49,0,0,0-1.45,1.91,12.53,12.53,0,0,0-.78,2,.34.34,0,0,0,.12.28l2,1.54c.35-.46.68-.87,1-1.32l1.36,1-.92,1.23.49.38L278.81.86,281,2.62l2.62-3.41.68.47,1-1.32,3.29,2.5,1.73-2.27-3.62-2.78.86-1.1,1,.73,1.15-1.5Zm6-14c-.31-.32-.54-.56-.78-.79q-6.06-6-11.63-12.45a.9.9,0,0,0-.9-.36c-.79.09-1.59.15-2.39.18q-7.56.22-15.13.43c-.4,0-.57.1-.66.52A134.71,134.71,0,0,0,260.09-15a53,53,0,0,0,.25,12.33,14.69,14.69,0,0,0,2.06,5.94A5.08,5.08,0,0,0,268,5.62a19.19,19.19,0,0,0,7.65-3.8s0-.06.05-.1A10.14,10.14,0,0,1,276-10.65a11,11,0,0,1,5.51-4,9.91,9.91,0,0,1,8.1.91Zm9-16.2-16.7,2.21c3.3,3.46,6.53,6.86,9.89,10.4C299-29,301.25-33.16,303.51-37.33Zm33.85,25c-.07-1.07-.18-2.13-.27-3.24a10.65,10.65,0,0,1-4.87-.18A9.69,9.69,0,0,1,328-18.22a10.88,10.88,0,0,1-2.63-4A11,11,0,0,1,325-29a10.08,10.08,0,0,1,5.3-6.47l-3.56-7.08-.4.1c-5.72,1.59-11.48,2.95-17.32,4a.91.91,0,0,0-.7.61c-2.18,4.18-4.34,8.36-6.54,12.52-.6,1.15-1.28,2.25-2,3.46.15.11.3.22.44.34,2.17,1.88,4.3,3.82,6.52,5.65A86,86,0,0,0,321.85-5.49a24,24,0,0,0,8.42,2.87c3.45.37,5.7-1,6.62-4.35A16.93,16.93,0,0,0,337.36-12.37Zm-7.52-16.78c0,.73,0,1.38.8,1.8a28.26,28.26,0,0,1,2.45,1.64,5.76,5.76,0,0,1,.45.37c-.43.29-.87.57-.57,1.08a5.2,5.2,0,0,0,.88,1,.63.63,0,0,1-.1.15,1.28,1.28,0,0,0,.37,2.06.47.47,0,0,1,0,.84.83.83,0,0,0-.28,1.26l3-.4a3,3,0,0,0-.33-.89,3.19,3.19,0,0,0-.88-.47c1.22-.23,1.66-.5,1.54-.94-.22-.83-1-.67-1.73-.7a4.76,4.76,0,0,0,.41-1.35,4.29,4.29,0,0,0-.36-1.22,12,12,0,0,0,2-.86,4.8,4.8,0,0,0,2.43-4.73,3.73,3.73,0,0,0-4.18-3.26,5.8,5.8,0,0,0-3.25,1.31A1.56,1.56,0,0,0,332.3-30l1.1-.71v.75a.77.77,0,0,0,.58-.9,1.37,1.37,0,0,1,1.22-1.58,2.53,2.53,0,0,1,3.2,3.05,2.27,2.27,0,0,1-1.54,1.9c.64-.8,1.68-1.44.95-2.74Zm30.74-42.58a19.3,19.3,0,0,0-6.5-4.46,10.34,10.34,0,0,1-11.87,5.43c-5.08-1.25-7.94-4.49-8.39-9.86l-9.52-.6a4,4,0,0,0-.14.39Q322-72.27,319-63.92a1.11,1.11,0,0,0,.17,1.11q3.66,5.72,7.29,11.44c.78,1.24,1.48,2.53,2.23,3.81l.34-.1a140.79,140.79,0,0,0,15.6-5.85,60.7,60.7,0,0,0,11.87-6.73,17.5,17.5,0,0,0,4.55-4.69A5.22,5.22,0,0,0,360.58-71.73Z"/><path d="M10.8,57.87a20.71,20.71,0,0,1-5.61,6.36,61.44,61.44,0,0,1-13.4,7.85,127.51,127.51,0,0,1-14,5.28l-.63.2.32.67,3,6c.13.25.23.4.56.37,5-.39,9,2.93,10.41,7.46a10.09,10.09,0,0,1-3.9,11.65c-.35.25-.3.51-.26.81a34.93,34.93,0,0,1,.3,7.08A14.34,14.34,0,0,1-14.17,118a8.34,8.34,0,0,1-7.59,4.25,22.78,22.78,0,0,1-9.47-2.2,70.62,70.62,0,0,1-14.54-8.74,108,108,0,0,1-9.56-8c-.13-.12-.27-.23-.42-.35-1.59,2.37-3.15,4.72-4.75,7.1a2,2,0,0,0,.16.23c3.29,4.28,2.52,9.67-.88,13.33a10.32,10.32,0,0,1-7.52,3.51A9.3,9.3,0,0,1-74,125.65a.64.64,0,0,0-.83,0,28.21,28.21,0,0,1-7.28,4,10.78,10.78,0,0,1-6.91.42,9.24,9.24,0,0,1-5.47-5A23.62,23.62,0,0,1-96.75,117a68.18,68.18,0,0,1,.53-18.27c.57-3.82,1.38-7.61,2.09-11.41,0-.06,0-.11,0-.25-1.11-.06-2.19-.11-3.27-.19-2.1-.15-4.21-.32-6.31-.5-.29,0-.45,0-.58.32-2.31,5.57-8.44,7.39-13.7,5.26a9.65,9.65,0,0,1-6.25-7.4,12.67,12.67,0,0,1-.16-2.47.66.66,0,0,0-.44-.7,24.38,24.38,0,0,1-7-4.86,9.06,9.06,0,0,1-2.86-6.8,10.5,10.5,0,0,1,2.46-6A30.33,30.33,0,0,1-124.47,57a89.9,89.9,0,0,1,18.07-8.67c2.13-.78,4.3-1.47,6.45-2.21l.41-.15c-.3-.58-.59-1.14-.87-1.71-.66-1.32-1.31-2.66-2-4a.63.63,0,0,0-.48-.28c-6.06.92-10.53-3.32-11.6-8.47a9.89,9.89,0,0,1,4.7-10.95.5.5,0,0,0,.27-.62,38.63,38.63,0,0,1-.46-7.52,15.15,15.15,0,0,1,1.84-7.12,8.11,8.11,0,0,1,6.62-4.06,19.77,19.77,0,0,1,9.16,1.71,64.17,64.17,0,0,1,13.58,7.77,127.51,127.51,0,0,1,11.61,9.53l.47.41L-62,13.56a10.53,10.53,0,0,1-2.38-3.9A10,10,0,0,1-62.47,0,10.29,10.29,0,0,1-53.83-4.2,9.76,9.76,0,0,1-48.4-2.31a.67.67,0,0,0,.91,0,28,28,0,0,1,7.86-4.13,10.24,10.24,0,0,1,7,0,9.47,9.47,0,0,1,5,5.23,24.44,24.44,0,0,1,1.91,7.37A70.47,70.47,0,0,1-26,22.55,135,135,0,0,1-28.3,36.1a3.46,3.46,0,0,0,0,.37l3.36.18,5.38.41c.29,0,.45,0,.57-.33,2.22-5.67,8.28-7.5,13.44-5.59a9.69,9.69,0,0,1,6.73,8.29,8.43,8.43,0,0,1,0,1.59.73.73,0,0,0,.49.77,56.65,56.65,0,0,1,5.2,2.84A14.28,14.28,0,0,1,10,47.48C12.59,50.72,12.72,54.24,10.8,57.87Zm-26-19q.39,3,.79,5.94a.81.81,0,0,0,1,.77l9.92-1.32c.72-.1,1-.39.85-1.12l-.78-5.94c-.09-.64-.28-.86-.92-.84a12.17,12.17,0,0,0-1.9.23c-.91.17-.91.18-1.07-.73-.13-.71-.37-.87-1.09-.77l-2.84.37c-.59.07-.76.26-.74.86,0,.32.06.65.1,1.08-.17-.09-.34-.14-.34-.18,0-.68-.46-.57-.89-.51a4.89,4.89,0,0,1-.55,0c-.67.05-.78.16-.81.87C-15.24,38-15.33,38.1-15.23,38.9ZM-58.83,6.6a2.24,2.24,0,0,0,1.55,1.14c.09,0,.14.22.22.35l-.84.21,2.56,5.22.12,0c.31-1.87.61-3.74.93-5.68h-.86V7.64c.51,0,1-.08,1.52-.14,1.91-.23,3.28-1,3.68-3.16a6.1,6.1,0,0,1,.67-1.61,15.31,15.31,0,0,1,.88-1.35l-1.28-.07,1.11-2.09A3.05,3.05,0,0,0-51.41.73a1.17,1.17,0,0,1-1.23.55C-52.76.72-52.88.18-53-.36A2.22,2.22,0,0,1-54.61.93c-.63.14-1.26.28-1.89.38-1.76.28-2.39,1.39-2.66,2.93A3.58,3.58,0,0,0-58.83,6.6Zm-4.82,16.89a1.89,1.89,0,0,0,.22.27c4.12,4,8,8.17,11.76,12.51a1.7,1.7,0,0,0,1.61.69c5.64-.44,11.29-.65,16.94-.58.42,0,.57-.12.64-.52.66-3.54,1.4-7.06,2-10.6A77.08,77.08,0,0,0-29.41,9.64a27.07,27.07,0,0,0-1.12-7.26A14.73,14.73,0,0,0-31.42.25,5.33,5.33,0,0,0-38-2.69a19.62,19.62,0,0,0-6.15,3c-.34.23-.68.48-1,.7,2.31,4.25,1.89,8.26-1.1,11.85-3.28,4-7.44,5.12-12.4,3.15ZM-88.92,83c4.8.05,9.45-.08,14.09-.38l-10.1-13.13C-86.26,74-87.57,78.44-88.92,83Zm9.12-37.82c-4.59.95-9.12,2-13.74,3.33,2.51,4.06,5,8,7.41,12ZM-70,81.82a2.88,2.88,0,0,0,.62.44c2.93-.32,5.68-.57,8.4-.94,4.27-.59,8.52-1.27,12.79-1.91a.81.81,0,0,0,.69-.51q4.47-9.65,8.09-19.63a.78.78,0,0,0-.09-.8q-6.12-8.73-13-16.87a.92.92,0,0,0-.63-.28c-.63,0-1.25.08-1.87.14-6.43.63-12.83,1.49-19.19,2.62a.93.93,0,0,0-.77.58q-4.44,9.59-8,19.52a.91.91,0,0,0,.13.95C-78.84,70.88-74.56,76.46-70,81.82Zm27.32-3.4,13.79-3.31C-31.42,71-33.86,67-36.32,63Zm9.19-38-14.19.41c3.43,4.45,6.76,8.77,10.17,13.21C-36.18,49.51-34.86,45.05-33.49,40.41Zm-39.1-.85,16.53-2.2c-3.25-3.42-6.46-6.8-9.8-10.3Zm-33.25-22.77c.07.75.19,1.51.28,2.25,5.68-.1,9.22,2.14,11,6.91a10.27,10.27,0,0,1-4.14,12.53l3.17,6.26.49-.12c5.49-1.55,11-2.83,16.64-3.91a1.54,1.54,0,0,0,1.25-.86c2.51-4.82,5.08-9.62,7.63-14.43.21-.39.44-.75.67-1.16-1.27-1.14-2.5-2.27-3.75-3.37A102.09,102.09,0,0,0-87.78,9.67a33.38,33.38,0,0,0-9.86-4.21,9.51,9.51,0,0,0-3.72-.14c-2.42.47-3.62,2.12-4.21,4.35A20,20,0,0,0-105.84,16.79Zm6.5,18.44c-.79-1.6-1.49-3.09-2.22-4.57a.46.46,0,0,1,.1-.66c.44-.38.88-.78,1.28-1.2.75-.8,1.47-1.62,2.08-2.31-1.25.17-2.74.35-4.23.57-.91.12-.9.14-1.3-.7-.64-1.35-1.3-2.69-2-4.15-.07.32-.12.51-.16.7-.25,1.44-.52,2.88-.76,4.33,0,.28-.15.4-.44.44-.81.08-1.61.2-2.4.31l-2.62.36a.45.45,0,0,0,0,.11l4.78,2.58c-.31,1.75-.61,3.46-.91,5.17l.13,0c.09-.08.2-.15.29-.24,1-1,2.09-2,3.1-3a.63.63,0,0,1,.93-.12c1.15.65,2.32,1.26,3.48,1.88Zm-7.55,51.89c-.23-.36-.47-.71-.68-1.07-.33-.57-.63-1.16-1-1.72a3.77,3.77,0,0,0-3.54-1.92c-.18,0-.36,0-.54,0l0-.16a1.48,1.48,0,0,1,.32-.14,4.12,4.12,0,0,0,2.58-2,3,3,0,0,0-1.88-4.38,14.19,14.19,0,0,0-2-.25,7.91,7.91,0,0,1-3.11-.5l-1.17,1.82a26.82,26.82,0,0,0-1.49,2.37,2.12,2.12,0,0,0,1,2.92,10,10,0,0,0,1.59.57c.24.08.54,0,.57.44s-.26.39-.48.47a3.83,3.83,0,0,0-2.21,1.81,2.76,2.76,0,0,0,2.42,4.13c-.41-.79-.35-1.32.23-1.7a1.23,1.23,0,0,0,.6-1.1,7.23,7.23,0,0,1,.1-1.31c.06-.24.3-.58.5-.62.87-.18,1.77-.26,2.7-.38a3.42,3.42,0,0,0,2,2.91C-109.28,87.85-107.54,87.81-106.89,87.12ZM-93,82.5q2.22-8.52,5.1-16.83a1,1,0,0,0-.1-.74c-3.29-4.84-6.4-9.8-9.27-14.9-.17-.31-.32-.35-.65-.25A145.61,145.61,0,0,0-113,55.45,61.94,61.94,0,0,0-124.79,62a16.52,16.52,0,0,0-5,5.22,5.06,5.06,0,0,0,.46,6,17.37,17.37,0,0,0,6,4.47,10.06,10.06,0,0,1,11.25-5.44c5.37,1.1,8.38,4.43,8.77,10l.21,0c3.25.21,6.48.43,9.72.61C-93.25,82.89-93,82.66-93,82.5Zm28.24,31.36a1.71,1.71,0,0,1,.11-.14l1.52,1.13,1.32-2.33c-1.35-1-2.65-2-4-3a1.82,1.82,0,0,0-1.58.22c-.29.35-.56.72-.85,1.11.22.18.43.33.62.5s.28.3.42.45l-.14.13-1.06-.78c-.4.53-.76,1-1.14,1.49l1,.85c-.23.28-.43.54-.63.8l-1.38-1.08,1.1-1.48a2,2,0,0,0-2.33-.82c-.4.11-.84.09-1.25.19a1.2,1.2,0,0,0-.62.35A13.77,13.77,0,0,0-75,113.31a12.87,12.87,0,0,0-.77,2,.32.32,0,0,0,.11.27c.65.51,1.31,1,2,1.53l1-1.31c.46.37.9.7,1.34,1l-.91,1.22.48.37c-.85,1.13-1.69,2.22-2.54,3.34l2.15,1.74,2.59-3.37.67.46,1-1.31,3.25,2.48c.59-.77,1.15-1.49,1.72-2.25l-3.59-2.75.86-1.08,1,.72,1.13-1.49Zm6-13.88c-.31-.32-.54-.56-.78-.79-4-4-7.84-8-11.5-12.31a.9.9,0,0,0-.89-.36c-.78.09-1.57.15-2.36.18l-15,.43c-.39,0-.56.09-.66.51a133.08,133.08,0,0,0-2.85,18.42,51.79,51.79,0,0,0,.25,12.19,14.48,14.48,0,0,0,2,5.88,5,5,0,0,0,5.52,2.3,18.79,18.79,0,0,0,7.57-3.76.25.25,0,0,0,0-.09,10.05,10.05,0,0,1,.29-12.24,10.94,10.94,0,0,1,5.45-3.93,9.79,9.79,0,0,1,8,.91Zm8.94-16-16.52,2.19,9.78,10.28Zm33.47,24.7c-.05-1.06-.16-2.11-.26-3.21a10.57,10.57,0,0,1-4.82-.18,9.62,9.62,0,0,1-4.14-2.4,11,11,0,0,1-2.6-4,10.83,10.83,0,0,1-.42-6.7,9.92,9.92,0,0,1,5.24-6.4c-1.19-2.36-2.36-4.68-3.52-7l-.4.1q-8.48,2.37-17.13,4a1,1,0,0,0-.7.6c-2.15,4.13-4.29,8.27-6.46,12.38-.6,1.14-1.27,2.23-2,3.43.14.11.3.21.43.33,2.15,1.86,4.25,3.78,6.45,5.59a84.51,84.51,0,0,0,15,10.25,23.67,23.67,0,0,0,8.33,2.84c3.4.36,5.64-1,6.55-4.3A16.55,16.55,0,0,0-16.4,108.65Zm-7.43-16.6c0,.72,0,1.36.79,1.78a26.3,26.3,0,0,1,2.43,1.62c.14.1.27.22.45.37-.43.28-.87.56-.57,1.07a5.42,5.42,0,0,0,.87.94L-20,98a1.26,1.26,0,0,0,.37,2,.47.47,0,0,1,0,.83.83.83,0,0,0-.28,1.25l3-.4a2.51,2.51,0,0,0-.32-.87c-.17-.21-.5-.28-.87-.47,1.2-.23,1.64-.49,1.52-.93-.22-.82-.93-.66-1.7-.7a4.79,4.79,0,0,0,.39-1.33,4.19,4.19,0,0,0-.34-1.21,12,12,0,0,0,1.95-.85,4.74,4.74,0,0,0,2.4-4.68A3.68,3.68,0,0,0-18,87.43a5.73,5.73,0,0,0-3.21,1.29,1.55,1.55,0,0,0-.16,2.51l1.08-.71v.74a.74.74,0,0,0,.57-.88,1.37,1.37,0,0,1,1.21-1.57,2.51,2.51,0,0,1,3.17,3,2.25,2.25,0,0,1-1.52,1.88c.63-.79,1.66-1.42.94-2.71ZM6.58,49.94A19,19,0,0,0,.15,45.52a10.23,10.23,0,0,1-11.74,5.37c-5-1.24-7.85-4.44-8.3-9.76l-9.41-.59c-.07.18-.11.28-.14.38q-2.16,8.49-5.06,16.73a1.14,1.14,0,0,0,.16,1.11q3.63,5.64,7.21,11.31c.78,1.22,1.47,2.5,2.2,3.76l.34-.09A137,137,0,0,0-9.16,68,59.71,59.71,0,0,0,2.59,61.3a17.43,17.43,0,0,0,4.5-4.64A5.15,5.15,0,0,0,6.58,49.94Z"/><path d="M133.63,152.24a21,21,0,0,1-5.67,6.43,61.91,61.91,0,0,1-13.54,7.93A127.85,127.85,0,0,1,100.21,172l-.63.2.32.67q1.51,3,3,6.09c.13.25.23.4.57.38,5.08-.4,9.11,3,10.52,7.54a10.19,10.19,0,0,1-4,11.78c-.34.24-.3.51-.26.81a35.1,35.1,0,0,1,.31,7.17,14.52,14.52,0,0,1-1.71,6.44,8.43,8.43,0,0,1-7.68,4.3,23,23,0,0,1-9.57-2.23,71.43,71.43,0,0,1-14.7-8.83,112,112,0,0,1-9.66-8.13,3.9,3.9,0,0,0-.43-.36L61.56,205c0,.06.09.15.15.23,3.34,4.33,2.56,9.78-.88,13.48a10.52,10.52,0,0,1-7.61,3.55,9.51,9.51,0,0,1-5.29-1.45.63.63,0,0,0-.83,0,28.85,28.85,0,0,1-7.36,4.09,11,11,0,0,1-7,.43,9.33,9.33,0,0,1-5.52-5A23.81,23.81,0,0,1,24.91,212a68.43,68.43,0,0,1,.53-18.47c.58-3.87,1.4-7.7,2.11-11.54a1.49,1.49,0,0,0,0-.25c-1.12-.07-2.21-.11-3.3-.19-2.12-.16-4.25-.32-6.38-.5-.3,0-.46,0-.59.32C15,187,8.76,188.84,3.44,186.68a9.75,9.75,0,0,1-6.32-7.47,14.93,14.93,0,0,1-.16-2.5.68.68,0,0,0-.44-.71,25,25,0,0,1-7-4.91,9.16,9.16,0,0,1-2.88-6.87,10.69,10.69,0,0,1,2.48-6.09,30.63,30.63,0,0,1,7.81-6.81,90.81,90.81,0,0,1,18.27-8.76c2.15-.8,4.34-1.49,6.51-2.24l.42-.15-.88-1.73c-.67-1.34-1.33-2.69-2-4a.59.59,0,0,0-.47-.29c-6.14.94-10.66-3.35-11.73-8.56a10,10,0,0,1,4.75-11.07.5.5,0,0,0,.26-.62,39.56,39.56,0,0,1-.46-7.61,15.18,15.18,0,0,1,1.86-7.19A8.2,8.2,0,0,1,20.08,95a20.07,20.07,0,0,1,9.26,1.73,64.88,64.88,0,0,1,13.73,7.85,127.38,127.38,0,0,1,11.74,9.64l.47.41c1.61-2.39,3.18-4.76,4.79-7.15a10.67,10.67,0,0,1-2.41-3.94,10.1,10.1,0,0,1,1.89-9.79,10.41,10.41,0,0,1,8.73-4.22,9.86,9.86,0,0,1,5.49,1.9.67.67,0,0,0,.92,0,28.77,28.77,0,0,1,8-4.17,10.32,10.32,0,0,1,7.08,0,9.55,9.55,0,0,1,5.08,5.29,24.31,24.31,0,0,1,1.93,7.45,70.92,70.92,0,0,1-.29,16.6,135.14,135.14,0,0,1-2.34,13.7c0,.11,0,.22,0,.37,1.15.06,2.27.11,3.4.19,1.82.12,3.63.26,5.44.41.3,0,.46,0,.58-.34,2.25-5.73,8.37-7.58,13.58-5.65a9.8,9.8,0,0,1,6.81,8.37,7.88,7.88,0,0,1,0,1.61.73.73,0,0,0,.5.78,56.76,56.76,0,0,1,5.25,2.88,13.91,13.91,0,0,1,3.15,2.88C135.43,145,135.57,148.57,133.63,152.24Zm-26.31-19.17c.25,2,.52,4,.79,6a.82.82,0,0,0,1,.78l10-1.34c.73-.1,1-.39.86-1.13-.26-2-.53-4-.79-6-.09-.65-.28-.88-.93-.86a13.8,13.8,0,0,0-1.92.24c-.92.17-.92.18-1.08-.73-.13-.72-.38-.89-1.11-.79l-2.86.38c-.61.07-.77.26-.75.86,0,.33.06.66.1,1.1-.17-.09-.35-.14-.35-.19,0-.68-.46-.57-.89-.51a5.29,5.29,0,0,1-.56.05c-.68.06-.79.17-.82.88C107.3,132.13,107.21,132.26,107.32,133.07ZM63.23,100.42a2.23,2.23,0,0,0,1.57,1.14c.09,0,.14.23.22.37l-.85.2c.88,1.81,1.74,3.55,2.59,5.28l.12,0,.94-5.74H67v-.16c.51,0,1-.08,1.53-.14,1.94-.23,3.32-1,3.73-3.2a5.94,5.94,0,0,1,.68-1.63,13.6,13.6,0,0,1,.89-1.36l-1.3-.07L73.6,93a3.07,3.07,0,0,0-2.86,1.53,1.22,1.22,0,0,1-1.25.56c-.13-.57-.25-1.12-.37-1.66a2.29,2.29,0,0,1-1.63,1.31c-.63.14-1.27.28-1.91.38-1.78.28-2.41,1.4-2.68,3A3.61,3.61,0,0,0,63.23,100.42Zm-4.87,17.07a3,3,0,0,0,.22.27q6.24,6,11.89,12.65a1.71,1.71,0,0,0,1.63.69c5.7-.44,11.41-.65,17.13-.58.42,0,.57-.12.65-.53.66-3.58,1.41-7.13,2-10.71A78.09,78.09,0,0,0,93,103.49a27.75,27.75,0,0,0-1.14-7.35,14,14,0,0,0-.9-2.15,5.39,5.39,0,0,0-6.69-3,19.76,19.76,0,0,0-6.22,3c-.35.23-.68.48-1,.7,2.33,4.3,1.91,8.35-1.11,12-3.31,4-7.52,5.18-12.54,3.19Q60.88,113.69,58.36,117.49ZM32.82,177.64c4.85.06,9.55-.08,14.24-.38-3.4-4.43-6.76-8.79-10.21-13.27C35.51,168.54,34.18,173.05,32.82,177.64ZM42,139.41c-4.64,1-9.22,2-13.88,3.37l7.49,12.14Zm9.91,37.05a2.51,2.51,0,0,0,.63.44c3-.32,5.74-.57,8.49-1,4.32-.6,8.62-1.28,12.93-1.92a.83.83,0,0,0,.7-.53q4.52-9.74,8.18-19.84a.79.79,0,0,0-.09-.81q-6.19-8.82-13.15-17a.88.88,0,0,0-.65-.28,17.16,17.16,0,0,0-1.89.14q-9.75.94-19.39,2.65a1,1,0,0,0-.78.58q-4.48,9.71-8.13,19.74a.93.93,0,0,0,.13,1C43,165.4,47.33,171,51.94,176.46ZM79.57,173l13.94-3.35L86,157.45Zm9.28-38.42L74.51,135l10.28,13.35C86.13,143.8,87.46,139.28,88.85,134.6Zm-39.53-.87L66,131.52l-9.9-10.42Zm-33.62-23c.08.76.2,1.52.3,2.28,5.74-.1,9.32,2.16,11.09,7a10.38,10.38,0,0,1-4.18,12.67l3.2,6.32.5-.11c5.55-1.57,11.16-2.87,16.82-4a1.54,1.54,0,0,0,1.26-.86c2.54-4.88,5.14-9.74,7.72-14.6.21-.39.44-.76.67-1.17-1.28-1.15-2.52-2.29-3.79-3.4A104.14,104.14,0,0,0,34,103.52a33.89,33.89,0,0,0-10-4.25,9.33,9.33,0,0,0-3.76-.14c-2.44.47-3.66,2.14-4.25,4.4A20.44,20.44,0,0,0,15.7,110.72Zm6.57,18.65c-.78-1.63-1.5-3.13-2.24-4.62-.13-.28-.14-.46.11-.67a16.58,16.58,0,0,0,1.29-1.22c.76-.81,1.49-1.64,2.11-2.33-1.27.17-2.78.36-4.28.57-.92.13-.91.14-1.32-.7-.65-1.37-1.31-2.73-2-4.2-.07.32-.12.51-.16.71-.26,1.46-.53,2.91-.77,4.38a.45.45,0,0,1-.45.44c-.81.08-1.62.2-2.43.31l-2.64.37a.45.45,0,0,0,0,.11l4.83,2.61c-.31,1.77-.62,3.49-.92,5.22l.13,0a3.5,3.5,0,0,0,.3-.24c1-1,2.11-2,3.13-3a.64.64,0,0,1,.94-.12c1.16.66,2.34,1.27,3.52,1.9Zm-7.62,52.45c-.23-.36-.47-.72-.68-1.08-.34-.58-.64-1.18-1-1.74a3.77,3.77,0,0,0-3.57-1.93H8.86l0-.17a2.3,2.3,0,0,1,.32-.15,4.13,4.13,0,0,0,2.61-2,3,3,0,0,0-1.9-4.43,16.48,16.48,0,0,0-2-.25,7.88,7.88,0,0,1-3.14-.5l-1.19,1.84A27.36,27.36,0,0,0,2,173.78a2.16,2.16,0,0,0,1,3,11,11,0,0,0,1.61.58c.25.08.55,0,.58.44s-.26.4-.49.48a3.81,3.81,0,0,0-2.23,1.82,2.79,2.79,0,0,0,2.45,4.18c-.41-.8-.36-1.34.23-1.72a1.25,1.25,0,0,0,.6-1.11,7.2,7.2,0,0,1,.11-1.32c.06-.25.3-.59.5-.63.89-.18,1.79-.26,2.73-.39a3.46,3.46,0,0,0,2,2.94C12.24,182.56,14,182.52,14.65,181.82Zm14.05-4.67c1.49-5.74,3.22-11.41,5.15-17a1,1,0,0,0-.1-.74q-5-7.35-9.38-15.07c-.17-.31-.32-.35-.65-.25a146.65,146.65,0,0,0-15.3,5.74,62.16,62.16,0,0,0-11.87,6.62,16.69,16.69,0,0,0-5,5.29,5.13,5.13,0,0,0,.46,6,17.74,17.74,0,0,0,6,4.51,10.17,10.17,0,0,1,11.37-5.5c5.43,1.11,8.47,4.48,8.87,10.11l.22,0c3.27.21,6.55.43,9.82.61C28.44,177.54,28.66,177.31,28.7,177.15Zm28.55,31.7a1.71,1.71,0,0,1,.11-.14l1.54,1.14,1.33-2.35c-1.37-1-2.68-2.06-4-3.06a1.82,1.82,0,0,0-1.6.23c-.3.35-.56.73-.87,1.12.23.18.44.33.64.5s.28.3.42.45l-.14.14-1.07-.79-1.15,1.51c.38.31.71.57,1.05.86l-.63.8c-.5-.39-.94-.72-1.4-1.09l1.12-1.5a2,2,0,0,0-2.36-.82c-.4.11-.85.09-1.26.19a1.19,1.19,0,0,0-.63.35,13.34,13.34,0,0,0-1.45,1.91,13.18,13.18,0,0,0-.79,2,.34.34,0,0,0,.12.27c.66.52,1.32,1,2,1.54l1-1.31,1.35,1-.91,1.24.48.37c-.86,1.14-1.7,2.25-2.57,3.38.73.59,1.43,1.16,2.18,1.75l2.61-3.4.68.47,1-1.33,3.28,2.51,1.74-2.27-3.63-2.78c.3-.39.58-.74.87-1.1l1,.72,1.14-1.5Zm6-14c-.32-.32-.55-.56-.79-.79q-6.06-6-11.62-12.44a.92.92,0,0,0-.91-.37c-.79.09-1.58.16-2.38.19l-15.13.43c-.4,0-.58.1-.67.52A134.45,134.45,0,0,0,28.88,201a52.34,52.34,0,0,0,.25,12.32,14.53,14.53,0,0,0,2.06,6,5.05,5.05,0,0,0,5.58,2.32,18.93,18.93,0,0,0,7.65-3.8.23.23,0,0,0,0-.1,10.14,10.14,0,0,1,.29-12.36,11,11,0,0,1,5.51-4,9.92,9.92,0,0,1,8.1.92Zm9-16.2-16.7,2.22,9.88,10.39Zm33.84,25c-.06-1.07-.17-2.14-.26-3.24a10.82,10.82,0,0,1-4.88-.18,9.68,9.68,0,0,1-4.18-2.44,11.37,11.37,0,0,1-3.06-10.79,10,10,0,0,1,5.3-6.47c-1.2-2.39-2.39-4.74-3.57-7.08l-.4.1c-5.71,1.59-11.48,3-17.31,4a1,1,0,0,0-.71.6q-3.25,6.28-6.53,12.53c-.61,1.14-1.29,2.25-2,3.46.15.11.31.21.45.33,2.17,1.89,4.29,3.83,6.51,5.66a86.1,86.1,0,0,0,15.12,10.35,24,24,0,0,0,8.43,2.88c3.44.36,5.7-1,6.62-4.35A16.65,16.65,0,0,0,106.14,203.58Zm-7.51-16.79c0,.74,0,1.39.79,1.81a26.86,26.86,0,0,1,2.46,1.63c.14.1.27.23.45.37-.44.29-.88.58-.58,1.09a6.53,6.53,0,0,0,.89.95l-.1.14a1.28,1.28,0,0,0,.37,2.07.48.48,0,0,1,0,.84.83.83,0,0,0-.29,1.26l3-.4a2.87,2.87,0,0,0-.32-.89,3.19,3.19,0,0,0-.88-.47c1.21-.23,1.65-.5,1.54-.94-.23-.83-1-.67-1.73-.71a5,5,0,0,0,.4-1.34,4,4,0,0,0-.35-1.23,11.52,11.52,0,0,0,2-.86,4.82,4.82,0,0,0,2.43-4.73,3.74,3.74,0,0,0-4.18-3.25,5.76,5.76,0,0,0-3.25,1.3,1.57,1.57,0,0,0-.16,2.54l1.09-.72V186a.76.76,0,0,0,.58-.9,1.38,1.38,0,0,1,1.22-1.58,2.54,2.54,0,0,1,3.21,3,2.27,2.27,0,0,1-1.54,1.9c.63-.8,1.67-1.43.95-2.73Zm30.74-42.57a19.2,19.2,0,0,0-6.51-4.46A10.34,10.34,0,0,1,111,145.19c-5.08-1.26-8-4.49-8.4-9.87l-9.52-.59c-.06.18-.1.28-.13.38q-2.19,8.58-5.12,16.92a1.14,1.14,0,0,0,.16,1.11q3.67,5.72,7.3,11.44c.78,1.24,1.48,2.52,2.22,3.8l.34-.09a141.29,141.29,0,0,0,15.6-5.85,61.07,61.07,0,0,0,11.88-6.73,17.66,17.66,0,0,0,4.55-4.69A5.23,5.23,0,0,0,129.37,144.22Z"/><path d="M9.19,174.51a.7.7,0,0,0-.78-1,20.21,20.21,0,0,0-2.33.54,3.74,3.74,0,0,0-1.2.67A.81.81,0,0,0,5,176.07a5.15,5.15,0,0,0,1,.38,4.83,4.83,0,0,0,2.88-1.38A1.75,1.75,0,0,0,9.19,174.51Z"/><path d="M110.47,135.79a2.56,2.56,0,0,1,2.74-2.59,2.63,2.63,0,0,1,2.48,2.8,2.49,2.49,0,0,1-2.69,2.54A2.61,2.61,0,0,1,110.47,135.79Zm.86,0A1.8,1.8,0,0,0,113,137.7a1.74,1.74,0,0,0,1.84-1.74,1.8,1.8,0,0,0-1.71-1.89A1.71,1.71,0,0,0,111.33,135.83Z"/><path d="M116.7,133.37a.65.65,0,0,0,.75-.62.68.68,0,1,0-1.36-.13A.68.68,0,0,0,116.7,133.37Z"/><path d="M68.89,97.15a1.93,1.93,0,0,0-2.15,2.73Z"/><path d="M242,57.87a21,21,0,0,1-5.61,6.36A61.68,61.68,0,0,1,223,72.08a127.66,127.66,0,0,1-14,5.28l-.63.2.32.67c1,2,2,4,3,6,.12.25.23.4.56.37,5-.39,9,2.93,10.4,7.46a10.07,10.07,0,0,1-3.9,11.65.71.71,0,0,0-.26.81,34.22,34.22,0,0,1,.3,7.08A14.34,14.34,0,0,1,217,118a8.33,8.33,0,0,1-7.59,4.25,22.81,22.81,0,0,1-9.47-2.2,70.62,70.62,0,0,1-14.54-8.74,110.91,110.91,0,0,1-9.56-8,5.19,5.19,0,0,0-.42-.35l-4.74,7.1c0,.06.09.15.15.23,3.3,4.28,2.53,9.67-.88,13.33a10.32,10.32,0,0,1-7.52,3.51,9.3,9.3,0,0,1-5.23-1.43.63.63,0,0,0-.82,0,28.27,28.27,0,0,1-7.29,4,10.77,10.77,0,0,1-6.91.42,9.19,9.19,0,0,1-5.46-5,23.63,23.63,0,0,1-2.3-8.23A68.59,68.59,0,0,1,135,98.7c.58-3.82,1.39-7.61,2.09-11.41a1.49,1.49,0,0,0,0-.25c-1.11-.06-2.19-.11-3.26-.19-2.1-.15-4.21-.32-6.31-.5-.3,0-.46,0-.59.32-2.3,5.57-8.44,7.39-13.7,5.26a9.66,9.66,0,0,1-6.25-7.4,14.44,14.44,0,0,1-.16-2.47.66.66,0,0,0-.43-.7,24.42,24.42,0,0,1-7-4.86,9.06,9.06,0,0,1-2.86-6.8,10.58,10.58,0,0,1,2.47-6A30.16,30.16,0,0,1,106.75,57a89.65,89.65,0,0,1,18.07-8.67c2.13-.78,4.29-1.47,6.44-2.21l.42-.15-.88-1.71c-.66-1.32-1.31-2.66-2-4a.59.59,0,0,0-.47-.28c-6.07.92-10.54-3.32-11.6-8.47a9.88,9.88,0,0,1,4.7-10.95.51.51,0,0,0,.26-.62,37.86,37.86,0,0,1-.45-7.52,15,15,0,0,1,1.83-7.12,8.11,8.11,0,0,1,6.62-4.06,19.75,19.75,0,0,1,9.16,1.71,63.92,63.92,0,0,1,13.58,7.77,124.83,124.83,0,0,1,11.61,9.53l.47.41c1.59-2.36,3.15-4.7,4.73-7.07a10.8,10.8,0,0,1-2.38-3.9A10,10,0,0,1,168.75,0a10.26,10.26,0,0,1,8.63-4.18,9.74,9.74,0,0,1,5.43,1.89.68.68,0,0,0,.91,0,28.29,28.29,0,0,1,7.86-4.13,10.24,10.24,0,0,1,7,0,9.47,9.47,0,0,1,5,5.23,24.15,24.15,0,0,1,1.91,7.37,70.47,70.47,0,0,1-.29,16.42c-.53,4.56-1.33,9.07-2.31,13.55a1.9,1.9,0,0,0,0,.37c1.13.06,2.25.11,3.36.18l5.38.41c.3,0,.46,0,.58-.33,2.22-5.67,8.28-7.5,13.43-5.59a9.68,9.68,0,0,1,6.73,8.29,8.43,8.43,0,0,1,0,1.59c0,.41.13.58.49.77a57.81,57.81,0,0,1,5.19,2.84,13.84,13.84,0,0,1,3.11,2.85C243.8,50.72,243.94,54.24,242,57.87Zm-26-19c.25,2,.52,4,.78,5.94a.81.81,0,0,0,1,.77l9.92-1.32c.72-.1,1-.39.86-1.12-.26-2-.53-4-.79-5.94-.08-.64-.27-.86-.91-.84a12.3,12.3,0,0,0-1.91.23c-.91.17-.91.18-1.06-.73-.13-.71-.37-.87-1.1-.77l-2.83.37c-.6.07-.77.26-.75.86,0,.32.06.65.11,1.08-.18-.09-.35-.14-.35-.18,0-.68-.45-.57-.88-.51a5.35,5.35,0,0,1-.55,0c-.68.05-.79.16-.81.87C216,38,215.89,38.1,216,38.9ZM172.38,6.6a2.26,2.26,0,0,0,1.55,1.14c.09,0,.14.22.22.35l-.84.21c.87,1.78,1.72,3.5,2.57,5.22l.11,0c.31-1.87.61-3.74.93-5.68h-.85V7.64c.5,0,1-.08,1.51-.14,1.91-.23,3.28-1,3.68-3.16a6.13,6.13,0,0,1,.68-1.61,15.31,15.31,0,0,1,.88-1.35l-1.29-.07,1.12-2.09A3,3,0,0,0,179.81.73a1.19,1.19,0,0,1-1.24.55c-.12-.56-.24-1.1-.36-1.64A2.22,2.22,0,0,1,176.6.93c-.63.14-1.25.28-1.89.38-1.76.28-2.38,1.39-2.65,2.93A3.57,3.57,0,0,0,172.38,6.6Zm-4.82,16.89c.11.13.16.21.22.27,4.12,4,8,8.17,11.76,12.51a1.71,1.71,0,0,0,1.61.69c5.64-.44,11.29-.65,16.95-.58.41,0,.57-.12.64-.52.65-3.54,1.4-7.06,2-10.6a77.09,77.09,0,0,0,1.1-15.62,27.49,27.49,0,0,0-1.13-7.26,12.78,12.78,0,0,0-.89-2.13,5.32,5.32,0,0,0-6.61-2.94A19.62,19.62,0,0,0,187,.3c-.35.23-.68.48-1,.7,2.3,4.25,1.88,8.26-1.1,11.85-3.28,4-7.45,5.12-12.41,3.15ZM142.3,83c4.79.05,9.44-.08,14.08-.38L146.29,69.48C145,74,143.64,78.44,142.3,83Zm9.11-37.82c-4.59.95-9.12,2-13.73,3.33l7.4,12Zm9.8,36.65a2.69,2.69,0,0,0,.63.44c2.92-.32,5.67-.57,8.39-.94,4.27-.59,8.53-1.27,12.79-1.91a.81.81,0,0,0,.69-.51q4.47-9.65,8.09-19.63a.75.75,0,0,0-.09-.8q-6.12-8.73-13-16.87a.94.94,0,0,0-.64-.28c-.63,0-1.24.08-1.87.14-6.43.63-12.82,1.49-19.18,2.62a.93.93,0,0,0-.77.58c-3,6.39-5.66,12.89-8.05,19.52a.91.91,0,0,0,.13.95C152.38,70.88,156.65,76.46,161.21,81.82Zm27.33-3.4,13.79-3.31L194.89,63C192.76,68.2,190.67,73.24,188.54,78.42Zm9.18-38-14.18.41L193.7,54C195,49.51,196.35,45.05,197.72,40.41Zm-39.1-.85,16.53-2.2c-3.25-3.42-6.45-6.8-9.79-10.3ZM125.37,16.79c.08.75.19,1.51.29,2.25,5.68-.1,9.22,2.14,11,6.91a10.28,10.28,0,0,1-4.14,12.53c1.05,2.08,2.1,4.17,3.17,6.26l.48-.12c5.49-1.55,11-2.83,16.65-3.91a1.54,1.54,0,0,0,1.24-.86c2.52-4.82,5.08-9.62,7.64-14.43.2-.39.43-.75.67-1.16-1.28-1.14-2.5-2.27-3.76-3.37A102.52,102.52,0,0,0,143.44,9.67a33.54,33.54,0,0,0-9.87-4.21,9.51,9.51,0,0,0-3.72-.14c-2.42.47-3.62,2.12-4.2,4.35A20,20,0,0,0,125.37,16.79Zm6.5,18.44c-.78-1.6-1.49-3.09-2.22-4.57a.46.46,0,0,1,.11-.66c.44-.38.87-.78,1.28-1.2.74-.8,1.46-1.62,2.08-2.31-1.25.17-2.75.35-4.23.57-.91.12-.9.14-1.3-.7-.65-1.35-1.31-2.69-2-4.15l-.15.7c-.26,1.44-.52,2.88-.77,4.33a.43.43,0,0,1-.44.44c-.8.08-1.6.2-2.4.31l-2.62.36a.37.37,0,0,1,0,.11L124,31c-.3,1.75-.61,3.46-.91,5.17l.13,0c.1-.08.2-.15.3-.24,1-1,2.08-2,3.09-3a.63.63,0,0,1,.93-.12c1.15.65,2.32,1.26,3.49,1.88C131.24,34.93,131.5,35.05,131.87,35.23Zm-7.54,51.89c-.23-.36-.47-.71-.68-1.07-.34-.57-.63-1.16-1-1.72a3.76,3.76,0,0,0-3.53-1.92c-.19,0-.37,0-.55,0,0,0,0-.11,0-.16a1.23,1.23,0,0,1,.31-.14,4.07,4.07,0,0,0,2.58-2,3,3,0,0,0-1.88-4.38,14,14,0,0,0-2-.25,7.86,7.86,0,0,1-3.1-.5c-.41.63-.79,1.23-1.18,1.82a26.82,26.82,0,0,0-1.49,2.37,2.12,2.12,0,0,0,1,2.92,10.73,10.73,0,0,0,1.59.57c.24.08.54,0,.57.44s-.25.39-.48.47a3.81,3.81,0,0,0-2.2,1.81,2.75,2.75,0,0,0,2.41,4.13c-.4-.79-.35-1.32.24-1.7a1.25,1.25,0,0,0,.59-1.1,6.44,6.44,0,0,1,.11-1.31c.06-.24.29-.58.5-.62.87-.18,1.76-.26,2.69-.38a3.41,3.41,0,0,0,2,2.91C121.93,87.85,123.68,87.81,124.33,87.12Zm13.89-4.62c1.47-5.68,3.18-11.29,5.09-16.83a1,1,0,0,0-.09-.74q-5-7.26-9.28-14.9c-.17-.31-.31-.35-.64-.25a144.77,144.77,0,0,0-15.13,5.67A62,62,0,0,0,106.42,62a16.63,16.63,0,0,0-5,5.22,5.07,5.07,0,0,0,.46,6,17.41,17.41,0,0,0,6,4.47,10,10,0,0,1,11.24-5.44c5.37,1.1,8.38,4.43,8.78,10l.21,0c3.24.21,6.48.43,9.72.61C138,82.89,138.18,82.66,138.22,82.5Zm28.24,31.36a.76.76,0,0,1,.11-.14l1.52,1.13c.45-.81.88-1.55,1.31-2.33-1.35-1-2.65-2-4-3a1.83,1.83,0,0,0-1.59.22c-.29.35-.55.72-.85,1.11.22.18.44.33.62.5a5.89,5.89,0,0,1,.42.45,1.59,1.59,0,0,0-.13.13l-1.07-.78-1.13,1.49,1,.85-.63.8-1.38-1.08,1.11-1.48a2,2,0,0,0-2.34-.82c-.39.11-.84.09-1.24.19a1.19,1.19,0,0,0-.63.35,8.26,8.26,0,0,0-2.21,3.84.33.33,0,0,0,.12.27c.64.51,1.3,1,2,1.53l1-1.31,1.34,1L159,118l.48.37-2.55,3.34,2.15,1.74,2.59-3.37.67.46,1-1.31,3.25,2.48c.58-.77,1.14-1.49,1.71-2.25l-3.58-2.75.85-1.08,1,.72,1.14-1.49C167.28,114.53,166.87,114.19,166.46,113.86ZM172.4,100l-.77-.79c-4-4-7.84-8-11.5-12.31a.93.93,0,0,0-.9-.36c-.78.09-1.57.15-2.36.18l-15,.43c-.39,0-.56.09-.65.51a134.62,134.62,0,0,0-2.86,18.42,52.33,52.33,0,0,0,.25,12.19,14.35,14.35,0,0,0,2,5.88,5,5,0,0,0,5.51,2.3,18.79,18.79,0,0,0,7.57-3.76s0-.06.05-.09a10.05,10.05,0,0,1,.28-12.24,11,11,0,0,1,5.45-3.93,9.78,9.78,0,0,1,8,.91Zm8.95-16-16.52,2.19,9.77,10.28Zm33.47,24.7c-.06-1.06-.17-2.11-.26-3.21a10.56,10.56,0,0,1-4.82-.18,9.56,9.56,0,0,1-4.14-2.4,11.28,11.28,0,0,1-3-10.68,9.93,9.93,0,0,1,5.25-6.4l-3.53-7-.39.1q-8.49,2.37-17.13,4a.92.92,0,0,0-.7.6c-2.15,4.13-4.3,8.27-6.47,12.38-.6,1.14-1.27,2.23-2,3.43.15.11.3.21.44.33,2.15,1.86,4.25,3.78,6.44,5.59a84.87,84.87,0,0,0,15,10.25,23.67,23.67,0,0,0,8.33,2.84c3.41.36,5.64-1,6.55-4.3A16.56,16.56,0,0,0,214.82,108.65Zm-7.43-16.6c0,.72,0,1.36.79,1.78s1.62,1.07,2.43,1.62c.14.1.26.22.44.37-.43.28-.87.56-.57,1.07a5.85,5.85,0,0,0,.87.94l-.09.14a1.26,1.26,0,0,0,.36,2,.47.47,0,0,1,0,.83.83.83,0,0,0-.28,1.25l3-.4a1.35,1.35,0,0,0-1.19-1.34c1.2-.23,1.63-.49,1.52-.93-.22-.82-.94-.66-1.71-.7a4.84,4.84,0,0,0,.4-1.33,4.55,4.55,0,0,0-.35-1.21,12.49,12.49,0,0,0,2-.85,4.77,4.77,0,0,0,2.4-4.68,3.69,3.69,0,0,0-4.13-3.22A5.73,5.73,0,0,0,210,88.72a1.56,1.56,0,0,0-.16,2.51l1.08-.71v.74a.75.75,0,0,0,.58-.88,1.36,1.36,0,0,1,1.21-1.57,2.52,2.52,0,0,1,3.17,3,2.28,2.28,0,0,1-1.53,1.88c.63-.79,1.66-1.42.94-2.71ZM237.8,49.94a19.15,19.15,0,0,0-6.43-4.42,10.23,10.23,0,0,1-11.74,5.37c-5-1.24-7.86-4.44-8.3-9.76l-9.42-.59c-.06.18-.1.28-.13.38q-2.17,8.49-5.07,16.73a1.14,1.14,0,0,0,.16,1.11q3.63,5.64,7.22,11.31c.77,1.22,1.46,2.5,2.2,3.76l.33-.09A136.31,136.31,0,0,0,222.05,68,59.43,59.43,0,0,0,233.8,61.3a17.13,17.13,0,0,0,4.5-4.64A5.16,5.16,0,0,0,237.8,49.94Z"/><path d="M118.92,79.89a.69.69,0,0,0-.77-1,19.22,19.22,0,0,0-2.3.53,3.86,3.86,0,0,0-1.19.66.8.8,0,0,0,.11,1.32,5.2,5.2,0,0,0,1,.37,4.72,4.72,0,0,0,2.86-1.36A1.74,1.74,0,0,0,118.92,79.89Z"/><path d="M219.11,41.6a2.52,2.52,0,0,1,2.7-2.56,2.59,2.59,0,0,1,2.46,2.76,2.45,2.45,0,0,1-2.66,2.52A2.59,2.59,0,0,1,219.11,41.6Zm.85,0a1.77,1.77,0,0,0,1.66,1.84,1.71,1.71,0,0,0,1.82-1.72,1.78,1.78,0,0,0-1.69-1.87A1.7,1.7,0,0,0,220,41.64Z"/><path d="M225.27,39.2a.63.63,0,0,0,.74-.61.67.67,0,1,0-.74.61Z"/><path d="M178,3.37a1.91,1.91,0,0,0-2.12,2.7Z"/><path d="M364.85,152.24a21.07,21.07,0,0,1-5.68,6.43,61.68,61.68,0,0,1-13.54,7.93,128.45,128.45,0,0,1-14.2,5.35l-.63.2c.12.26.21.47.32.67,1,2,2,4.06,3,6.09.13.25.24.4.57.38,5.08-.4,9.11,3,10.52,7.54a10.2,10.2,0,0,1-3.94,11.78c-.35.24-.3.51-.26.81a35.1,35.1,0,0,1,.3,7.17A14.52,14.52,0,0,1,339.6,213a8.43,8.43,0,0,1-7.67,4.3,23,23,0,0,1-9.58-2.23,71.7,71.7,0,0,1-14.7-8.83,115.06,115.06,0,0,1-9.66-8.13,5,5,0,0,0-.42-.36l-4.8,7.18a2,2,0,0,0,.16.23c3.33,4.33,2.55,9.78-.89,13.48a10.5,10.5,0,0,1-7.6,3.55,9.51,9.51,0,0,1-5.29-1.45.63.63,0,0,0-.83,0,28.91,28.91,0,0,1-7.37,4.09,11,11,0,0,1-7,.43,9.38,9.38,0,0,1-5.52-5,23.81,23.81,0,0,1-2.32-8.31,69.25,69.25,0,0,1,.53-18.47c.58-3.87,1.4-7.7,2.11-11.54a1.21,1.21,0,0,0,0-.25c-1.13-.07-2.22-.11-3.3-.19-2.13-.16-4.26-.32-6.39-.5-.29,0-.46,0-.59.32-2.33,5.62-8.53,7.47-13.85,5.31a9.72,9.72,0,0,1-6.31-7.47,14,14,0,0,1-.17-2.5.67.67,0,0,0-.44-.71,24.78,24.78,0,0,1-7-4.91,9.17,9.17,0,0,1-2.89-6.87,10.7,10.7,0,0,1,2.49-6.09,30.47,30.47,0,0,1,7.81-6.81,90.73,90.73,0,0,1,18.26-8.76c2.15-.8,4.34-1.49,6.52-2.24l.41-.15-.88-1.73c-.67-1.34-1.33-2.69-2-4a.61.61,0,0,0-.48-.29c-6.13.94-10.65-3.35-11.73-8.56a10,10,0,0,1,4.75-11.07.5.5,0,0,0,.27-.62,38,38,0,0,1-.46-7.61,15.17,15.17,0,0,1,1.85-7.19A8.2,8.2,0,0,1,251.29,95a20,20,0,0,1,9.26,1.73,64.39,64.39,0,0,1,13.73,7.85A127.51,127.51,0,0,1,286,114.19l.47.41,4.78-7.15a10.52,10.52,0,0,1-2.4-3.94,10.08,10.08,0,0,1,1.89-9.79,10.4,10.4,0,0,1,8.72-4.22,9.89,9.89,0,0,1,5.5,1.9.66.66,0,0,0,.91,0,28.91,28.91,0,0,1,8-4.17,10.35,10.35,0,0,1,7.09,0A9.54,9.54,0,0,1,326,92.49,24.61,24.61,0,0,1,328,99.94a71.47,71.47,0,0,1-.3,16.6,138,138,0,0,1-2.33,13.7,1.9,1.9,0,0,0,0,.37c1.14.06,2.27.11,3.4.19,1.81.12,3.62.26,5.44.41a.47.47,0,0,0,.58-.34c2.24-5.73,8.37-7.58,13.58-5.65a9.77,9.77,0,0,1,6.8,8.37,8.67,8.67,0,0,1,0,1.61c0,.42.13.59.49.78a55.66,55.66,0,0,1,5.26,2.88,14.07,14.07,0,0,1,3.14,2.88C366.65,145,366.79,148.57,364.85,152.24Zm-26.32-19.17c.25,2,.52,4,.79,6a.83.83,0,0,0,1.06.78l10-1.34c.73-.1,1-.39.87-1.13q-.39-3-.8-6c-.08-.65-.28-.88-.92-.86a13.94,13.94,0,0,0-1.93.24c-.92.17-.92.18-1.07-.73-.13-.72-.38-.89-1.11-.79l-2.87.38c-.6.07-.77.26-.75.86,0,.33.06.66.11,1.1-.18-.09-.35-.14-.35-.19,0-.68-.47-.57-.9-.51a5.11,5.11,0,0,1-.55.05c-.69.06-.8.17-.82.88C338.52,132.13,338.43,132.26,338.53,133.07Zm-44.08-32.65a2.21,2.21,0,0,0,1.56,1.14c.09,0,.14.23.22.37l-.85.2c.88,1.81,1.74,3.55,2.6,5.28l.11,0,.94-5.74h-.86v-.16c.51,0,1-.08,1.53-.14,1.93-.23,3.32-1,3.72-3.2a6.26,6.26,0,0,1,.68-1.63c.24-.45.56-.86.89-1.36l-1.3-.07c.39-.73.74-1.4,1.13-2.12A3.08,3.08,0,0,0,302,94.48a1.21,1.21,0,0,1-1.25.56c-.12-.57-.24-1.12-.36-1.66a2.32,2.32,0,0,1-1.63,1.31c-.64.14-1.27.28-1.91.38-1.78.28-2.42,1.4-2.68,3A3.55,3.55,0,0,0,294.45,100.42Zm-4.88,17.07c.11.13.16.21.22.27,4.17,4,8.11,8.26,11.9,12.65a1.69,1.69,0,0,0,1.62.69c5.7-.44,11.41-.65,17.13-.58.42,0,.58-.12.65-.53.66-3.58,1.41-7.13,2-10.71a77.37,77.37,0,0,0,1.11-15.79,27.35,27.35,0,0,0-1.14-7.35,14,14,0,0,0-.9-2.15,5.38,5.38,0,0,0-6.68-3,19.76,19.76,0,0,0-6.22,3c-.35.23-.69.48-1,.7,2.33,4.3,1.9,8.35-1.12,12-3.31,4-7.52,5.18-12.53,3.19ZM264,177.64c4.85.06,9.56-.08,14.24-.38L268.07,164C266.72,168.54,265.39,173.05,264,177.64Zm9.22-38.23c-4.64,1-9.22,2-13.89,3.37l7.49,12.14C269,149.67,271.13,144.56,273.25,139.41Zm9.91,37.05a2.2,2.2,0,0,0,.63.44c3-.32,5.74-.57,8.49-1,4.31-.6,8.62-1.28,12.93-1.92a.83.83,0,0,0,.69-.53q4.53-9.74,8.18-19.84a.77.77,0,0,0-.09-.81q-6.19-8.82-13.15-17a.88.88,0,0,0-.64-.28,17,17,0,0,0-1.89.14q-9.75.94-19.4,2.65a.93.93,0,0,0-.77.58q-4.5,9.71-8.14,19.74a.91.91,0,0,0,.14,1C274.23,165.4,278.55,171,283.16,176.46ZM310.78,173l13.94-3.35c-2.56-4.18-5-8.18-7.51-12.22Zm9.28-38.42-14.34.41c3.47,4.49,6.83,8.87,10.28,13.35C317.35,143.8,318.68,139.28,320.06,134.6Zm-39.53-.87,16.72-2.21c-3.29-3.47-6.53-6.88-9.91-10.42C285,125.4,282.8,129.54,280.53,133.73Zm-33.61-23c.08.76.19,1.52.29,2.28,5.74-.1,9.32,2.16,11.1,7a10.39,10.39,0,0,1-4.18,12.67l3.2,6.32.49-.11c5.55-1.57,11.16-2.87,16.82-4a1.54,1.54,0,0,0,1.26-.86c2.55-4.88,5.14-9.74,7.72-14.6.21-.39.44-.76.68-1.17-1.29-1.15-2.53-2.29-3.8-3.4a103.09,103.09,0,0,0-15.32-11.35,33.84,33.84,0,0,0-10-4.25,9.35,9.35,0,0,0-3.76-.14c-2.45.47-3.67,2.14-4.25,4.4A20,20,0,0,0,246.92,110.72Zm6.57,18.65c-.79-1.63-1.5-3.13-2.24-4.62-.14-.28-.15-.46.1-.67.45-.39.89-.79,1.3-1.22.75-.81,1.48-1.64,2.1-2.33l-4.28.57c-.92.13-.91.14-1.31-.7l-2-4.2c-.07.32-.12.51-.15.71-.26,1.46-.53,2.91-.78,4.38a.44.44,0,0,1-.44.44c-.82.08-1.62.2-2.43.31l-2.65.37a.37.37,0,0,1,0,.11l4.84,2.61c-.31,1.77-.62,3.49-.92,5.22l.13,0c.09-.08.2-.15.29-.24,1.05-1,2.11-2,3.13-3a.64.64,0,0,1,.94-.12c1.16.66,2.35,1.27,3.53,1.9Zm-7.62,52.45c-.23-.36-.48-.72-.69-1.08-.34-.58-.63-1.18-1-1.74a3.79,3.79,0,0,0-3.58-1.93h-.55c0-.06,0-.12,0-.17a1.77,1.77,0,0,1,.31-.15,4.13,4.13,0,0,0,2.61-2,3,3,0,0,0-1.9-4.43,16,16,0,0,0-2-.25,7.88,7.88,0,0,1-3.14-.5l-1.18,1.84a25.17,25.17,0,0,0-1.51,2.39,2.15,2.15,0,0,0,1,3,10.88,10.88,0,0,0,1.6.58c.25.08.55,0,.58.44s-.26.4-.48.48a3.78,3.78,0,0,0-2.23,1.82,2.78,2.78,0,0,0,2.44,4.18c-.41-.8-.36-1.34.24-1.72a1.25,1.25,0,0,0,.6-1.11,7.2,7.2,0,0,1,.1-1.32c.06-.25.3-.59.51-.63.88-.18,1.79-.26,2.72-.39a3.49,3.49,0,0,0,2,2.94C243.45,182.56,245.21,182.52,245.87,181.82Zm14-4.67c1.49-5.74,3.22-11.41,5.15-17a1,1,0,0,0-.1-.74c-3.33-4.9-6.47-9.91-9.37-15.07-.17-.31-.32-.35-.66-.25a146.48,146.48,0,0,0-15.29,5.74,62.16,62.16,0,0,0-11.87,6.62,16.83,16.83,0,0,0-5,5.29,5.12,5.12,0,0,0,.47,6,17.65,17.65,0,0,0,6,4.51,10.16,10.16,0,0,1,11.36-5.5c5.43,1.11,8.48,4.48,8.88,10.11l.21,0c3.28.21,6.55.43,9.83.61C259.65,177.54,259.87,177.31,259.91,177.15Zm28.55,31.7.11-.14,1.54,1.14,1.33-2.35c-1.36-1-2.68-2.06-4-3.06a1.82,1.82,0,0,0-1.6.23c-.29.35-.56.73-.86,1.12.23.18.44.33.63.5s.28.3.42.45l-.13.14-1.08-.79-1.15,1.51,1.06.86-.64.8-1.4-1.09,1.12-1.5a2,2,0,0,0-2.35-.82c-.41.11-.85.09-1.27.19a1.27,1.27,0,0,0-.63.35,14.12,14.12,0,0,0-1.45,1.91,12.16,12.16,0,0,0-.78,2,.34.34,0,0,0,.12.27c.65.52,1.31,1,2,1.54l1-1.31,1.36,1-.92,1.24.49.37-2.58,3.38,2.18,1.75,2.62-3.4.68.47c.34-.45.68-.88,1-1.33l3.29,2.51,1.73-2.27-3.62-2.78c.3-.39.57-.74.86-1.1l1,.72,1.15-1.5Zm6-14c-.31-.32-.54-.56-.78-.79q-6.06-6-11.63-12.44a.91.91,0,0,0-.9-.37c-.79.09-1.59.16-2.39.19l-15.13.43c-.4,0-.57.1-.66.52A134.48,134.48,0,0,0,260.09,201a52.88,52.88,0,0,0,.25,12.32,14.68,14.68,0,0,0,2.06,6,5.06,5.06,0,0,0,5.58,2.32,18.93,18.93,0,0,0,7.65-3.8s0-.06.05-.1A10.13,10.13,0,0,1,276,205.3a11.06,11.06,0,0,1,5.51-4,9.91,9.91,0,0,1,8.1.92Zm9-16.2-16.7,2.22,9.89,10.39Zm33.85,25c-.07-1.07-.18-2.14-.27-3.24a10.78,10.78,0,0,1-4.87-.18,9.71,9.71,0,0,1-4.19-2.44A11.37,11.37,0,0,1,325,186.93a10.05,10.05,0,0,1,5.3-6.47l-3.56-7.08-.4.1c-5.72,1.59-11.48,3-17.32,4a.92.92,0,0,0-.7.6c-2.18,4.19-4.34,8.36-6.54,12.53-.6,1.14-1.28,2.25-2,3.46.15.11.3.21.44.33,2.17,1.89,4.3,3.83,6.52,5.66a85.36,85.36,0,0,0,15.12,10.35,24,24,0,0,0,8.42,2.88c3.45.36,5.7-1,6.62-4.35A16.93,16.93,0,0,0,337.36,203.58Zm-7.52-16.79c0,.74,0,1.39.8,1.81a28.14,28.14,0,0,1,2.45,1.63c.15.1.27.23.45.37-.43.29-.87.58-.57,1.09a5.94,5.94,0,0,0,.88.95,1,1,0,0,1-.1.14,1.29,1.29,0,0,0,.37,2.07.47.47,0,0,1,0,.84.83.83,0,0,0-.28,1.26l3-.4a2.86,2.86,0,0,0-.33-.89,3.19,3.19,0,0,0-.88-.47c1.22-.23,1.66-.5,1.54-.94-.22-.83-1-.67-1.73-.71a4.71,4.71,0,0,0,.41-1.34,4.26,4.26,0,0,0-.36-1.23,11.19,11.19,0,0,0,2-.86,4.78,4.78,0,0,0,2.43-4.73,3.73,3.73,0,0,0-4.18-3.25,5.79,5.79,0,0,0-3.25,1.3,1.57,1.57,0,0,0-.16,2.54l1.1-.72V186a.76.76,0,0,0,.58-.9,1.38,1.38,0,0,1,1.22-1.58,2.54,2.54,0,0,1,3.2,3,2.24,2.24,0,0,1-1.54,1.9c.64-.8,1.68-1.43.95-2.73Zm30.74-42.57a19.16,19.16,0,0,0-6.5-4.46,10.35,10.35,0,0,1-11.87,5.43c-5.08-1.26-7.94-4.49-8.39-9.87l-9.52-.59c-.07.18-.11.28-.14.38Q322,143.69,319,152a1.12,1.12,0,0,0,.17,1.11q3.66,5.72,7.29,11.44c.78,1.24,1.48,2.52,2.23,3.8l.34-.09a142.82,142.82,0,0,0,15.6-5.85,60.7,60.7,0,0,0,11.87-6.73,17.5,17.5,0,0,0,4.55-4.69A5.22,5.22,0,0,0,360.58,144.22Z"/><path d="M10.8,273.81a20.48,20.48,0,0,1-5.61,6.36A61,61,0,0,1-8.21,288a125.57,125.57,0,0,1-14,5.29l-.63.2.32.66,3,6c.13.26.23.4.56.38,5-.4,9,2.92,10.41,7.46a10.09,10.09,0,0,1-3.9,11.65c-.35.24-.3.5-.26.81a34.93,34.93,0,0,1,.3,7.08A14.38,14.38,0,0,1-14.17,334a8.33,8.33,0,0,1-7.59,4.24,22.78,22.78,0,0,1-9.47-2.2,70.58,70.58,0,0,1-14.54-8.73,109.69,109.69,0,0,1-9.56-8.05l-.42-.36c-1.59,2.38-3.15,4.72-4.75,7.1a2,2,0,0,0,.16.24c3.29,4.28,2.52,9.67-.88,13.33A10.36,10.36,0,0,1-68.74,343,9.38,9.38,0,0,1-74,341.6a.64.64,0,0,0-.83,0,27.92,27.92,0,0,1-7.28,4,10.78,10.78,0,0,1-6.91.43,9.22,9.22,0,0,1-5.47-5,23.57,23.57,0,0,1-2.29-8.22,68.17,68.17,0,0,1,.53-18.27c.57-3.83,1.38-7.62,2.09-11.42,0-.05,0-.11,0-.24-1.11-.07-2.19-.11-3.27-.19-2.1-.16-4.21-.32-6.31-.5-.29,0-.45,0-.58.32-2.31,5.56-8.44,7.39-13.7,5.25a9.62,9.62,0,0,1-6.25-7.39,12.77,12.77,0,0,1-.16-2.47.67.67,0,0,0-.44-.71,24.54,24.54,0,0,1-7-4.85,9.07,9.07,0,0,1-2.86-6.8,10.56,10.56,0,0,1,2.46-6,30.1,30.1,0,0,1,7.72-6.73,89.37,89.37,0,0,1,18.07-8.67c2.13-.79,4.3-1.48,6.45-2.21l.41-.15-.87-1.71c-.66-1.33-1.31-2.66-2-4a.66.66,0,0,0-.48-.28c-6.06.93-10.53-3.32-11.6-8.46a9.88,9.88,0,0,1,4.7-11,.5.5,0,0,0,.27-.62,38.68,38.68,0,0,1-.46-7.52,15.12,15.12,0,0,1,1.84-7.12,8.1,8.1,0,0,1,6.62-4.07,19.91,19.91,0,0,1,9.16,1.72,63.32,63.32,0,0,1,13.58,7.77,125.86,125.86,0,0,1,11.61,9.53l.47.41L-62,229.5a10.41,10.41,0,0,1-2.38-3.89,10,10,0,0,1,1.87-9.68,10.29,10.29,0,0,1,8.64-4.18,9.75,9.75,0,0,1,5.43,1.88.65.65,0,0,0,.91,0,28.25,28.25,0,0,1,7.86-4.12,10.24,10.24,0,0,1,7,0,9.48,9.48,0,0,1,5,5.22,24.5,24.5,0,0,1,1.91,7.38A70.48,70.48,0,0,1-26,238.5a135,135,0,0,1-2.32,13.55,3.05,3.05,0,0,0,0,.36c1.13.07,2.24.11,3.36.19,1.79.12,3.58.26,5.38.41.29,0,.45,0,.57-.33,2.22-5.68,8.28-7.51,13.44-5.6a9.72,9.72,0,0,1,6.73,8.29,8.45,8.45,0,0,1,0,1.59c0,.42.14.58.49.77a56.73,56.73,0,0,1,5.2,2.85A14.28,14.28,0,0,1,10,263.43C12.59,266.67,12.72,270.19,10.8,273.81Zm-26-19q.39,3,.79,5.94a.81.81,0,0,0,1,.76l9.92-1.32c.72-.09,1-.38.85-1.11l-.78-5.94c-.09-.64-.28-.87-.92-.85a13.52,13.52,0,0,0-1.9.24c-.91.17-.91.18-1.07-.73-.13-.71-.37-.88-1.09-.78l-2.84.38c-.59.07-.76.25-.74.85,0,.33.06.65.1,1.08-.17-.08-.34-.13-.34-.18,0-.68-.46-.57-.89-.5a4.91,4.91,0,0,1-.55,0c-.67.06-.78.17-.81.87C-15.24,253.92-15.33,254.05-15.23,254.85Zm-43.6-32.3a2.2,2.2,0,0,0,1.55,1.13c.09,0,.14.22.22.36l-.84.21,2.56,5.22.12,0c.31-1.88.61-3.75.93-5.68h-.86v-.16c.51-.05,1-.08,1.52-.14,1.91-.23,3.28-1,3.68-3.16a6.31,6.31,0,0,1,.67-1.62,13.89,13.89,0,0,1,.88-1.34l-1.28-.07c.38-.73.73-1.39,1.11-2.1a3.06,3.06,0,0,0-2.84,1.52,1.19,1.19,0,0,1-1.23.55c-.12-.57-.24-1.1-.36-1.65a2.26,2.26,0,0,1-1.61,1.3c-.63.14-1.26.28-1.89.38-1.76.28-2.39,1.38-2.66,2.93A3.6,3.6,0,0,0-58.83,222.55Zm-4.82,16.88a1.44,1.44,0,0,0,.22.27c4.12,4,8,8.18,11.76,12.52a1.69,1.69,0,0,0,1.61.68c5.64-.43,11.29-.64,16.94-.57.42,0,.57-.12.64-.53.66-3.53,1.4-7.05,2-10.6a77,77,0,0,0,1.09-15.61,27.08,27.08,0,0,0-1.12-7.27,14.61,14.61,0,0,0-.89-2.12A5.33,5.33,0,0,0-38,213.25a19.87,19.87,0,0,0-6.15,3c-.34.23-.68.48-1,.7,2.31,4.25,1.89,8.25-1.1,11.85-3.28,3.94-7.44,5.12-12.4,3.15Zm-25.27,59.5c4.8.06,9.45-.08,14.09-.38l-10.1-13.12C-86.26,289.93-87.57,294.39-88.92,298.93Zm9.12-37.81c-4.59.95-9.12,2-13.74,3.32l7.41,12Zm9.8,36.64a2.31,2.31,0,0,0,.62.44c2.93-.32,5.68-.56,8.4-.94,4.27-.59,8.52-1.27,12.79-1.9a.82.82,0,0,0,.69-.52q4.47-9.63,8.09-19.62a.77.77,0,0,0-.09-.8q-6.12-8.75-13-16.87a.84.84,0,0,0-.63-.28c-.63,0-1.25.07-1.87.13q-9.65.94-19.19,2.62a.93.93,0,0,0-.77.59q-4.44,9.58-8,19.51a.91.91,0,0,0,.13.95Q-76.82,289.71-70,297.76Zm27.32-3.39,13.79-3.32c-2.53-4.13-5-8.08-7.43-12.09Zm9.19-38-14.19.4L-37.51,270Zm-39.1-.86,16.53-2.19c-3.25-3.43-6.46-6.8-9.8-10.31Zm-33.25-22.77c.07.76.19,1.51.28,2.26,5.68-.1,9.22,2.14,11,6.9a10.28,10.28,0,0,1-4.14,12.54l3.17,6.25.49-.11c5.49-1.55,11-2.83,16.64-3.91a1.54,1.54,0,0,0,1.25-.86c2.51-4.83,5.08-9.63,7.63-14.43.21-.39.44-.76.67-1.16-1.27-1.14-2.5-2.27-3.75-3.37a101.39,101.39,0,0,0-15.16-11.22,33.12,33.12,0,0,0-9.86-4.21,9.15,9.15,0,0,0-3.72-.14c-2.42.46-3.62,2.12-4.21,4.35A20,20,0,0,0-105.84,232.73Zm6.5,18.45c-.79-1.61-1.49-3.09-2.22-4.57a.46.46,0,0,1,.1-.66,16.22,16.22,0,0,0,1.28-1.21c.75-.8,1.47-1.62,2.08-2.3-1.25.16-2.74.35-4.23.56-.91.13-.9.14-1.3-.69-.64-1.35-1.3-2.7-2-4.15-.07.31-.12.5-.16.7-.25,1.44-.52,2.88-.76,4.32,0,.29-.15.41-.44.44-.81.08-1.61.2-2.4.31l-2.62.37a.41.41,0,0,0,0,.11l4.78,2.58-.91,5.16.13,0c.09-.08.2-.15.29-.24,1-1,2.09-2,3.1-3a.64.64,0,0,1,.93-.12c1.15.66,2.32,1.27,3.48,1.89Zm-7.55,51.88c-.23-.36-.47-.7-.68-1.07-.33-.57-.63-1.16-1-1.72a3.76,3.76,0,0,0-3.54-1.91h-.54l0-.16a2.3,2.3,0,0,1,.32-.15,4.12,4.12,0,0,0,2.58-2,3,3,0,0,0-1.88-4.38,15.91,15.91,0,0,0-2-.25,7.91,7.91,0,0,1-3.11-.49l-1.17,1.82a25.28,25.28,0,0,0-1.49,2.36,2.12,2.12,0,0,0,1,2.92,10,10,0,0,0,1.59.58c.24.08.54,0,.57.44s-.26.39-.48.47a3.77,3.77,0,0,0-2.21,1.8,2.75,2.75,0,0,0,2.42,4.13c-.41-.78-.35-1.31.23-1.69a1.23,1.23,0,0,0,.6-1.1,7.09,7.09,0,0,1,.1-1.31,1,1,0,0,1,.5-.63c.87-.17,1.77-.25,2.7-.38a3.42,3.42,0,0,0,2,2.91C-109.28,303.8-107.54,303.76-106.89,303.06ZM-93,298.45q2.22-8.52,5.1-16.84a.93.93,0,0,0-.1-.73c-3.29-4.85-6.4-9.81-9.27-14.91-.17-.3-.32-.35-.65-.24A143.37,143.37,0,0,0-113,271.4,61.35,61.35,0,0,0-124.79,278a16.55,16.55,0,0,0-5,5.23,5.06,5.06,0,0,0,.46,6,17.34,17.34,0,0,0,6,4.46,10.05,10.05,0,0,1,11.25-5.43c5.37,1.1,8.38,4.43,8.77,10a1,1,0,0,0,.21,0c3.25.22,6.48.43,9.72.62C-93.25,298.84-93,298.6-93,298.45Zm28.24,31.36.11-.15,1.52,1.14,1.32-2.33c-1.35-1-2.65-2-4-3a1.82,1.82,0,0,0-1.58.23c-.29.35-.56.72-.85,1.1.22.18.43.34.62.51a5.86,5.86,0,0,1,.42.44l-.14.13-1.06-.77-1.14,1.49,1,.84-.63.8-1.38-1.08c.39-.52.76-1,1.1-1.48a2,2,0,0,0-2.33-.82c-.4.12-.84.1-1.25.2a1.19,1.19,0,0,0-.62.34A14.51,14.51,0,0,0-75,329.26a12.87,12.87,0,0,0-.77,2,.33.33,0,0,0,.11.27c.65.51,1.31,1,2,1.52l1-1.3,1.34,1-.91,1.23.48.37c-.85,1.13-1.69,2.22-2.54,3.34l2.15,1.73,2.59-3.37.67.47,1-1.31,3.25,2.47,1.72-2.24-3.59-2.75.86-1.09,1,.72c.39-.52.76-1,1.13-1.49Zm6-13.89-.78-.78q-6-5.92-11.5-12.31a.91.91,0,0,0-.89-.37c-.78.1-1.57.16-2.36.19q-7.48.23-15,.42c-.39,0-.56.1-.66.52A133.08,133.08,0,0,0-92.82,322a51.79,51.79,0,0,0,.25,12.19,14.53,14.53,0,0,0,2,5.88,5,5,0,0,0,5.52,2.3,18.79,18.79,0,0,0,7.57-3.76.23.23,0,0,0,0-.1,10,10,0,0,1,.29-12.23,10.82,10.82,0,0,1,5.45-3.93,9.82,9.82,0,0,1,8,.9Zm8.94-16-16.52,2.19c3.26,3.42,6.46,6.78,9.78,10.28Zm33.47,24.69c-.05-1-.16-2.11-.26-3.2a10.57,10.57,0,0,1-4.82-.18,9.64,9.64,0,0,1-4.14-2.41,10.91,10.91,0,0,1-2.6-4,10.79,10.79,0,0,1-.42-6.69,9.89,9.89,0,0,1,5.24-6.4l-3.52-7-.4.1c-5.65,1.57-11.36,2.92-17.13,4a1,1,0,0,0-.7.6c-2.15,4.14-4.29,8.27-6.46,12.39-.6,1.13-1.27,2.23-2,3.43.14.11.3.21.43.33,2.15,1.86,4.25,3.78,6.45,5.59a84.45,84.45,0,0,0,15,10.24,23.68,23.68,0,0,0,8.33,2.85c3.4.36,5.64-1,6.55-4.3A16.64,16.64,0,0,0-16.4,324.59ZM-23.83,308c0,.73,0,1.37.79,1.79a26.21,26.21,0,0,1,2.43,1.61c.14.1.27.23.45.37-.43.29-.87.57-.57,1.07a5.08,5.08,0,0,0,.87.94,1.26,1.26,0,0,1-.1.15,1.26,1.26,0,0,0,.37,2,.47.47,0,0,1,0,.83.82.82,0,0,0-.28,1.24l3-.39a2.66,2.66,0,0,0-.32-.88,3.11,3.11,0,0,0-.87-.47c1.2-.22,1.64-.49,1.52-.92-.22-.83-.93-.66-1.7-.7a5,5,0,0,0,.39-1.33,4.26,4.26,0,0,0-.34-1.22,11.14,11.14,0,0,0,1.95-.84,4.75,4.75,0,0,0,2.4-4.68A3.69,3.69,0,0,0-18,303.37a5.74,5.74,0,0,0-3.21,1.3,1.55,1.55,0,0,0-.16,2.51l1.08-.71v.74a.74.74,0,0,0,.57-.89,1.37,1.37,0,0,1,1.21-1.56,2.51,2.51,0,0,1,3.17,3,2.25,2.25,0,0,1-1.52,1.89c.63-.8,1.66-1.42.94-2.71ZM6.58,265.88a18.79,18.79,0,0,0-6.43-4.41,10.24,10.24,0,0,1-11.74,5.37c-5-1.25-7.85-4.45-8.3-9.76l-9.41-.59c-.07.18-.11.28-.14.38q-2.16,8.47-5.06,16.73a1.12,1.12,0,0,0,.16,1.1q3.63,5.66,7.21,11.32c.78,1.22,1.47,2.49,2.2,3.76l.34-.09A139,139,0,0,0-9.16,283.9a60.27,60.27,0,0,0,11.75-6.66,17.54,17.54,0,0,0,4.5-4.63A5.16,5.16,0,0,0,6.58,265.88Z"/><path d="M242,273.81a20.74,20.74,0,0,1-5.61,6.36A61.28,61.28,0,0,1,223,288a125.73,125.73,0,0,1-14,5.29l-.63.2.32.66c1,2,2,4,3,6,.12.26.23.4.56.38,5-.4,9,2.92,10.4,7.46a10.08,10.08,0,0,1-3.9,11.65c-.34.24-.3.5-.26.81a34.22,34.22,0,0,1,.3,7.08A14.38,14.38,0,0,1,217,334a8.32,8.32,0,0,1-7.59,4.24A22.81,22.81,0,0,1,200,336a70.58,70.58,0,0,1-14.54-8.73,112.74,112.74,0,0,1-9.56-8.05l-.42-.36c-1.58,2.38-3.15,4.72-4.74,7.1,0,.06.09.16.15.24,3.3,4.28,2.53,9.67-.88,13.33a10.36,10.36,0,0,1-7.52,3.51,9.38,9.38,0,0,1-5.23-1.43.62.62,0,0,0-.82,0,28,28,0,0,1-7.29,4,10.77,10.77,0,0,1-6.91.43,9.18,9.18,0,0,1-5.46-5,23.58,23.58,0,0,1-2.3-8.22,68.58,68.58,0,0,1,.53-18.27c.58-3.83,1.39-7.62,2.09-11.42a1.36,1.36,0,0,0,0-.24c-1.11-.07-2.19-.11-3.26-.19-2.1-.16-4.21-.32-6.31-.5-.3,0-.46,0-.59.32-2.3,5.56-8.44,7.39-13.7,5.25a9.63,9.63,0,0,1-6.25-7.39,14.58,14.58,0,0,1-.16-2.47.67.67,0,0,0-.43-.71,24.59,24.59,0,0,1-7-4.85,9.07,9.07,0,0,1-2.86-6.8,10.64,10.64,0,0,1,2.47-6,29.93,29.93,0,0,1,7.72-6.73,89.11,89.11,0,0,1,18.07-8.67c2.13-.79,4.29-1.48,6.44-2.21l.42-.15-.88-1.71c-.66-1.33-1.31-2.66-2-4a.62.62,0,0,0-.47-.28c-6.07.93-10.54-3.32-11.6-8.46a9.87,9.87,0,0,1,4.7-11,.51.51,0,0,0,.26-.62,37.91,37.91,0,0,1-.45-7.52,15,15,0,0,1,1.83-7.12,8.1,8.1,0,0,1,6.62-4.07,19.88,19.88,0,0,1,9.16,1.72,63.08,63.08,0,0,1,13.58,7.77,123.25,123.25,0,0,1,11.61,9.53l.47.41,4.73-7.08a10.67,10.67,0,0,1-2.38-3.89,10,10,0,0,1,1.88-9.68,10.26,10.26,0,0,1,8.63-4.18,9.72,9.72,0,0,1,5.43,1.88.66.66,0,0,0,.91,0,28.53,28.53,0,0,1,7.86-4.12,10.24,10.24,0,0,1,7,0,9.48,9.48,0,0,1,5,5.22,24.21,24.21,0,0,1,1.91,7.38,70.48,70.48,0,0,1-.29,16.42c-.53,4.56-1.33,9.07-2.31,13.55a1.71,1.71,0,0,0,0,.36c1.13.07,2.25.11,3.36.19,1.8.12,3.59.26,5.38.41.3,0,.46,0,.58-.33,2.22-5.68,8.28-7.51,13.43-5.6a9.7,9.7,0,0,1,6.73,8.29,8.45,8.45,0,0,1,0,1.59c0,.42.13.58.49.77a57.9,57.9,0,0,1,5.19,2.85,13.84,13.84,0,0,1,3.11,2.85C243.8,266.67,243.94,270.19,242,273.81Zm-26-19c.25,2,.52,4,.78,5.94a.81.81,0,0,0,1,.76l9.92-1.32c.72-.09,1-.38.86-1.11-.26-2-.53-4-.79-5.94-.08-.64-.27-.87-.91-.85a13.66,13.66,0,0,0-1.91.24c-.91.17-.91.18-1.06-.73-.13-.71-.37-.88-1.1-.78l-2.83.38c-.6.07-.77.25-.75.85,0,.33.06.65.11,1.08-.18-.08-.35-.13-.35-.18,0-.68-.45-.57-.88-.5a5.28,5.28,0,0,1-.55,0c-.68.06-.79.17-.81.87C216,253.92,215.89,254.05,216,254.85Zm-43.61-32.3a2.22,2.22,0,0,0,1.55,1.13c.09,0,.14.22.22.36l-.84.21c.87,1.78,1.72,3.5,2.57,5.22l.11,0c.31-1.88.61-3.75.93-5.68h-.85v-.16c.5-.05,1-.08,1.51-.14,1.91-.23,3.28-1,3.68-3.16a6.34,6.34,0,0,1,.68-1.62,13.89,13.89,0,0,1,.88-1.34l-1.29-.07,1.12-2.1a3,3,0,0,0-2.84,1.52,1.21,1.21,0,0,1-1.24.55c-.12-.57-.24-1.1-.36-1.65a2.26,2.26,0,0,1-1.61,1.3c-.63.14-1.25.28-1.89.38-1.76.28-2.38,1.38-2.65,2.93A3.59,3.59,0,0,0,172.38,222.55Zm-4.82,16.88a3.3,3.3,0,0,0,.22.27c4.12,4,8,8.18,11.76,12.52a1.7,1.7,0,0,0,1.61.68c5.64-.43,11.29-.64,16.95-.57.41,0,.57-.12.64-.53.65-3.53,1.4-7.05,2-10.6a77,77,0,0,0,1.1-15.61,27.5,27.5,0,0,0-1.13-7.27,12.68,12.68,0,0,0-.89-2.12,5.32,5.32,0,0,0-6.61-2.95,19.87,19.87,0,0,0-6.15,3c-.35.23-.68.48-1,.7,2.3,4.25,1.88,8.25-1.1,11.85-3.28,3.94-7.45,5.12-12.41,3.15Zm-25.26,59.5c4.79.06,9.44-.08,14.08-.38l-10.09-13.12C145,289.93,143.64,294.39,142.3,298.93Zm9.11-37.81c-4.59.95-9.12,2-13.73,3.32,2.5,4.07,4.94,8,7.4,12Zm9.8,36.64a2.2,2.2,0,0,0,.63.44c2.92-.32,5.67-.56,8.39-.94,4.27-.59,8.53-1.27,12.79-1.9a.82.82,0,0,0,.69-.52q4.47-9.63,8.09-19.62a.75.75,0,0,0-.09-.8q-6.12-8.75-13-16.87a.86.86,0,0,0-.64-.28c-.63,0-1.24.07-1.87.13q-9.64.94-19.18,2.62a.93.93,0,0,0-.77.59c-3,6.39-5.66,12.89-8.05,19.51a.91.91,0,0,0,.13.95C152.38,286.83,156.65,292.4,161.21,297.76Zm27.33-3.39,13.79-3.32c-2.54-4.13-5-8.08-7.44-12.09C192.76,284.14,190.67,289.19,188.54,294.37Zm9.18-38-14.18.4L193.7,270Zm-39.1-.86,16.53-2.19L165.36,243Zm-33.25-22.77c.08.76.19,1.51.29,2.26,5.68-.1,9.22,2.14,11,6.9a10.29,10.29,0,0,1-4.14,12.54c1.05,2.08,2.1,4.16,3.17,6.25l.48-.11c5.49-1.55,11-2.83,16.65-3.91a1.54,1.54,0,0,0,1.24-.86c2.52-4.83,5.08-9.63,7.64-14.43.2-.39.43-.76.67-1.16-1.28-1.14-2.5-2.27-3.76-3.37a101.82,101.82,0,0,0-15.15-11.22,33.28,33.28,0,0,0-9.87-4.21,9.15,9.15,0,0,0-3.72-.14c-2.42.46-3.62,2.12-4.2,4.35A20,20,0,0,0,125.37,232.73Zm6.5,18.45c-.78-1.61-1.49-3.09-2.22-4.57a.46.46,0,0,1,.11-.66c.44-.38.87-.78,1.28-1.21.74-.8,1.46-1.62,2.08-2.3-1.25.16-2.75.35-4.23.56-.91.13-.9.14-1.3-.69l-2-4.15c-.07.31-.11.5-.15.7-.26,1.44-.52,2.88-.77,4.32,0,.29-.14.41-.44.44-.8.08-1.6.2-2.4.31l-2.62.37a.41.41,0,0,1,0,.11L124,247c-.3,1.75-.61,3.45-.91,5.16l.13,0,.3-.24c1-1,2.08-2,3.09-3a.64.64,0,0,1,.93-.12c1.15.66,2.32,1.27,3.49,1.89C131.24,250.88,131.5,251,131.87,251.18Zm-7.54,51.88c-.23-.36-.47-.7-.68-1.07-.34-.57-.63-1.16-1-1.72a3.75,3.75,0,0,0-3.53-1.91h-.55c0-.05,0-.11,0-.16a1.77,1.77,0,0,1,.31-.15,4.07,4.07,0,0,0,2.58-2,3,3,0,0,0-1.88-4.38,15.67,15.67,0,0,0-2-.25,7.86,7.86,0,0,1-3.1-.49l-1.18,1.82a25.28,25.28,0,0,0-1.49,2.36,2.12,2.12,0,0,0,1,2.92,10.76,10.76,0,0,0,1.59.58c.24.08.54,0,.57.44s-.25.39-.48.47a3.75,3.75,0,0,0-2.2,1.8,2.75,2.75,0,0,0,2.41,4.13c-.4-.78-.35-1.31.24-1.69a1.25,1.25,0,0,0,.59-1.1,6.32,6.32,0,0,1,.11-1.31,1,1,0,0,1,.5-.63c.87-.17,1.76-.25,2.69-.38a3.41,3.41,0,0,0,2,2.91C121.93,303.8,123.68,303.76,124.33,303.06Zm13.89-4.61c1.47-5.68,3.18-11.29,5.09-16.84a.93.93,0,0,0-.09-.73q-5-7.28-9.28-14.91c-.17-.3-.31-.35-.64-.24a142.55,142.55,0,0,0-15.13,5.67A61.43,61.43,0,0,0,106.42,278a16.66,16.66,0,0,0-5,5.23,5.07,5.07,0,0,0,.46,6,17.38,17.38,0,0,0,6,4.46,10,10,0,0,1,11.24-5.43c5.37,1.1,8.38,4.43,8.78,10a.8.8,0,0,0,.21,0q4.86.33,9.72.62C138,298.84,138.18,298.6,138.22,298.45Zm28.24,31.36.11-.15,1.52,1.14c.45-.82.88-1.56,1.31-2.33-1.35-1-2.65-2-4-3a1.84,1.84,0,0,0-1.59.23c-.29.35-.55.72-.85,1.1.22.18.44.34.62.51a4.37,4.37,0,0,1,.42.44l-.13.13-1.07-.77-1.13,1.49,1,.84c-.22.29-.42.54-.63.8l-1.38-1.08c.4-.52.76-1,1.11-1.48a2,2,0,0,0-2.34-.82c-.39.12-.84.1-1.24.2a1.18,1.18,0,0,0-.63.34,13.6,13.6,0,0,0-1.43,1.89,12.91,12.91,0,0,0-.78,2,.34.34,0,0,0,.12.27c.64.51,1.3,1,2,1.52l1-1.3,1.34,1L159,334l.48.37-2.55,3.34,2.15,1.73c.88-1.14,1.74-2.25,2.59-3.37l.67.47,1-1.31,3.25,2.47c.58-.77,1.14-1.49,1.71-2.24l-3.58-2.75.85-1.09,1,.72,1.14-1.49Zm5.94-13.89-.77-.78q-6-5.92-11.5-12.31a.94.94,0,0,0-.9-.37c-.78.1-1.57.16-2.36.19q-7.47.23-15,.42c-.39,0-.56.1-.65.52A134.62,134.62,0,0,0,138.39,322a52.33,52.33,0,0,0,.25,12.19,14.4,14.4,0,0,0,2,5.88,5,5,0,0,0,5.51,2.3,18.79,18.79,0,0,0,7.57-3.76s0-.06.05-.1a10,10,0,0,1,.28-12.23,10.86,10.86,0,0,1,5.45-3.93,9.82,9.82,0,0,1,8,.9Zm8.95-16-16.52,2.19,9.77,10.28Zm33.47,24.69c-.06-1-.17-2.11-.26-3.2a10.56,10.56,0,0,1-4.82-.18,9.58,9.58,0,0,1-4.14-2.41,10.66,10.66,0,0,1-2.6-4,10.8,10.8,0,0,1-.43-6.69,9.91,9.91,0,0,1,5.25-6.4l-3.53-7-.39.1c-5.66,1.57-11.36,2.92-17.13,4a.94.94,0,0,0-.7.6q-3.23,6.21-6.47,12.39c-.6,1.13-1.27,2.23-2,3.43.15.11.3.21.44.33,2.15,1.86,4.25,3.78,6.44,5.59a84.82,84.82,0,0,0,15,10.24,23.68,23.68,0,0,0,8.33,2.85c3.41.36,5.64-1,6.55-4.3A16.64,16.64,0,0,0,214.82,324.59ZM207.39,308c0,.73,0,1.37.79,1.79s1.62,1.06,2.43,1.61c.14.1.26.23.44.37-.43.29-.87.57-.57,1.07a5.45,5.45,0,0,0,.87.94,1,1,0,0,1-.09.15,1.26,1.26,0,0,0,.36,2,.47.47,0,0,1,0,.83.82.82,0,0,0-.28,1.24l3-.39a3.19,3.19,0,0,0-.32-.88,3.26,3.26,0,0,0-.87-.47c1.2-.22,1.63-.49,1.52-.92-.22-.83-.94-.66-1.71-.7a5,5,0,0,0,.4-1.33,4.62,4.62,0,0,0-.35-1.22,11.57,11.57,0,0,0,2-.84,4.78,4.78,0,0,0,2.4-4.68,3.7,3.7,0,0,0-4.13-3.23,5.74,5.74,0,0,0-3.22,1.3,1.56,1.56,0,0,0-.16,2.51l1.08-.71v.74a.76.76,0,0,0,.58-.89,1.36,1.36,0,0,1,1.21-1.56,2.51,2.51,0,0,1,3.17,3,2.28,2.28,0,0,1-1.53,1.89c.63-.8,1.66-1.42.94-2.71Zm30.41-42.11a19,19,0,0,0-6.43-4.41,10.25,10.25,0,0,1-11.74,5.37c-5-1.25-7.86-4.45-8.3-9.76l-9.42-.59c-.06.18-.1.28-.13.38q-2.17,8.47-5.07,16.73a1.12,1.12,0,0,0,.16,1.1q3.63,5.66,7.22,11.32c.77,1.22,1.46,2.49,2.2,3.76l.33-.09a138.26,138.26,0,0,0,15.43-5.79,60,60,0,0,0,11.75-6.66,17.24,17.24,0,0,0,4.5-4.63A5.17,5.17,0,0,0,237.8,265.88Z"/></pattern></defs><title>SvFull4</title><rect class="cls-2" x="2.13" y="1.73" width="495.75" height="824.7"/><rect class="cls-3" x="2.13" y="1.73" width="495.75" height="824.7"/><rect class="cls-4" x="2.13" y="1.73" width="495.75" height="824.7"/><rect class="cls-5" x="2.13" y="1.73" width="495.75" height="824.7"/></svg>